<svg xmlns="http://www.w3.org/2000/svg" width="30" height="30" viewBox="0 0 30 30"><g><g><path fill="#0b1f42" d="M30 10.744v12.154c0 .967-.483 1.934-1.208 2.604l-3.25 3.388c-.68.74-1.662 1.11-2.644 1.11H2.268C.981 30 0 29.052 0 27.811V4.714c0-1.336.975-2.357 2.25-2.357H7.5V.786C7.5.314 7.8 0 8.25 0S9 .314 9 .786v1.571h12V.786c0-.472.3-.786.75-.786s.75.314.75.786v1.571h5.25c1.275 0 2.25 1.021 2.25 2.357v6.03zM1.511 27.811c0 .438.303.73.756.73l16.877-.022h2.771c.832 0 1.335-.694 1.335-1.519v-1.5c0-1.275.975-2.25 2.25-2.25H27c.825 0 1.39-.501 1.39-1.32V12H1.5zm26.014-3.136c-.225.075-.375.075-.525.075h-1.5c-.45 0-.75.3-.75.75V27c0 .225-.075.375-.075.525zm.975-19.96c0-.472-.3-.787-.75-.787H22.5v1.808c.45.235.75.785.75 1.335 0 .865-.675 1.572-1.5 1.572s-1.5-.707-1.5-1.572c0-.55.3-1.1.75-1.335V3.928H9v1.808c.45.235.75.785.75 1.335 0 .865-.675 1.572-1.5 1.572s-1.5-.707-1.5-1.572c0-.55.3-1.1.75-1.335V3.928H2.25c-.45 0-.75.315-.75.786v5.678h26.969a.67.67 0 0 1 .031-.055zm-16 9.535a1.5 1.5 0 1 1 0 3 1.5 1.5 0 0 1 0-3zm5 0a1.5 1.5 0 1 1 0 3 1.5 1.5 0 0 1 0-3zm5 0a1.5 1.5 0 1 1 0 3 1.5 1.5 0 0 1 0-3zM7.5 21a1.5 1.5 0 1 1 0 3 1.5 1.5 0 0 1 0-3zm5 0a1.5 1.5 0 1 1 0 3 1.5 1.5 0 0 1 0-3zm5 0a1.5 1.5 0 1 1 0 3 1.5 1.5 0 0 1 0-3z"/></g></g></svg>