<svg xmlns="http://www.w3.org/2000/svg" width="20" height="20" viewBox="0 0 20 20">
  <metadata><?xpacket begin="﻿" id="W5M0MpCehiHzreSzNTczkc9d"?>
<x:xmpmeta xmlns:x="adobe:ns:meta/" x:xmptk="Adobe XMP Core 5.6-c142 79.160924, 2017/07/13-01:06:39        ">
   <rdf:RDF xmlns:rdf="http://www.w3.org/1999/02/22-rdf-syntax-ns#">
      <rdf:Description rdf:about=""/>
   </rdf:RDF>
</x:xmpmeta>
                                                                                                    
                                                                                                    
                                                                                                    
                                                                                                    
                                                                                                    
                                                                                                    
                                                                                                    
                                                                                                    
                                                                                                    
                                                                                                    
                                                                                                    
                                                                                                    
                                                                                                    
                                                                                                    
                                                                                                    
                                                                                                    
                                                                                                    
                                                                                                    
                                                                                                    
                                                                                                    
                           
<?xpacket end="w"?></metadata>
<defs>
    <style>
      .cls-1 {
        fill: #fff;
        fill-rule: evenodd;
      }
    </style>
  </defs>
  <path id="иконка" class="cls-1" d="M1344.75,502.748a2.558,2.558,0,0,1,.76,1.812v14.88a2.588,2.588,0,0,1-2.57,2.568h-14.88a2.588,2.588,0,0,1-2.57-2.568V504.56a2.588,2.588,0,0,1,2.57-2.568h14.88A2.545,2.545,0,0,1,1344.75,502.748Zm-5.58,4.524a1,1,0,0,0,.29.672,0.886,0.886,0,0,0,.65.264h2.28a1,1,0,0,0,.65-0.288,0.9,0.9,0,0,0,.26-0.648v-2.16a0.9,0.9,0,0,0-.91-0.912h-2.28a0.9,0.9,0,0,0-.67.264,0.871,0.871,0,0,0-.27.648v2.16Zm-6.5,1.944a3.791,3.791,0,0,0-1.18,2.736,3.832,3.832,0,0,0,1.18,2.748,4.083,4.083,0,0,0,5.66,0,3.762,3.762,0,0,0,0-5.472A4.1,4.1,0,0,0,1332.67,509.216Zm10.8,0.792h-2.02a6.245,6.245,0,0,1,.18,1.056q0.06,0.624.06,1.1a5.932,5.932,0,0,1-1.81,4.272,6.307,6.307,0,0,1-8.75-.024,5.929,5.929,0,0,1-1.82-4.248q0-.48.06-1.1a6.245,6.245,0,0,1,.18-1.056h-2.04v8.9a1.186,1.186,0,0,0,.33.708,1,1,0,0,0,.65.372h13.97a1.042,1.042,0,0,0,.66-0.372,1.165,1.165,0,0,0,.35-0.708v-8.9Z" transform="translate(-1325.5 -502)"/>
</svg>
