<svg xmlns="http://www.w3.org/2000/svg" width="21" height="30" viewBox="0 0 21 30"><g><g><path fill="#0b1f42" d="M21 10.547a10.57 10.57 0 0 1-1.481 5.403l-8.123 13.623a.874.874 0 0 1-.743.427h-.007a.874.874 0 0 1-.744-.416L1.567 16.093A10.56 10.56 0 0 1 0 10.547C0 4.73 4.71 0 10.5 0S21 4.731 21 10.547zm-1.744 0c0-4.846-3.931-8.801-8.756-8.801s-8.762 3.955-8.762 8.8c0 1.638.463 3.236 1.317 4.62l7.577 12.267 7.385-12.385a8.81 8.81 0 0 0 1.239-4.501zm-3.506 0c0 2.857-2.28 5.273-5.25 5.273-2.933 0-5.25-2.384-5.25-5.273 0-2.908 2.355-5.274 5.25-5.274s5.25 2.366 5.25 5.274zm-1.744 0c0-1.939-1.576-3.528-3.506-3.528-1.93 0-3.512 1.59-3.512 3.528 0 1.943 1.572 3.527 3.512 3.527 1.97 0 3.506-1.612 3.506-3.527z"/></g></g></svg>