<svg xmlns="http://www.w3.org/2000/svg" width="34" height="31" viewBox="0 0 34 31"><g><g><path fill="#0b1f42" d="M.908 13.616L32.739.346a.826.826 0 0 1 .86.135.883.883 0 0 1 .291.838l-5.18 27.044c-.167.796-.846 1.364-1.63 1.364a1.61 1.61 0 0 1-.943-.305l-6.241-4.426-4.404 4.994a.834.834 0 0 1-.915.242.87.87 0 0 1-.576-.768l-.458-8.794-12.455-3.857A1.68 1.68 0 0 1-.09 15.285a1.719 1.719 0 0 1 .999-1.67zm17.58 10.378l-3.19-2.259.284 5.548zM31.623 4.118l-15.93 15.785 11.36 8.055zM1.685 15.178l12.44 3.85 15.75-15.606z"/></g></g></svg>