<svg xmlns="http://www.w3.org/2000/svg" width="25.16" height="14.063" viewBox="0 0 25.16 14.063">
  <metadata><?xpacket begin="﻿" id="W5M0MpCehiHzreSzNTczkc9d"?>
<x:xmpmeta xmlns:x="adobe:ns:meta/" x:xmptk="Adobe XMP Core 5.6-c142 79.160924, 2017/07/13-01:06:39        ">
   <rdf:RDF xmlns:rdf="http://www.w3.org/1999/02/22-rdf-syntax-ns#">
      <rdf:Description rdf:about=""/>
   </rdf:RDF>
</x:xmpmeta>
                                                                                                    
                                                                                                    
                                                                                                    
                                                                                                    
                                                                                                    
                                                                                                    
                                                                                                    
                                                                                                    
                                                                                                    
                                                                                                    
                                                                                                    
                                                                                                    
                                                                                                    
                                                                                                    
                                                                                                    
                                                                                                    
                                                                                                    
                                                                                                    
                                                                                                    
                                                                                                    
                           
<?xpacket end="w"?></metadata>
<defs>
    <style>
      .cls-1 {
        fill: #fff;
        fill-rule: evenodd;
      }
    </style>
  </defs>
  <path id="иконка" class="cls-1" d="M1396.6,518.56a0.519,0.519,0,0,1,.01.405,0.819,0.819,0,0,1-.37.375,1.358,1.358,0,0,1-.75.15l-3.33.06a1.062,1.062,0,0,1-.38.045,1.235,1.235,0,0,1-.37-0.105,2.045,2.045,0,0,1-.72-0.3l-0.24-.15q-0.36-.3-0.9-0.84a10.791,10.791,0,0,1-.9-1,3.175,3.175,0,0,0-.81-0.75,0.944,0.944,0,0,0-.75-0.2,0.111,0.111,0,0,1-.09.06,0.693,0.693,0,0,1-.21.18l-0.3.42q-0.03.12-.09,0.3a2.229,2.229,0,0,0-.09.39,2.75,2.75,0,0,0-.12.99,1.25,1.25,0,0,1-.05.36,0.912,0.912,0,0,1-.1.24l-0.03.06a0.634,0.634,0,0,1-.3.21,2.2,2.2,0,0,1-.42.09h-1.5a4.932,4.932,0,0,1-1.88-.195,8.46,8.46,0,0,1-1.71-.69,10.184,10.184,0,0,1-1.33-.87q-0.6-.465-0.93-0.735l-0.33-.3-0.36-.42-0.96-1.2c-0.48-.6-0.95-1.245-1.4-1.935s-0.98-1.615-1.6-2.775-1.18-2.34-1.68-3.54a1.33,1.33,0,0,1-.11-0.345,0.23,0.23,0,0,1,.05-0.195l0.06-.09a1.044,1.044,0,0,1,.75-0.27h3.54a0.243,0.243,0,0,1,.24.21l0.21,0.09,0.06,0.06a0.671,0.671,0,0,1,.3.39,8.5,8.5,0,0,0,.57,1.35q0.36,0.69.57,1.05l0.21,0.42c0.24,0.48.48,0.92,0.73,1.32a5.847,5.847,0,0,0,.68.915,4.88,4.88,0,0,0,.55.51,0.784,0.784,0,0,0,.44.2,0.881,0.881,0,0,0,.33-0.06l0.06-.03a0.75,0.75,0,0,1,.13-0.315,2.16,2.16,0,0,0,.23-0.585,8.543,8.543,0,0,1,.09-1.065,7.392,7.392,0,0,0,0-1.635q-0.03-.54-0.09-0.96-0.15-.45-0.21-0.6l-0.09-.15a1.672,1.672,0,0,0-1.11-.54c-0.12-.02-0.11-0.115.04-0.285a2.561,2.561,0,0,1,.5-0.435,9.848,9.848,0,0,1,3.12-.3,8.4,8.4,0,0,1,1.74.15,1.615,1.615,0,0,1,.48.195,0.554,0.554,0,0,1,.21.315,1.84,1.84,0,0,1,.16.39,1.583,1.583,0,0,1,.05.6v0.72a4.677,4.677,0,0,0-.06.9V511a2.223,2.223,0,0,0,.07.54c0.05,0.2.1,0.37,0.14,0.51l0.3,0.3a0.583,0.583,0,0,0,.19.045,0.555,0.555,0,0,0,.35-0.135l0.51-.45a2.786,2.786,0,0,0,.69-0.87,10.33,10.33,0,0,0,.9-1.38,16.222,16.222,0,0,0,1.41-2.97l0.15-.24,0.15-.15,0.06-.06a0.061,0.061,0,0,1,.01-0.045,0.662,0.662,0,0,1,.17-0.045l4.02-.06a2.53,2.53,0,0,1,.78.045,0.577,0.577,0,0,1,.36.225l0.09,0.15q0.3,0.87-1.95,3.84-0.27.39-.84,1.11a9.916,9.916,0,0,0-1.14,1.68,1.025,1.025,0,0,0,.18,1.05l1.11,1.11a11.95,11.95,0,0,1,2.49,2.91,0.983,0.983,0,0,1,.12.15h0a1.054,1.054,0,0,0,.24.3h0Z" transform="translate(-1371.5 -505.531)"/>
</svg>
