<svg xmlns="http://www.w3.org/2000/svg" width="24" height="24" viewBox="0 0 24 24">
  <metadata><?xpacket begin="﻿" id="W5M0MpCehiHzreSzNTczkc9d"?>
<x:xmpmeta xmlns:x="adobe:ns:meta/" x:xmptk="Adobe XMP Core 5.6-c142 79.160924, 2017/07/13-01:06:39        ">
   <rdf:RDF xmlns:rdf="http://www.w3.org/1999/02/22-rdf-syntax-ns#">
      <rdf:Description rdf:about=""/>
   </rdf:RDF>
</x:xmpmeta>
                                                                                                    
                                                                                                    
                                                                                                    
                                                                                                    
                                                                                                    
                                                                                                    
                                                                                                    
                                                                                                    
                                                                                                    
                                                                                                    
                                                                                                    
                                                                                                    
                                                                                                    
                                                                                                    
                                                                                                    
                                                                                                    
                                                                                                    
                                                                                                    
                                                                                                    
                                                                                                    
                           
<?xpacket end="w"?></metadata>
<defs>
    <style>
      .cls-1 {
        fill: #fff;
        fill-rule: evenodd;
      }
    </style>
  </defs>
  <path id="иконка" class="cls-1" d="M1480.1,506.169l-1.99-6.179h1.56l0.95,3.725h0.09l0.98-3.725h1.59l-2.08,6.035v2.742h-1.1v-2.6Zm4.3,2.512a1.968,1.968,0,0,1-.46-0.347,2,2,0,0,1-.52-1.414v-2.888a1.524,1.524,0,0,1,.52-1.241,4.38,4.38,0,0,1,.48-0.419,1.092,1.092,0,0,1,.65-0.158,0.872,0.872,0,0,1,.6.158c0.12,0.106.26,0.246,0.44,0.419a1.787,1.787,0,0,1,.52,1.3v2.83a1.875,1.875,0,0,1-.52,1.414,2.826,2.826,0,0,1-.42.347,1.33,1.33,0,0,1-.65.115A1.481,1.481,0,0,1,1484.4,508.681Zm0.03-4.735v3.031a0.573,0.573,0,0,0,.15.433,0.547,0.547,0,0,0,.42.145,0.514,0.514,0,0,0,.4-0.145,0.612,0.612,0,0,0,.13-0.433v-3.031a0.421,0.421,0,0,0-.13-0.376,1.326,1.326,0,0,0-.2-0.115,0.527,0.527,0,0,0-.19-0.029,0.457,0.457,0,0,0-.39.13,0.516,0.516,0,0,0-.16.39h-0.03Zm3.67,4.677-0.12-.26a1.373,1.373,0,0,1-.23-0.895v-5.312h1.1v4.908a1.076,1.076,0,0,0,.09.346l0.05,0.058a0.141,0.141,0,0,0,.12.015,0.373,0.373,0,0,0,.19-0.231,1.405,1.405,0,0,1,.21-0.332,1.939,1.939,0,0,0,.44-0.376v-4.388h1.12v6.409h-1.12V507.41a3.835,3.835,0,0,0-.36.578,1.552,1.552,0,0,1-.39.491,1.789,1.789,0,0,1-.84.231,0.26,0.26,0,0,1-.26-0.087h0Zm-0.61,7.593,0.18,0.231a0.475,0.475,0,0,1,.08.26v3.609a0.427,0.427,0,0,1-.08.231l-0.12.2a0.308,0.308,0,0,1-.29.145,1.1,1.1,0,0,1-.29-0.043,1.05,1.05,0,0,1-.34-0.217v-4.273a0.93,0.93,0,0,1,.29-0.2l0.14-.029h0.12a0.5,0.5,0,0,1,.31.086h0Zm8.78-3.854a3.984,3.984,0,0,1,1.24,3.046v4.129a4.561,4.561,0,0,1-1.28,3.147,4.35,4.35,0,0,1-3.11,1.328h-15.24a4.357,4.357,0,0,1-3.09-1.328,4.534,4.534,0,0,1-1.3-3.147v-4.129a4.179,4.179,0,0,1,1.3-3.046,4.445,4.445,0,0,1,3.09-1.2h15.3A4.445,4.445,0,0,1,1496.27,512.362Zm-16.23,1.833h1.1v-1.1h-3.26v1.1h1.07v7.652h1.09V514.2Zm4.34,7.652v-6.554h-1.07v5.023a0.378,0.378,0,0,1-.21.174l-0.23.144a0.767,0.767,0,0,1-.37.144,0.209,0.209,0,0,1-.2-0.086,0.715,0.715,0,0,1-.09-0.289v-5.11h-1.1v5.543a1.212,1.212,0,0,0,.23.808,0.694,0.694,0,0,0,.58.26,1.383,1.383,0,0,0,.71-0.216,2.176,2.176,0,0,0,.65-0.621v0.78h1.1Zm4.47-1.3v-3.84a1.93,1.93,0,0,0-.27-1.126,0.97,0.97,0,0,0-.83-0.375,1.273,1.273,0,0,0-.55.144,1.749,1.749,0,0,0-.3.174,1.359,1.359,0,0,0-.27.259v-2.656h-1.1v8.662h1.15v-0.462a1.6,1.6,0,0,0,.5.375,0.944,0.944,0,0,0,.57.145,0.789,0.789,0,0,0,.75-0.347,1.279,1.279,0,0,0,.29-0.953h0.06Zm4.33-3.118a4.815,4.815,0,0,0-.1-0.953,1.7,1.7,0,0,0-.33-0.779,1.4,1.4,0,0,0-1.16-.433,1.7,1.7,0,0,0-1.21.462,2.077,2.077,0,0,0-.35.822,4.911,4.911,0,0,0-.11.91v2.6a1.975,1.975,0,0,0,.4,1.3,1.459,1.459,0,0,0,1.19.491,1.63,1.63,0,0,0,1.24-.434,2.039,2.039,0,0,0,.43-1.357v-0.288h-1.15v0.26a2.53,2.53,0,0,1-.1.649,0.345,0.345,0,0,1-.37.145,0.465,0.465,0,0,1-.39-0.174,1.38,1.38,0,0,1-.1-0.62v-1.444h2.11v-1.155Zm-1.24-.982a3.457,3.457,0,0,1,.06.462c0.02,0.231.03,0.415,0.03,0.549v0.2h-0.96v-0.751a1.439,1.439,0,0,1,.09-0.462,0.458,0.458,0,0,1,.38-0.144,0.618,0.618,0,0,1,.4.144h0Z" transform="translate(-1473.5 -500)"/>
</svg>
