<svg width="16" height="19" viewBox="0 0 16 19" fill="none" xmlns="http://www.w3.org/2000/svg">
<path d="M14.8587 0H1.14286C1.14286 0 1.1421 0 1.14133 0C0.510476 0 0 0.511238 0 1.14133V1.14286V17.1429V17.1444C0 17.7752 0.511238 18.2857 1.14133 18.2857H1.14286H14.8571C15.488 18.2857 15.9985 17.7745 15.9985 17.1444V1.14286C15.9985 1.14286 15.9985 1.1421 15.9985 1.14133C15.9985 0.511238 15.488 0.000761905 14.8579 0H14.8587ZM4.57143 16H2.28571V13.7143H4.57143V16ZM4.57143 12.5714H2.28571V10.2872H4.57143V12.5714ZM4.57143 9.14286H2.28571V6.8579H4.57143V9.14286ZM9.14286 16H6.85714V13.7143H9.14286V16ZM9.14286 12.5714H6.85714V10.2872H9.14286V12.5714ZM9.14286 9.14286H6.85714V6.8579H9.14286V9.14286ZM13.7143 16H11.4286V6.85714H13.7143V16ZM13.7143 5.39429H2.28571V2.28571H13.7143V5.39429Z" fill="white"/>
</svg>
