<svg width="70" height="70" viewBox="0 0 70 70" fill="none" xmlns="http://www.w3.org/2000/svg">
<path d="M35.0734 42.0137H26.6769C26.3766 42.0137 26.1191 41.7562 26.1191 41.4558V19.1987C26.1191 18.8983 26.3766 18.6409 26.6769 18.6409H35.0734C35.3738 18.6409 35.6313 18.8983 35.6313 19.1987V41.4558C35.6313 41.7562 35.3738 42.0137 35.0734 42.0137Z" fill="#D3E1E5"/>
<path d="M65.6411 49.4091C65.8986 48.7368 65.5839 47.993 64.9116 47.7213C64.2393 47.4638 63.4955 47.7785 63.2238 48.4508C62.2368 50.954 59.7765 52.6418 57.0873 52.6418H29.9526C29.6236 52.6418 29.2946 52.7706 29.0515 52.9994L16.6642 64.8575V53.9292C16.6642 53.5859 16.5211 53.2569 16.278 53.0137C16.0348 52.7706 15.7058 52.6275 15.3625 52.6275H9.18318C5.54996 52.6275 2.58903 49.6666 2.58903 46.0334V16.8103C2.58903 13.1771 5.54996 10.2161 9.18318 10.2161H38.5779C39.2931 10.2161 39.8796 9.62966 39.8796 8.91446C39.8796 8.19926 39.2931 7.61279 38.5779 7.61279H9.18318C4.11956 7.61279 0 11.7323 0 16.796V46.0334C0 51.097 4.11956 55.2166 9.18318 55.2166H14.0752V67.8899C14.0752 68.4049 14.3898 68.8769 14.8619 69.0772C15.0192 69.1487 15.2052 69.1773 15.3768 69.1773C15.7058 69.1773 16.0348 69.0485 16.278 68.8197L30.4819 55.2166H57.1016C60.835 55.2309 64.268 52.885 65.6411 49.4091Z" fill="black"/>
<path d="M69.918 22.7177C70.3042 20.3003 69.3029 17.84 67.3719 16.4525C66.2705 15.6658 64.9831 15.251 63.6385 15.251H54.155V8.47087C54.155 5.46703 53.2681 3.29282 51.523 2.01976C48.7624 -0.0114108 44.9861 1.14721 44.8288 1.19013C44.2852 1.36177 43.9276 1.86242 43.9276 2.42027V10.2446C43.9276 16.2666 36.9043 18.3263 36.6183 18.4122C36.5896 18.4265 36.561 18.4408 36.5324 18.4408C36.1033 17.7828 35.3595 17.3394 34.5013 17.3394H27.2348C25.9045 17.3394 24.8174 18.4265 24.8174 19.7567V40.8838C24.8174 42.2141 25.9045 43.3012 27.2348 43.3012H34.5013C35.1736 43.3012 35.7743 43.0294 36.2177 42.586C37.3764 43.7446 38.9784 44.4598 40.7521 44.4598H59.8909C64.225 44.4598 66.9857 42.1854 67.4863 38.2232L69.918 22.7177ZM34.3296 40.7121H27.4208V19.9427H34.3296V40.7121ZM67.3576 22.3172L64.9116 37.8513C64.9116 37.8656 64.9116 37.8799 64.9116 37.8942C64.5826 40.5405 62.8947 41.8851 59.8909 41.8851H40.7521C38.6351 41.8851 36.9186 40.1686 36.9186 38.0516V20.9583C37.0474 20.9583 37.1761 20.9583 37.3048 20.9154C37.6768 20.8152 46.5166 18.2548 46.5166 10.2446V3.47877C47.4607 3.35003 48.9197 3.32143 50.0068 4.10815C51.051 4.88056 51.566 6.33957 51.566 8.47087V16.5526C51.566 17.2678 52.1524 17.8543 52.8676 17.8543H63.6528C64.4539 17.8543 65.2263 18.0975 65.87 18.5695C67 19.3848 67.5864 20.8582 67.3576 22.3172Z" fill="black"/>
</svg>
