<svg width="70" height="70" viewBox="0 0 70 70" fill="none" xmlns="http://www.w3.org/2000/svg">
<path d="M35.0002 54.1234C45.5775 54.1234 54.1522 45.5487 54.1522 34.9714C54.1522 24.394 45.5775 15.8193 35.0002 15.8193C24.4228 15.8193 15.8481 24.394 15.8481 34.9714C15.8481 45.5487 24.4228 54.1234 35.0002 54.1234Z" fill="#D3E1E6"/>
<path d="M68.0692 26.8472C68.4983 26.0176 68.5699 25.0736 68.2838 24.1868C67.9977 23.3 67.3827 22.5848 66.5531 22.1557L58.8008 18.2223C58.5433 18.0936 58.3717 17.8504 58.3287 17.5644L56.9556 8.96812C56.6839 7.26604 55.2393 6.02166 53.5229 6.02166C53.3369 6.02166 53.151 6.03596 52.965 6.06457L44.3831 7.43768C44.097 7.48059 43.811 7.38047 43.6107 7.18022L37.4603 1.02983C36.8024 0.371884 35.9299 0 35.0002 0C34.0705 0 33.198 0.357581 32.54 1.02983L26.3896 7.18022C26.1894 7.38047 25.9033 7.48059 25.6173 7.43768L17.0353 6.06457C16.8494 6.03596 16.6634 6.02166 16.4775 6.02166C14.7468 6.02166 13.3022 7.26604 13.0447 8.96812L11.6859 17.5644C11.643 17.8504 11.4571 18.0936 11.2139 18.2223L3.46155 22.1557C2.63197 22.5848 2.01693 23.3 1.73086 24.1868C1.4448 25.0736 1.51632 26.0176 1.94541 26.8472L5.90741 34.5852C6.03614 34.8427 6.03614 35.143 5.90741 35.4005L1.93111 43.1528C1.50201 43.9824 1.4305 44.9264 1.71656 45.8132C2.00263 46.7 2.61766 47.4152 3.44725 47.8443L11.1996 51.7777C11.4571 51.9064 11.6287 52.1496 11.6716 52.4356L13.0161 61.0319C13.2879 62.734 14.7325 63.9783 16.4489 63.9783C16.6348 63.9783 16.8208 63.964 17.0067 63.9354L25.5886 62.5623C25.8747 62.5194 26.1608 62.6195 26.361 62.8198L32.5114 68.9702C33.1694 69.6281 34.0419 70 34.9716 70C35.9013 70 36.7738 69.6424 37.4317 68.9702L43.5821 62.8198C43.7824 62.6195 44.0684 62.5194 44.3545 62.5623L52.9364 63.9354C53.1224 63.964 53.3083 63.9783 53.4943 63.9783C55.2249 63.9783 56.6696 62.734 56.927 61.0319L58.2858 52.4356C58.3287 52.1496 58.5147 51.9064 58.7578 51.7777L66.5102 47.8443C67.3398 47.4152 67.9548 46.7 68.2409 45.8132C68.5269 44.9264 68.4554 43.9824 68.0263 43.1528L64.0643 35.4148C63.9356 35.1573 63.9356 34.857 64.0643 34.5995L68.0692 26.8472ZM61.8044 36.5877L65.7664 44.3257C65.8809 44.5403 65.8952 44.7834 65.8236 45.0123C65.7521 45.2411 65.5948 45.4271 65.3802 45.5272L57.6279 49.4749C56.641 49.9755 55.9401 50.9338 55.7685 52.0351L54.4097 60.6314C54.3381 61.1034 53.8804 61.461 53.3941 61.3752L44.8122 60.002C44.6263 59.9734 44.4403 59.9591 44.2687 59.9591C43.339 59.9591 42.4665 60.3167 41.8085 60.989L35.6581 67.1394C35.3148 67.4826 34.7284 67.4826 34.3994 67.1394L28.2491 60.989C27.6054 60.3453 26.7043 59.9591 25.7889 59.9591C25.603 59.9591 25.417 59.9734 25.2454 60.002L16.6634 61.3752C16.1771 61.4467 15.7194 61.1034 15.6479 60.6314L14.3034 52.0351C14.1318 50.9338 13.4309 49.9755 12.444 49.4749L4.69163 45.5415C4.47708 45.4271 4.31975 45.2554 4.24823 45.0266C4.17672 44.7977 4.19102 44.5546 4.30545 44.34L8.26744 36.602C8.76805 35.615 8.76805 34.4279 8.26744 33.4266L4.24823 25.6743C4.13381 25.4597 4.1195 25.2166 4.19102 24.9877C4.26254 24.7589 4.41987 24.5729 4.63442 24.4728L12.3868 20.5394C13.3737 20.0388 14.0746 19.0805 14.2462 17.9792L15.5907 9.38292C15.6622 8.91091 16.1342 8.56763 16.6062 8.63915L25.1882 10.0123C25.3741 10.0409 25.56 10.0552 25.7317 10.0552C26.6614 10.0552 27.5339 9.69759 28.1918 9.02534L34.3422 2.87495C34.6855 2.53167 35.2719 2.53167 35.6009 2.87495L41.7513 9.02534C42.5237 9.81201 43.6822 10.1839 44.7693 9.99796L53.3512 8.62485C53.8375 8.55333 54.2952 8.89661 54.3668 9.36861L55.7256 17.9649C55.8972 19.0662 56.5981 20.0245 57.585 20.5251L65.3373 24.4585C65.5519 24.5729 65.7092 24.7446 65.7807 24.9734C65.8522 25.2023 65.8379 25.4454 65.7235 25.66L61.7615 33.398C61.2895 34.4136 61.2895 35.5864 61.8044 36.5877Z" fill="black"/>
<path d="M36.7739 33.6842H33.2124C31.782 33.6842 30.6092 32.5113 30.6092 31.081C30.6092 29.6507 31.782 28.4778 33.2124 28.4778H39.4772C40.1923 28.4778 40.7788 27.8914 40.7788 27.1762C40.7788 26.461 40.1923 25.8746 39.4772 25.8746H36.2732V23.4574C36.2732 22.7422 35.6868 22.1558 34.9716 22.1558C34.2565 22.1558 33.6701 22.7422 33.6701 23.4574V25.8746H33.1837C30.3231 25.8746 27.9917 28.206 27.9917 31.0667C27.9917 33.9273 30.3231 36.2587 33.1837 36.2587H36.7453C38.1756 36.2587 39.3484 37.4316 39.3484 38.8619C39.3484 40.2923 38.1756 41.4651 36.7453 41.4651H30.3517C29.6365 41.4651 29.0501 42.0516 29.0501 42.7667C29.0501 43.4819 29.6365 44.0683 30.3517 44.0683H33.6701V46.5285C33.6701 47.2436 34.2565 47.8301 34.9716 47.8301C35.6868 47.8301 36.2732 47.2436 36.2732 46.5285V44.0683H36.7596C39.6202 44.0683 41.9516 41.7369 41.9516 38.8762C41.9659 36.0156 39.6345 33.6842 36.7739 33.6842Z" fill="black"/>
<path d="M45.1267 20.2677C45.3556 20.425 45.613 20.4965 45.8562 20.4965C46.271 20.4965 46.6715 20.2963 46.9289 19.9387C47.3437 19.3523 47.1864 18.537 46.5999 18.1365C46.0135 17.736 45.1982 17.8791 44.7977 18.4655C44.3973 19.0519 44.5403 19.8672 45.1267 20.2677Z" fill="black"/>
<path d="M49.3176 23.5573C49.618 23.5573 49.9327 23.4572 50.1758 23.2283C50.705 22.7563 50.7622 21.941 50.2902 21.3975C49.8182 20.8683 48.9886 20.8111 48.4594 21.2974C47.9302 21.7694 47.873 22.5847 48.3593 23.1282C48.6024 23.4143 48.96 23.5573 49.3176 23.5573Z" fill="black"/>
<path d="M41.3652 51.6632C40.6929 51.9207 40.364 52.6644 40.6214 53.3367C40.8217 53.8516 41.308 54.1663 41.8372 54.1663C41.9945 54.1663 42.1519 54.1377 42.2949 54.0805C42.9672 53.823 43.2961 53.0792 43.0387 52.407C42.7812 51.749 42.0374 51.4057 41.3652 51.6632Z" fill="black"/>
<path d="M45.1698 49.6465C44.5833 50.0613 44.4403 50.8623 44.8408 51.4487C45.0983 51.8063 45.4988 52.0066 45.9135 52.0066C46.171 52.0066 46.4285 51.935 46.6573 51.7777C47.2437 51.3629 47.3868 50.5619 46.9863 49.9755C46.5715 49.3891 45.7562 49.246 45.1698 49.6465Z" fill="black"/>
<path d="M28.7069 51.6918C28.0346 51.4344 27.2909 51.7777 27.0334 52.4499C26.7759 53.1222 27.1192 53.8659 27.7915 54.1234C27.9345 54.1806 28.0918 54.2092 28.2492 54.2092C28.7784 54.2092 29.2647 53.8945 29.4649 53.3653C29.7081 52.6931 29.3791 51.935 28.7069 51.6918Z" fill="black"/>
<path d="M37.1887 52.6932C36.4736 52.779 35.9729 53.4227 36.0588 54.1378C36.1446 54.7958 36.7024 55.2821 37.346 55.2821C37.4033 55.2821 37.4462 55.2821 37.5034 55.2678C38.2185 55.1819 38.7192 54.5383 38.6333 53.8231C38.5475 53.1223 37.9039 52.6074 37.1887 52.6932Z" fill="black"/>
<path d="M32.8833 52.7073C32.1682 52.6215 31.5245 53.1364 31.4387 53.8516C31.3529 54.5668 31.8678 55.2104 32.5687 55.2819C32.6259 55.2819 32.6688 55.2962 32.726 55.2962C33.3696 55.2962 33.9275 54.8099 34.0133 54.152C34.1134 53.4368 33.5985 52.7932 32.8833 52.7073Z" fill="black"/>
<path d="M52.3356 30.6804C52.4787 31.2668 53.0079 31.6673 53.5943 31.6673C53.6944 31.6673 53.8089 31.653 53.909 31.6244C54.6099 31.4528 55.0246 30.7519 54.853 30.051C54.6814 29.3502 53.9805 28.9354 53.2797 29.107C52.5931 29.2787 52.164 29.9795 52.3356 30.6804Z" fill="black"/>
<path d="M54.152 33.6555C53.4369 33.6555 52.8504 34.2419 52.8504 34.9571C52.8504 35.6723 53.4369 36.2587 54.152 36.2444C54.8672 36.2444 55.4536 35.658 55.4393 34.9428C55.4536 34.2276 54.8672 33.6555 54.152 33.6555Z" fill="black"/>
<path d="M53.909 38.2754C53.2081 38.1038 52.5073 38.5329 52.3356 39.2194C52.164 39.9203 52.5931 40.6211 53.2797 40.7928C53.3798 40.8214 53.4799 40.8357 53.5943 40.8357C54.1808 40.8357 54.71 40.4352 54.853 39.8487C55.0389 39.1336 54.6099 38.447 53.909 38.2754Z" fill="black"/>
<path d="M51.9494 27.3477C52.1496 27.3477 52.3642 27.3048 52.5501 27.2047C53.1794 26.8757 53.4226 26.089 53.0936 25.4597C52.7503 24.8303 51.978 24.5872 51.3486 24.9162C50.7193 25.2451 50.4761 26.0318 50.8051 26.6612C51.034 27.1046 51.4917 27.3477 51.9494 27.3477Z" fill="black"/>
<path d="M48.3879 46.7858C47.9159 47.315 47.9588 48.1446 48.5023 48.6166C48.7455 48.8311 49.0601 48.9456 49.3605 48.9456C49.7181 48.9456 50.0757 48.8025 50.3331 48.5022C50.8051 47.9586 50.7622 47.1434 50.2187 46.6713C49.6752 46.1993 48.8599 46.2565 48.3879 46.7858Z" fill="black"/>
<path d="M52.579 42.6952C51.9496 42.3662 51.163 42.6094 50.834 43.2387C50.505 43.8681 50.7482 44.6548 51.3775 44.9837C51.5634 45.0839 51.778 45.1268 51.9782 45.1268C52.4502 45.1268 52.8936 44.8693 53.1225 44.4259C53.4515 43.8109 53.2083 43.0385 52.579 42.6952Z" fill="black"/>
<path d="M20.6683 23.5717C21.0259 23.5717 21.3835 23.4286 21.6409 23.1426C22.1129 22.6133 22.07 21.7837 21.5265 21.3117C20.983 20.8397 20.1677 20.8826 19.6957 21.4262C19.2237 21.9554 19.2666 22.785 19.8101 23.257C20.0533 23.4715 20.3536 23.5717 20.6683 23.5717Z" fill="black"/>
<path d="M17.45 42.7666C16.8206 43.1099 16.5775 43.8822 16.9065 44.5259C17.1353 44.9693 17.593 45.2124 18.0507 45.2124C18.251 45.2124 18.4655 45.1695 18.6515 45.0694C19.2808 44.7404 19.524 43.9538 19.195 43.3244C18.866 42.6808 18.0936 42.4376 17.45 42.7666Z" fill="black"/>
<path d="M17.6647 39.291C17.493 38.5902 16.7922 38.1754 16.0913 38.347C15.3905 38.5187 14.9757 39.2195 15.1473 39.9204C15.2904 40.5068 15.8196 40.9073 16.406 40.9073C16.5061 40.9073 16.6205 40.893 16.7207 40.8644C17.4215 40.6927 17.8506 39.9919 17.6647 39.291Z" fill="black"/>
<path d="M16.0913 31.6531C16.1915 31.6817 16.3059 31.696 16.406 31.696C16.9924 31.696 17.5216 31.2955 17.6647 30.7091C17.8363 30.0082 17.4072 29.3074 16.7207 29.1357C16.0198 28.9641 15.319 29.3932 15.1473 30.0798C14.9757 30.7806 15.3905 31.4815 16.0913 31.6531Z" fill="black"/>
<path d="M15.8482 36.3301C16.5634 36.3301 17.1355 35.7436 17.1355 35.0285C17.1355 35.0142 17.1355 35.0142 17.1355 34.9999C17.1355 34.9856 17.1355 34.9856 17.1355 34.9713C17.1355 34.2561 16.5491 33.6697 15.8339 33.6697C15.1188 33.6697 14.5466 34.2561 14.5466 34.9713C14.5466 34.9856 14.5466 34.9856 14.5466 34.9999C14.5466 35.0142 14.5466 35.0142 14.5466 35.0285C14.5609 35.7436 15.1331 36.3301 15.8482 36.3301Z" fill="black"/>
<path d="M17.4358 27.2191C17.636 27.3192 17.8363 27.3621 18.0365 27.3621C18.5085 27.3621 18.9519 27.1047 19.1808 26.6756C19.5097 26.0462 19.2666 25.2595 18.6372 24.9306C18.0079 24.6016 17.2212 24.8447 16.8922 25.4741C16.5633 26.1034 16.8064 26.8901 17.4358 27.2191Z" fill="black"/>
<path d="M19.8387 46.7428C19.3095 47.2148 19.2523 48.0444 19.7386 48.5736C19.9961 48.8597 20.3536 49.0027 20.7112 49.0027C21.0259 49.0027 21.3263 48.9026 21.5694 48.6738C22.0986 48.2018 22.1558 47.3722 21.6695 46.843C21.1832 46.3137 20.3679 46.2708 19.8387 46.7428Z" fill="black"/>
<path d="M32.6687 17.264C32.7259 17.264 32.7688 17.264 32.826 17.2497C33.5412 17.1639 34.0418 16.5202 33.9559 15.8051C33.8701 15.0899 33.2265 14.5893 32.5113 14.6751C31.7962 14.7609 31.2955 15.4046 31.3814 16.1197C31.4672 16.7777 32.025 17.264 32.6687 17.264Z" fill="black"/>
<path d="M37.1315 17.2497C37.1887 17.2497 37.2316 17.264 37.2888 17.264C37.9325 17.264 38.4903 16.7777 38.5761 16.1197C38.6619 15.4046 38.147 14.7609 37.4462 14.6751C36.731 14.5893 36.0874 15.1042 36.0015 15.8051C35.9157 16.5202 36.4306 17.1639 37.1315 17.2497Z" fill="black"/>
<path d="M41.3223 18.2652C41.4653 18.3224 41.6226 18.351 41.78 18.351C42.3092 18.351 42.7955 18.0364 42.9957 17.5072C43.2532 16.8349 42.9099 16.0911 42.2377 15.8337C41.5654 15.5762 40.8216 15.9195 40.5642 16.5918C40.3067 17.264 40.65 18.0221 41.3223 18.2652Z" fill="black"/>
<path d="M28.1918 18.3653C28.3491 18.3653 28.5064 18.3367 28.6495 18.2795C29.3217 18.022 29.6507 17.2782 29.4075 16.606C29.1501 15.9337 28.4063 15.6048 27.734 15.8479C27.0618 16.1054 26.7328 16.8491 26.9903 17.5214C27.1762 18.0506 27.6768 18.3653 28.1918 18.3653Z" fill="black"/>
<path d="M24.8879 49.6895C24.3014 49.289 23.4861 49.432 23.0856 50.0185C22.6852 50.6049 22.8282 51.4202 23.4146 51.8207C23.6435 51.978 23.9009 52.0495 24.1441 52.0495C24.5589 52.0495 24.9594 51.8493 25.2168 51.4917C25.6316 50.9053 25.4886 50.1043 24.8879 49.6895Z" fill="black"/>
<path d="M24.1152 20.511C24.3727 20.511 24.6302 20.4394 24.859 20.2821C25.4455 19.8816 25.5885 19.0663 25.188 18.4799C24.7732 17.8935 23.9722 17.7504 23.3858 18.1509C22.7993 18.5657 22.6563 19.3667 23.0568 19.9531C23.3 20.325 23.7005 20.511 24.1152 20.511Z" fill="black"/>
</svg>
