<svg width="29" height="49" viewBox="0 0 29 49" fill="#DA251D" xmlns="http://www.w3.org/2000/svg">
<path d="M29 47.5373L29 1C29 0.447715 28.5523 -1.95703e-08 28 -4.37114e-08L1 -1.22392e-06C0.447716 -1.24806e-06 -1.95702e-08 0.447713 -4.37113e-08 0.999998L-2.07076e-06 47.3735C-2.11094e-06 48.2926 1.13555 48.7249 1.74678 48.0386L13.148 35.2364C13.5341 34.8028 14.207 34.7881 14.6117 35.2043L27.2831 48.2345C27.9089 48.878 29 48.435 29 47.5373Z" fill=""/>
<path d="M29 47.5373L29 1C29 0.447715 28.5523 -1.95703e-08 28 -4.37114e-08L1 -1.22392e-06C0.447716 -1.24806e-06 -1.95702e-08 0.447713 -4.37113e-08 0.999998L-2.07076e-06 47.3735C-2.11094e-06 48.2926 1.13555 48.7249 1.74678 48.0386L13.148 35.2364C13.5341 34.8028 14.207 34.7881 14.6117 35.2043L27.2831 48.2345C27.9089 48.878 29 48.435 29 47.5373Z" fill=""/>
</svg>
