<svg width="70" height="70" viewBox="0 0 70 70" fill="none" xmlns="http://www.w3.org/2000/svg">
<g clip-path="url(#clip0)">
<path d="M68.6837 64.6209V61.1159C68.6837 60.372 68.3546 59.671 67.7824 59.1989C64.6064 56.5952 61.1873 54.8641 60.4863 54.5208C60.4147 54.4778 60.3575 54.4063 60.3575 54.3205V49.3849C60.9727 48.97 61.3876 48.269 61.3876 47.4678V42.3462C61.3876 39.7997 59.3275 37.7253 56.7667 37.7253H56.2087H55.6508C53.1043 37.7253 51.0299 39.7854 51.0299 42.3462V47.4392C51.0299 48.2404 51.4448 48.9414 52.0599 49.3562V54.3062C52.0599 54.392 52.017 54.4778 51.9312 54.5065C51.2302 54.8498 47.811 56.5809 44.6351 59.1846C44.0628 59.6567 43.7338 60.3577 43.7338 61.1016V64.6066" fill="#A7A9AC"/>
<path d="M26.1944 64.6209V61.1159C26.1944 60.372 25.8653 59.671 25.2931 59.1989C22.1171 56.5952 18.698 54.8641 17.997 54.5208C17.9254 54.4778 17.8682 54.4063 17.8682 54.3205V49.3849C18.4834 48.97 18.8982 48.269 18.8982 47.4678V42.3462C18.8982 39.7997 16.8382 37.7253 14.2774 37.7253H13.7194H13.1615C10.615 37.7253 8.54058 39.7854 8.54058 42.3462V47.4392C8.54058 48.2404 8.95546 48.9414 9.57063 49.3562V54.3062C9.57063 54.392 9.52771 54.4778 9.44187 54.5065C8.74087 54.8498 5.3217 56.5809 2.14573 59.1846C1.57349 59.6567 1.24445 60.3577 1.24445 61.1016V64.6066" fill="#D3E1E5"/>
<path d="M35.0929 33.6621C34.3776 33.6621 33.791 34.2487 33.791 34.964V43.1757L26.6809 47.2816C26.0657 47.6392 25.8511 48.4261 26.2088 49.0555C26.452 49.4704 26.8811 49.6993 27.3389 49.6993C27.5535 49.6993 27.7824 49.6421 27.9827 49.5276L35.0929 45.4218L42.203 49.5276C42.4033 49.6421 42.6322 49.6993 42.8468 49.6993C43.2903 49.6993 43.7338 49.4704 43.977 49.0555C44.3346 48.4404 44.1201 47.6392 43.5049 47.2816L36.3947 43.1757V34.964C36.3804 34.2487 35.8082 33.6621 35.0929 33.6621Z" fill="black"/>
<path d="M29.5424 21.3161C28.2262 22.0028 25.3221 23.6194 22.5896 25.8511C21.7169 26.5664 21.2162 27.6394 21.2162 28.7696V32.2746C21.2162 32.9899 21.8027 33.5764 22.518 33.5764C23.2334 33.5764 23.8199 32.9899 23.8199 32.2746V28.7696C23.8199 28.4119 23.9773 28.0829 24.2491 27.854C27.3249 25.3361 30.6582 23.648 31.2877 23.3332C31.817 23.0757 32.1461 22.5464 32.1461 21.9598V17.0242C32.1461 16.595 31.9315 16.1802 31.5738 15.9513C31.2877 15.7653 31.116 15.4505 31.116 15.1072V9.98559C31.116 8.1544 32.6039 6.66656 34.4351 6.66656H35.5366C37.3678 6.66656 38.8557 8.1544 38.8557 9.98559V15.1072C38.8557 15.4505 38.684 15.7653 38.3979 15.9513C38.0402 16.1945 37.8256 16.595 37.8256 17.0242V21.9741C37.8256 22.5607 38.1547 23.09 38.684 23.3475C39.3278 23.6623 42.6468 25.3361 45.7226 27.8683C45.9945 28.0972 46.1518 28.4262 46.1518 28.7839V32.2889C46.1518 33.0042 46.7384 33.5907 47.4537 33.5907C48.169 33.5907 48.7555 33.0042 48.7555 32.2889V28.7839C48.7555 27.6537 48.2548 26.5807 47.3822 25.8654C44.664 23.6337 41.7455 22.0028 40.4294 21.3304V17.6394C41.0874 16.967 41.4594 16.0657 41.4594 15.1215V9.98559C41.4594 6.72379 38.8128 4.07715 35.551 4.07715H34.4494C31.1876 4.07715 28.5409 6.72379 28.5409 9.98559V15.1072C28.5409 16.0657 28.9129 16.967 29.571 17.6251V21.3161H29.5424Z" fill="black"/>
<path d="M13.1903 38.9984H14.2918C16.123 38.9984 17.6109 40.4863 17.6109 42.3175V47.4391C17.6109 47.7824 17.4392 48.0972 17.1531 48.2831C16.7954 48.5263 16.5808 48.9269 16.5808 49.3561V54.306C16.5808 54.8926 16.9099 55.4219 17.4392 55.6794C18.083 55.9942 21.402 57.668 24.4778 60.2002C24.7496 60.4291 24.907 60.7581 24.907 61.1158V64.6208C24.907 65.3361 25.4936 65.9226 26.2089 65.9226C26.9242 65.9226 27.5107 65.3361 27.5107 64.6208V61.1158C27.5107 59.9856 27.01 58.9126 26.1373 58.1973C23.4192 55.9655 20.5007 54.3346 19.1846 53.6623V49.9713C19.8426 49.2989 20.2146 48.3976 20.2146 47.4534V42.3318C20.2146 39.07 17.568 36.4233 14.3062 36.4233H13.2046C9.94278 36.4233 7.29614 39.07 7.29614 42.3318V47.4391C7.29614 48.3976 7.6681 49.2989 8.32618 49.957V53.6479C7.01001 54.3346 4.10587 55.9512 1.37339 58.183C0.500715 58.8983 0 59.9713 0 61.1015V64.6065C0 65.3218 0.586552 65.9083 1.30186 65.9083C2.01717 65.9083 2.60372 65.3218 2.60372 64.6065V61.1015C2.60372 60.7438 2.76109 60.4148 3.0329 60.1859C6.10873 57.668 9.44206 55.9798 10.0715 55.6651C10.6009 55.4076 10.9299 54.8783 10.9299 54.2917V49.3561C10.9299 48.9269 10.7153 48.512 10.3577 48.2831C10.0715 48.0972 9.89986 47.7824 9.89986 47.4391V42.3175C9.87124 40.4863 11.3591 38.9984 13.1903 38.9984Z" fill="black"/>
<path d="M43.8342 58.183C42.9615 58.8983 42.4608 59.9713 42.4608 61.1015V64.6065C42.4608 65.3218 43.0474 65.9083 43.7627 65.9083C44.478 65.9083 45.0645 65.3218 45.0645 64.6065V61.1015C45.0645 60.7438 45.2219 60.4148 45.4937 60.1859C48.5695 57.668 51.9029 55.9798 52.5324 55.6651C53.0617 55.4076 53.3907 54.8783 53.3907 54.2917V49.3561C53.3907 48.9269 53.1761 48.512 52.8185 48.2831C52.5324 48.0972 52.3607 47.7824 52.3607 47.4391V42.3175C52.3607 40.4863 53.8485 38.9984 55.6797 38.9984H56.7813C58.6125 38.9984 60.1003 40.4863 60.1003 42.3175V47.4391C60.1003 47.7824 59.9286 48.0972 59.6425 48.2831C59.2849 48.5263 59.0703 48.9269 59.0703 49.3561V54.306C59.0703 54.8926 59.3993 55.4219 59.9286 55.6794C60.5724 55.9942 63.8914 57.668 66.9673 60.2002C67.2391 60.4291 67.3964 60.7581 67.3964 61.1158V64.6208C67.3964 65.3361 67.983 65.9226 68.6983 65.9226C69.4136 65.9226 70.0002 65.3361 70.0002 64.6208V61.1158C70.0002 59.9856 69.4994 58.9126 68.6268 58.1973C65.9086 55.9655 62.9901 54.3346 61.674 53.6623V49.9713C62.3321 49.2989 62.704 48.3976 62.704 47.4534V42.3318C62.704 39.07 60.0574 36.4233 56.7956 36.4233H55.694C52.4322 36.4233 49.7856 39.07 49.7856 42.3318V47.4391C49.7856 48.3976 50.1575 49.2989 50.8156 49.957V53.6479C49.4708 54.3346 46.5667 55.9512 43.8342 58.183Z" fill="black"/>
</g>
<defs>
<clipPath id="clip0">
<rect width="70" height="70" fill="white"/>
</clipPath>
</defs>
</svg>
