<svg width="71" height="71" viewBox="0 0 71 71" fill="none" xmlns="http://www.w3.org/2000/svg">
<g clip-path="url(#clip0)">
<path d="M41.5977 12.0422H29.305V37.8858H41.5977V12.0422Z" fill="#D3E1E5"/>
<path d="M1.32103 67.5762H69.5237C70.2468 67.5762 70.8398 66.9833 70.8398 66.2602C70.8398 66.0143 70.7674 65.7685 70.6517 65.5804L64.0426 52.1742V16.0626C64.0426 15.3395 63.4497 14.7466 62.7266 14.7466H48.1923C47.4692 14.7466 46.8763 15.3395 46.8763 16.0626C46.8763 16.7857 47.4692 17.3787 48.1923 17.3787H61.425V51.1763H9.50651V17.3787H22.4066C23.1297 17.3787 23.7226 16.7857 23.7226 16.0626C23.7226 15.3395 23.1297 14.7466 22.4066 14.7466H8.17601C7.45291 14.7466 6.85997 15.3395 6.85997 16.0626V52.1742L0.135153 65.6817C-0.0673152 66.0866 -0.0383912 66.5639 0.193 66.9543C0.438854 67.3448 0.872713 67.5762 1.32103 67.5762ZM26.3836 64.9586L27.5406 62.6447H43.3331L44.4756 64.9586H26.3836ZM8.98588 53.7939H61.9023L67.3978 64.9441H47.3824L45.3144 60.7357C45.0974 60.2874 44.6347 59.9981 44.1429 59.9981H26.7163C26.2246 59.9981 25.7618 60.2729 25.5448 60.7212L23.4479 64.9297H3.43248L8.98588 53.7939Z" fill="black"/>
<path d="M42.8994 7.99274C42.8994 5.38958 40.7879 3.26367 38.1703 3.26367H32.7037C30.1005 3.26367 27.9746 5.37512 27.9746 7.99274V11.5793C27.9746 11.6661 27.9891 11.7384 28.0035 11.8107C27.9891 11.883 27.9746 11.9698 27.9746 12.0421V37.8857C27.9746 37.9001 27.9746 37.9146 27.9746 37.9146C27.9746 37.9724 27.9891 38.0447 27.9891 38.1026C27.9891 38.117 27.9891 38.1315 28.0035 38.1604C28.018 38.2327 28.0469 38.3051 28.0758 38.3774C28.0903 38.3918 28.0903 38.4063 28.1048 38.4352C28.1337 38.4931 28.1626 38.5364 28.1915 38.5798C28.206 38.5943 28.2205 38.6232 28.2349 38.6377C28.2494 38.6521 28.2494 38.6666 28.2638 38.6811L34.4102 46.7364C34.656 47.0546 35.0465 47.257 35.4515 47.257C35.8564 47.257 36.2469 47.069 36.4927 46.7364L42.6391 38.6811C42.6535 38.6666 42.6535 38.6521 42.668 38.6377C42.6824 38.6232 42.6969 38.5943 42.7114 38.5798C42.7403 38.5364 42.7692 38.4786 42.7981 38.4352C42.8126 38.4208 42.8126 38.4063 42.8271 38.3774C42.856 38.3051 42.8705 38.2327 42.8994 38.1604C42.8994 38.146 42.8994 38.1315 42.9138 38.1026C42.9283 38.0447 42.9283 37.9724 42.9283 37.9146C42.9283 37.9001 42.9283 37.8857 42.9283 37.8857V11.9987C42.9283 11.9264 42.9138 11.8541 42.9138 11.7818C42.9283 11.7095 42.9283 11.6372 42.9283 11.5648V7.99274H42.8994ZM30.6212 12.8954H34.1499V36.5696H30.6212V12.8954ZM36.7675 12.8954H40.2962V36.5696H36.7675V12.8954ZM30.6212 7.99274C30.6212 6.83578 31.5612 5.89575 32.7181 5.89575H38.1848C39.3417 5.89575 40.2818 6.83578 40.2818 7.99274V10.2633H30.6212V7.99274ZM35.4515 43.7861L31.9517 39.2017H38.9368L35.4515 43.7861Z" fill="black"/>
</g>
<defs>
<clipPath id="clip0">
<rect width="70.84" height="70.84" fill="white"/>
</clipPath>
</defs>
</svg>
