<svg width="70" height="70" viewBox="0 0 70 70" fill="none" xmlns="http://www.w3.org/2000/svg">
<path d="M20.4692 67.8823H10.4242C10.1237 67.8823 9.86615 67.6248 9.86615 67.3243V41.0385C9.86615 40.738 10.1237 40.4805 10.4242 40.4805H20.4549C20.7554 40.4805 21.0129 40.738 21.0129 41.0385V67.3243C21.0272 67.6248 20.7697 67.8823 20.4692 67.8823Z" fill="#D3E1E6"/>
<path d="M37.8977 12.6206V1.30213C37.8977 0.586672 37.311 0 36.5955 0C35.8801 0 35.2934 0.586672 35.2934 1.30213V12.6206C35.2934 13.3361 35.8801 13.9227 36.5955 13.9227C37.311 13.9084 37.8977 13.3361 37.8977 12.6206Z" fill="black"/>
<path d="M60.1196 25.4414H48.8011C48.0857 25.4414 47.499 26.0281 47.499 26.7435C47.499 27.459 48.0857 28.0457 48.8011 28.0457H60.1196C60.8351 28.0457 61.4218 27.459 61.4218 26.7435C61.4074 26.0138 60.8351 25.4414 60.1196 25.4414Z" fill="black"/>
<path d="M11.7836 26.7294C11.7836 27.4448 12.3702 28.0315 13.0857 28.0315H24.4042C25.1196 28.0315 25.7063 27.4448 25.7063 26.7294C25.7063 26.0139 25.1196 25.4272 24.4042 25.4272H13.0857C12.3702 25.4416 11.7836 26.0139 11.7836 26.7294Z" fill="black"/>
<path d="M18.8237 8.71434C19.0669 8.47108 19.21 8.14197 19.21 7.79856C19.21 7.45514 19.0669 7.12603 18.8237 6.88278C18.5804 6.63952 18.2513 6.51074 17.9079 6.51074C17.5645 6.51074 17.2354 6.63952 16.9921 6.88278C16.7488 7.12603 16.6058 7.45514 16.6058 7.79856C16.6058 8.14197 16.7488 8.47108 16.9921 8.71434C17.2354 8.95759 17.5645 9.10068 17.9079 9.10068C18.237 9.10068 18.5804 8.95759 18.8237 8.71434Z" fill="black"/>
<path d="M24.1466 14.0514C24.6474 13.5506 24.6474 12.7207 24.1466 12.2199C23.6458 11.719 22.8159 11.719 22.3151 12.2199C21.8142 12.7207 21.8142 13.5506 22.3151 14.0514C22.5726 14.309 22.9017 14.4378 23.2308 14.4378C23.5599 14.4234 23.9034 14.309 24.1466 14.0514Z" fill="black"/>
<path d="M21.4851 11.39C21.9859 10.8892 21.9859 10.0593 21.4851 9.55847C20.9843 9.05766 20.1544 9.05766 19.6536 9.55847C19.1527 10.0593 19.1527 10.8892 19.6536 11.39C19.9111 11.6476 20.2402 11.7764 20.5693 11.7764C20.8984 11.7621 21.2275 11.6333 21.4851 11.39Z" fill="black"/>
<path d="M26.8224 16.7129C27.0657 16.4696 27.2088 16.1405 27.2088 15.7971C27.2088 15.4537 27.0657 15.1246 26.8224 14.8813C26.5792 14.6381 26.2501 14.5093 25.9066 14.5093C25.5632 14.5093 25.2341 14.6524 24.9909 14.8813C24.7476 15.1246 24.6045 15.4537 24.6045 15.7971C24.6045 16.1405 24.7476 16.4696 24.9909 16.7129C25.2341 16.9561 25.5632 17.0992 25.9066 17.0992C26.2357 17.0992 26.5792 16.9561 26.8224 16.7129Z" fill="black"/>
<path d="M55.0113 9.52992C55.2545 9.28666 55.3976 8.95756 55.3976 8.61414C55.3976 8.27072 55.2545 7.94161 55.0113 7.69836C54.768 7.4551 54.4389 7.31201 54.0955 7.31201C53.7521 7.31201 53.423 7.4551 53.1797 7.69836C52.9365 7.94161 52.7934 8.27072 52.7934 8.61414C52.7934 8.95756 52.9365 9.28666 53.1797 9.52992C53.423 9.77317 53.7521 9.91626 54.0955 9.91626C54.4389 9.91626 54.768 9.77317 55.0113 9.52992Z" fill="black"/>
<path d="M48.7582 15.2534C49.0873 15.2534 49.4164 15.1247 49.674 14.8671C50.1748 14.3663 50.1748 13.5363 49.674 13.0355C49.1732 12.5347 48.3432 12.5347 47.8424 13.0355C47.3416 13.5363 47.3416 14.3663 47.8424 14.8671C48.1 15.1247 48.4291 15.2534 48.7582 15.2534Z" fill="black"/>
<path d="M52.3355 12.2057C52.8363 11.7049 52.8363 10.875 52.3355 10.3741C51.8347 9.87333 51.0047 9.87333 50.5039 10.3741C50.0031 10.875 50.0031 11.7049 50.5039 12.2057C50.7615 12.4633 51.0906 12.5921 51.4197 12.5921C51.7488 12.5921 52.0922 12.449 52.3355 12.2057Z" fill="black"/>
<path d="M47.0126 17.5287C47.2558 17.2854 47.3989 16.9563 47.3989 16.6129C47.3989 16.2695 47.2558 15.9404 47.0126 15.6971C46.7693 15.4539 46.4402 15.3108 46.0968 15.3108C45.7534 15.3108 45.4243 15.4539 45.181 15.6971C44.9377 15.9404 44.809 16.2695 44.809 16.6129C44.809 16.9563 44.9521 17.2854 45.1953 17.5287C45.4386 17.772 45.7677 17.915 46.1111 17.915C46.4402 17.915 46.7693 17.772 47.0126 17.5287Z" fill="black"/>
<path d="M58.145 62.8597L61.1642 43.6713C61.1785 43.5997 61.1785 43.5425 61.1785 43.471C61.1785 39.4358 57.9017 36.159 53.8666 36.159H42.5195V27.9886C42.5195 24.5401 41.5178 22.0646 39.5289 20.6051C36.3809 18.3013 32.0595 19.6177 31.8735 19.675C31.3298 19.8467 30.972 20.3475 30.972 20.9056V30.0777C30.972 37.3181 22.5869 39.7792 22.2292 39.8794C22.0575 39.9223 21.9144 40.0082 21.7856 40.1083C21.342 39.5503 20.6552 39.1925 19.8968 39.1925H10.9966C9.66583 39.1925 8.57834 40.28 8.57834 41.6108V66.7661C8.57834 68.0969 9.66583 69.1844 10.9966 69.1844H19.8968C20.784 69.1844 21.571 68.6978 21.9859 67.9824C23.3024 69.2416 25.0767 70 27.0227 70H49.4594C54.4246 69.9857 57.5869 67.3957 58.145 62.8597ZM19.7251 66.5801H11.1683V41.7682H19.7251V66.5801ZM22.3151 62.688V42.3835C22.5154 42.4264 22.7157 42.4264 22.9303 42.3692C23.3596 42.2547 33.562 39.2927 33.562 30.0777V21.9501C34.6781 21.7784 36.6098 21.6783 37.9978 22.6942C39.2856 23.6386 39.9295 25.4129 39.9295 27.9886V37.4755C39.9295 38.1909 40.5162 38.7776 41.2316 38.7776H53.8809C56.4422 38.7776 58.5456 40.8381 58.5886 43.3994L55.5837 62.502C55.5837 62.5163 55.5837 62.5306 55.5837 62.5449C55.183 65.7788 53.1368 67.41 49.4737 67.41H27.037C24.4328 67.3957 22.3151 65.278 22.3151 62.688Z" fill="black"/>
</svg>
