<svg width="22" height="19" viewBox="0 0 22 19" fill="none" xmlns="http://www.w3.org/2000/svg">
<path d="M10.9706 12.9688L10.7797 12.99L10.5817 13.0466L10.4191 13.1385C10.2827 13.2294 10.1708 13.3524 10.0931 13.4966C10.0154 13.6409 9.97439 13.802 9.97359 13.9659C9.96771 14.0999 9.9944 14.2333 10.0514 14.3548C10.0986 14.4768 10.1708 14.5877 10.2633 14.6802C10.3559 14.7727 10.4667 14.8449 10.5888 14.8922C10.8347 14.9861 11.1066 14.9861 11.3524 14.8922C11.4737 14.8434 11.5842 14.7713 11.6777 14.68C11.7706 14.5837 11.8449 14.471 11.8969 14.3477C11.949 14.2274 11.9731 14.0968 11.9676 13.9659C11.9692 13.8352 11.9452 13.7055 11.8969 13.584C11.8452 13.4647 11.7708 13.3566 11.6777 13.2658C11.5874 13.1707 11.476 13.098 11.3524 13.0537C11.2326 12.9987 11.1025 12.9697 10.9706 12.9688ZM2.67625 13.683C2.76941 13.5891 2.84301 13.4776 2.89278 13.355C2.94254 13.2324 2.96749 13.1011 2.96616 12.9688V6.97257C2.96538 6.70839 2.86008 6.45525 2.67327 6.26844C2.48646 6.08163 2.23333 5.97634 1.96914 5.97555C1.70496 5.97634 1.45182 6.08163 1.26501 6.26844C1.0782 6.45525 0.972906 6.70839 0.97212 6.97257V12.9688C0.972906 13.233 1.0782 13.4862 1.26501 13.673C1.45182 13.8598 1.70496 13.9651 1.96914 13.9659C2.23292 13.9685 2.48708 13.8669 2.67625 13.683ZM19.9721 5.97555C19.7079 5.97634 19.4548 6.08163 19.2679 6.26844C19.0811 6.45525 18.9758 6.70839 18.9751 6.97257V12.9688C18.9742 13.1666 19.0321 13.3602 19.1413 13.5251C19.2505 13.69 19.4061 13.8188 19.5885 13.8952C19.7709 13.9717 19.9719 13.9923 20.166 13.9545C20.3602 13.9168 20.5388 13.8223 20.6792 13.683C20.7724 13.5891 20.846 13.4776 20.8957 13.355C20.9455 13.2324 20.9704 13.1011 20.9691 12.9688L21.0045 7.00793C21.009 6.87113 20.9853 6.73488 20.935 6.60758C20.8848 6.48029 20.8089 6.36468 20.7121 6.2679C20.6153 6.17112 20.4997 6.09524 20.3724 6.04495C20.2451 5.99467 20.1089 5.97104 19.9721 5.97555ZM16.0901 1.85312C15.53 1.29033 14.7698 0.972486 13.9758 0.969234L7.96541 0.969234C7.17678 0.989932 6.42616 1.31245 5.86832 1.87028C5.31049 2.42812 4.98797 3.17874 4.96727 3.96737V15.974C4.96777 16.769 5.2838 17.5313 5.84595 18.0935C6.4081 18.6556 7.1704 18.9717 7.96541 18.9722L13.9758 18.9722C14.7708 18.9717 15.5331 18.6556 16.0953 18.0935C16.6574 17.5313 16.9735 16.769 16.9739 15.974V3.96737C16.9707 3.17342 16.6529 2.41314 16.0901 1.85312ZM14.9728 3.97444V15.967C14.9734 16.099 14.9478 16.2298 14.8975 16.3519C14.8472 16.4739 14.7733 16.5848 14.6799 16.6782C14.5866 16.7715 14.4757 16.8455 14.3536 16.8957C14.2316 16.946 14.1008 16.9716 13.9687 16.9711L7.97248 16.9711C7.84047 16.9716 7.70966 16.946 7.58759 16.8957C7.46552 16.8455 7.35462 16.7715 7.26127 16.6782C7.16792 16.5848 7.09398 16.4739 7.04371 16.3519C6.99345 16.2298 6.96784 16.099 6.96839 15.967V3.97444C6.96784 3.84243 6.99345 3.71162 7.04371 3.58955C7.09398 3.46748 7.16792 3.35658 7.26127 3.26323C7.35462 3.16988 7.46552 3.09594 7.58759 3.04568C7.70966 2.99541 7.84047 2.9698 7.97248 2.97035L13.9687 2.97035C14.1008 2.9698 14.2316 2.99541 14.3536 3.04568C14.4757 3.09594 14.5866 3.16988 14.6799 3.26323C14.7733 3.35658 14.8472 3.46748 14.8975 3.58955C14.9478 3.71162 14.9734 3.84243 14.9728 3.97444Z" fill="white"/>
</svg>
