<svg width="34" height="34" viewBox="0 0 34 34" fill="none" xmlns="http://www.w3.org/2000/svg">
<g clip-path="url(#clip0)">
<path d="M16.9705 19.9686L16.7796 19.9898L16.5816 20.0464L16.419 20.1383C16.2827 20.2292 16.1707 20.3521 16.093 20.4964C16.0154 20.6406 15.9743 20.8018 15.9735 20.9656C15.9676 21.0996 15.9943 21.2331 16.0513 21.3545C16.0985 21.4766 16.1707 21.5874 16.2633 21.68C16.3558 21.7725 16.4667 21.8447 16.5887 21.8919C16.8346 21.9859 17.1065 21.9859 17.3524 21.8919C17.4736 21.8431 17.5841 21.7711 17.6777 21.6798C17.7705 21.5834 17.8448 21.4707 17.8969 21.3474C17.9489 21.2271 17.9731 21.0966 17.9676 20.9656C17.9692 20.8349 17.9452 20.7052 17.8969 20.5838C17.8452 20.4645 17.7707 20.3564 17.6777 20.2656C17.5873 20.1704 17.4759 20.0978 17.3524 20.0534C17.2326 19.9984 17.1024 19.9695 16.9705 19.9686ZM8.67619 20.6828C8.76935 20.5888 8.84295 20.4773 8.89272 20.3547C8.94248 20.2321 8.96742 20.1009 8.9661 19.9686V13.9723C8.96531 13.7081 8.86002 13.455 8.67321 13.2682C8.4864 13.0814 8.23326 12.9761 7.96908 12.9753C7.70489 12.9761 7.45176 13.0814 7.26495 13.2682C7.07814 13.455 6.97285 13.7081 6.97206 13.9723V19.9686C6.97285 20.2328 7.07814 20.4859 7.26495 20.6727C7.45176 20.8595 7.70489 20.9648 7.96908 20.9656C8.23286 20.9683 8.48702 20.8666 8.67619 20.6828ZM25.972 12.9753C25.7078 12.9761 25.4547 13.0814 25.2679 13.2682C25.0811 13.455 24.9758 13.7081 24.975 13.9723V19.9686C24.9742 20.1664 25.032 20.3599 25.1412 20.5248C25.2504 20.6897 25.4061 20.8185 25.5885 20.895C25.7709 20.9714 25.9719 20.9921 26.166 20.9543C26.3601 20.9165 26.5387 20.822 26.6791 20.6828C26.7723 20.5888 26.8459 20.4773 26.8957 20.3547C26.9454 20.2321 26.9704 20.1009 26.969 19.9686L27.0044 14.0077C27.0089 13.8709 26.9853 13.7346 26.935 13.6073C26.8847 13.48 26.8088 13.3644 26.712 13.2677C26.6153 13.1709 26.4997 13.095 26.3724 13.0447C26.2451 12.9944 26.1088 12.9708 25.972 12.9753ZM22.09 8.85287C21.53 8.29008 20.7697 7.97224 19.9758 7.96899L13.9653 7.96899C13.1767 7.98969 12.4261 8.31221 11.8683 8.87004C11.3104 9.42788 10.9879 10.1785 10.9672 10.9671V22.9738C10.9677 23.7688 11.2837 24.5311 11.8459 25.0932C12.408 25.6554 13.1703 25.9714 13.9653 25.9719L19.9758 25.9719C20.7708 25.9714 21.5331 25.6554 22.0952 25.0932C22.6574 24.5311 22.9734 23.7688 22.9739 22.9738V10.9671C22.9706 10.1732 22.6528 9.4129 22.09 8.85287ZM20.9728 10.9742V22.9667C20.9733 23.0987 20.9477 23.2295 20.8974 23.3516C20.8472 23.4737 20.7732 23.5846 20.6799 23.6779C20.5865 23.7713 20.4756 23.8452 20.3536 23.8955C20.2315 23.9458 20.1007 23.9714 19.9687 23.9708L13.9724 23.9708C13.8404 23.9714 13.7096 23.9458 13.5875 23.8955C13.4655 23.8452 13.3546 23.7713 13.2612 23.6779C13.1679 23.5846 13.0939 23.4737 13.0437 23.3516C12.9934 23.2295 12.9678 23.0987 12.9683 22.9667V10.9742C12.9678 10.8422 12.9934 10.7114 13.0437 10.5893C13.0939 10.4672 13.1679 10.3563 13.2612 10.263C13.3546 10.1696 13.4655 10.0957 13.5875 10.0454C13.7096 9.99516 13.8404 9.96956 13.9724 9.9701L19.9687 9.9701C20.1007 9.96956 20.2315 9.99516 20.3536 10.0454C20.4756 10.0957 20.5865 10.1696 20.6799 10.263C20.7732 10.3563 20.8472 10.4672 20.8974 10.5893C20.9477 10.7114 20.9733 10.8422 20.9728 10.9742Z" fill="black"/>
</g>
<defs>
<clipPath id="clip0">
<rect width="24" height="24" fill="white" transform="translate(0 16.9705) rotate(-45)"/>
</clipPath>
</defs>
</svg>
