<svg width="70" height="70" viewBox="0 0 70 70" fill="none" xmlns="http://www.w3.org/2000/svg">
<g clip-path="url(#clip0)">
<path d="M23.7909 43.0015C34.5999 43.0015 43.3623 34.2391 43.3623 23.4301C43.3623 12.6211 34.5999 3.85864 23.7909 3.85864C12.9819 3.85864 4.2195 12.6211 4.2195 23.4301C4.2195 34.2391 12.9819 43.0015 23.7909 43.0015Z" fill="#D3E1E6"/>
<path d="M70 53.9078C70 53.865 70 53.8221 69.9858 53.7793C69.9858 53.7365 69.9715 53.6937 69.9572 53.6508C69.9429 53.608 69.9429 53.5652 69.9287 53.5366C69.9144 53.4938 69.9001 53.4653 69.8716 53.4224C69.8573 53.3796 69.843 53.3511 69.8145 53.3082C69.8002 53.2654 69.7716 53.2369 69.7431 53.2083C69.7145 53.1798 69.7003 53.1369 69.6717 53.1084C69.6432 53.0798 69.6146 53.0513 69.5718 53.0227C69.5432 52.9942 69.5147 52.9656 69.4861 52.9371C69.4576 52.9085 69.4147 52.8942 69.3719 52.8657C69.3434 52.8514 69.3148 52.8229 69.272 52.8086L53.5264 45.0428C53.4835 45.0143 53.4407 45 53.3836 44.9857C53.1124 44.8858 46.6171 42.616 41.3067 45L29.5867 49.2398C29.5582 49.254 29.5153 49.2683 29.4868 49.2826C27.8023 50.0535 26.9172 51.7808 27.2741 53.5937C27.631 55.3924 29.0871 56.6629 30.9143 56.7486C30.9286 56.7486 30.9286 56.7486 30.9429 56.7486C31.0571 56.7486 31.571 56.72 36.9099 56.3774C39.2368 56.2347 41.635 56.0776 41.8492 56.0634C42.5201 56.0348 43.0769 55.4923 43.0911 54.8071C43.1054 54.0934 42.5487 53.4938 41.8206 53.4795C41.7492 53.4795 41.7492 53.4795 36.7529 53.7936C34.2547 53.9506 31.4568 54.1362 30.9857 54.1647C30.0863 54.0934 29.8722 53.3368 29.8151 53.1084C29.7152 52.623 29.8579 51.9806 30.5289 51.6523L42.2346 47.4125C42.2632 47.3983 42.2917 47.384 42.3345 47.3697C46.4458 45.4996 51.8133 47.1841 52.4557 47.384L59.4649 50.8386L55.6105 59.932C53.7119 58.7614 51.3993 58.4473 49.258 59.0897L33.5267 63.8148C31.6566 64.3859 29.5867 64.1717 27.8594 63.2296L3.22026 49.8822C2.33519 49.3968 2.6207 48.5546 2.69207 48.3833C2.77772 48.1548 3.14888 47.4411 4.04822 47.6838L23.1914 54.0648C23.8623 54.2932 24.6046 53.9221 24.833 53.2511C25.0614 52.5659 24.6903 51.8379 24.0193 51.6095L4.83337 45.1999C4.80482 45.1856 4.79054 45.1856 4.76199 45.1856C2.86338 44.6717 1.02186 45.5853 0.293825 47.4125C-0.44849 49.254 0.250999 51.1955 1.99258 52.1519L26.646 65.5422C28.9729 66.8127 31.7566 67.0982 34.2833 66.3273L50.0146 61.6022C51.4564 61.1739 53.0124 61.3738 54.2829 62.1875L62.3057 67.2409C62.3485 67.2695 62.377 67.2837 62.4199 67.298C62.4341 67.298 62.4341 67.3123 62.4484 67.3123H62.4627C62.477 67.3266 62.4912 67.3266 62.5198 67.3266C62.5483 67.3408 62.5912 67.3551 62.6197 67.3694C62.634 67.3694 62.6625 67.3837 62.6768 67.3837C62.7054 67.3979 62.7482 67.3979 62.7767 67.4122C62.791 67.4122 62.8196 67.4122 62.8338 67.4265C62.8909 67.4265 62.9338 67.4408 62.9909 67.4408C63.048 67.4408 63.1051 67.4408 63.1622 67.4265C63.1765 67.4265 63.205 67.4265 63.2193 67.4122C63.2621 67.4122 63.2906 67.3979 63.3335 67.3837C63.3478 67.3837 63.3763 67.3694 63.3906 67.3694C63.4191 67.3551 63.462 67.3408 63.4905 67.3266C63.5048 67.3123 63.5333 67.3123 63.5476 67.298C63.5762 67.2837 63.6047 67.2695 63.6475 67.2409C63.6618 67.2266 63.6904 67.2124 63.7046 67.2124C63.7332 67.1981 63.7617 67.1695 63.7903 67.1553C63.8046 67.141 63.8331 67.1267 63.8474 67.1124C63.8759 67.0839 63.8902 67.0696 63.9188 67.0411C63.933 67.0268 63.9473 67.0125 63.9759 66.984C64.0044 66.9554 64.0187 66.9269 64.033 66.8983C64.0472 66.884 64.0615 66.8555 64.0758 66.8412C64.0758 66.8412 64.0758 66.8269 64.0901 66.8269C64.0901 66.8127 64.1043 66.7984 64.1043 66.7984C64.1186 66.7698 64.1472 66.727 64.1614 66.6842L69.8716 54.5216C69.8858 54.4788 69.9001 54.4503 69.9144 54.4074C69.9287 54.3646 69.9429 54.3218 69.9572 54.2932C69.9715 54.2504 69.9715 54.2076 69.9715 54.1647C69.9715 54.1219 69.9858 54.0791 69.9858 54.0363C70 53.9934 70 53.9506 70 53.9078ZM67.0022 54.5645L62.4484 64.2574L57.8375 61.3452L61.7917 52.0092L67.0022 54.5645Z" fill="black"/>
<path d="M21.9637 24.7291H25.5897C27.0743 24.7291 28.2734 25.9282 28.2734 27.4129C28.2734 28.8975 27.0743 30.0966 25.5897 30.0966H19.0659C18.3521 30.0966 17.7668 30.6819 17.7668 31.3957C17.7668 32.1094 18.3521 32.6947 19.0659 32.6947H22.4777V35.25C22.4777 35.9638 23.0629 36.549 23.7767 36.549C24.4905 36.549 25.0758 35.9638 25.0758 35.25V32.6947H25.6039C28.5161 32.6947 30.8858 30.325 30.8858 27.4129C30.8858 24.5007 28.5161 22.131 25.6039 22.131H21.978C20.4934 22.131 19.2943 20.9319 19.2943 19.4472C19.2943 17.9626 20.4934 16.7635 21.978 16.7635H28.3876C29.1014 16.7635 29.6867 16.1782 29.6867 15.4644C29.6867 14.7507 29.1014 14.1654 28.3876 14.1654H25.09V11.6672C25.09 10.9535 24.5047 10.3682 23.791 10.3682C23.0772 10.3682 22.4919 10.9535 22.4919 11.6672V14.1797H21.9637C19.0516 14.1797 16.6819 16.5494 16.6819 19.4615C16.6962 22.3594 19.0659 24.7291 21.9637 24.7291Z" fill="black"/>
<path d="M23.7909 44.2862C35.2968 44.2862 44.6471 34.9216 44.6471 23.43C44.6471 11.9384 35.2825 2.55957 23.7909 2.55957C12.2993 2.55957 2.92043 11.9242 2.92043 23.43C2.92043 34.9359 12.285 44.2862 23.7909 44.2862ZM23.7909 5.15767C33.8693 5.15767 42.0633 13.3517 42.0633 23.43C42.0633 33.5084 33.8693 41.7024 23.7909 41.7024C13.7125 41.7024 5.51853 33.5084 5.51853 23.43C5.51853 13.3517 13.7125 5.15767 23.7909 5.15767Z" fill="black"/>
</g>
<defs>
<clipPath id="clip0">
<rect width="70" height="70" fill="white"/>
</clipPath>
</defs>
</svg>
