<svg width="22" height="24" viewBox="0 0 22 24" fill="" xmlns="http://www.w3.org/2000/svg">
<path d="M14.416 24V12.902H20.096C20.277 12.902 20.424 13.049 20.424 13.23V23.344C20.424 23.706 20.13 24 19.768 24H14.416ZM2.32 24C1.958 24 1.664 23.706 1.664 23.344V13.23C1.664 13.049 1.811 12.902 1.992 12.902H7.613V24H2.32ZM0.328 11.92C0.147 11.92 0 11.773 0 11.592V7.56102C0 7.38002 0.147 7.23302 0.328 7.23302H6.874C2.96 6.22302 1.6 4.17802 1.529 4.06902C1.463 3.96802 1.423 3.84502 1.423 3.71202C1.423 3.35002 1.717 3.05602 2.079 3.05602C2.309 3.05602 2.511 3.17402 2.628 3.35202L2.63 3.35402C2.658 3.39502 3.972 5.27402 7.78 6.09402C6.507 5.45402 5.262 4.56502 4.933 3.42102C4.884 3.23402 4.856 3.02002 4.856 2.79902C4.856 2.03802 5.19 1.35602 5.718 0.889023L5.721 0.887023C6.146 0.372023 6.771 0.0360234 7.476 -0.000976562H7.482C9.196 -0.000976562 10.386 2.39002 11.065 4.30802C11.814 2.43802 13.102 0.0560234 14.805 0.0560234C15.546 0.0950234 16.193 0.466023 16.604 1.02202L16.609 1.02802C17.089 1.49202 17.388 2.14102 17.388 2.86002C17.388 3.12202 17.348 3.37502 17.275 3.61302L17.28 3.59502C16.928 4.63002 15.814 5.41802 14.627 5.98602C18.099 5.11402 19.302 3.37602 19.317 3.35302C19.437 3.18002 19.635 3.06702 19.858 3.06702C20.22 3.06702 20.514 3.36102 20.514 3.72302C20.514 3.85002 20.478 3.96902 20.415 4.07002L20.417 4.06702C20.347 4.17702 18.983 6.22102 15.072 7.23102H21.552C21.733 7.23102 21.88 7.37802 21.88 7.55902V11.588C21.88 11.769 21.733 11.916 21.552 11.916L0.328 11.92ZM6.677 1.78802C6.027 2.47802 6.153 2.91502 6.197 3.05802C6.495 4.09302 8.465 5.07602 10.133 5.65402C9.262 2.69902 8.08 1.31202 7.483 1.31202C7.154 1.36802 6.874 1.54102 6.679 1.78502L6.677 1.78802ZM11.992 5.57902C13.684 5.07802 15.69 4.19002 16.035 3.17302C16.083 3.03102 16.229 2.60102 15.613 1.88202C15.43 1.61102 15.144 1.42102 14.812 1.36902L14.805 1.36802C13.859 1.36802 12.702 3.59402 11.992 5.57802V5.57902Z" fill=""/>
</svg>
