<svg width="24" height="24" viewBox="0 0 24 24" fill="none" xmlns="http://www.w3.org/2000/svg">
<g clip-path="url(#clip0)">
<path d="M23.589 22.2611L21.487 20.1601C21.997 19.3911 22.301 18.4471 22.301 17.4321C22.301 15.0431 20.618 13.0471 18.372 12.5661L18.339 12.5601V8.51706C18.339 8.50806 18.339 8.49906 18.339 8.49106C18.339 8.24506 18.251 8.02006 18.106 7.84506L18.107 7.84706V7.84206C18.088 7.81906 18.068 7.79706 18.047 7.77606L18.039 7.76706C18.03 7.75806 18.021 7.74906 18.012 7.74006L10.572 0.300057C10.551 0.279057 10.53 0.260057 10.507 0.241057L10.481 0.223057C10.465 0.210057 10.448 0.197057 10.431 0.185057L10.406 0.167057C10.388 0.155057 10.37 0.145057 10.352 0.133057L10.329 0.121057C10.3063 0.107723 10.2813 0.09539 10.254 0.0840566L10.222 0.0710566L10.171 0.0530566L10.135 0.0420566L10.077 0.0270566L10.049 0.0210566C10.021 0.0150566 9.992 0.0110566 9.963 0.00805664H1.015C0.456 0.0100566 0.004 0.462057 0 1.02006V21.3971C0 21.9581 0.454 22.4141 1.015 22.4161H17.321H17.325C18.338 22.4161 19.28 22.1121 20.065 21.5891L20.047 21.6001L22.149 23.7021C22.33 23.8681 22.572 23.9701 22.838 23.9701C23.401 23.9701 23.857 23.5141 23.857 22.9511C23.857 22.6851 23.755 22.4431 23.588 22.2621L23.589 22.2631V22.2611ZM20.264 17.4341C20.264 19.0591 18.946 20.3771 17.321 20.3771C15.696 20.3771 14.378 19.0591 14.378 17.4341C14.378 15.8091 15.696 14.4911 17.321 14.4911C18.945 14.4931 20.262 15.8091 20.264 17.4331V17.4341ZM10.868 3.47806L14.861 7.47206H10.868V3.47806ZM2.038 2.03806H8.831V8.49106C8.831 9.05406 9.287 9.51006 9.85 9.51006H16.303V12.5601C14.025 13.0471 12.341 15.0431 12.341 17.4331C12.341 18.5421 12.703 19.5661 13.316 20.3931L13.306 20.3801H2.037L2.038 2.03806Z" fill="black"/>
</g>
<defs>
<clipPath id="clip0">
<rect width="24" height="24" fill="white"/>
</clipPath>
</defs>
</svg>
