<svg width="70" height="70" viewBox="0 0 70 70" fill="none" xmlns="http://www.w3.org/2000/svg">
<g clip-path="url(#clip0)">
<path d="M64.2165 48.4109H6.15479V57.9187H64.2165V48.4109Z" fill="#D3E1E5"/>
<path d="M35.0071 62.7512C34.2923 62.7512 33.7061 63.3374 33.7061 64.0523V67.3979H22.5112C21.7963 67.3979 21.2101 67.9841 21.2101 68.6989C21.2101 69.4138 21.7963 70 22.5112 70H47.503C48.2179 70 48.8041 69.4138 48.8041 68.6989C48.8041 67.9841 48.2179 67.3979 47.503 67.3979H36.3082V64.0523C36.3082 63.3231 35.722 62.7512 35.0071 62.7512Z" fill="black"/>
<path d="M7.61331 59.2054H62.3866C64.1166 59.2054 65.5177 57.8043 65.5177 56.0743V18.3721C65.5177 16.6421 64.1166 15.241 62.3866 15.241H47.0598C46.3449 15.241 45.7587 15.8272 45.7587 16.542C45.7587 17.2569 46.3449 17.8431 47.0598 17.8431H62.3866C62.6868 17.8431 62.9299 18.0861 62.9299 18.3864V56.1029C62.9299 56.4031 62.6868 56.6462 62.3866 56.6462H7.61331C7.31306 56.6462 7.07 56.4031 7.07 56.1029V49.8263H58.7408C59.4556 49.8263 60.0418 49.2401 60.0418 48.5253C60.0418 47.8104 59.4556 47.2242 58.7408 47.2242H52.2068C51.6635 43.464 48.418 40.5616 44.5149 40.5616C43.8 40.5616 43.2138 41.1478 43.2138 41.8627C43.2138 42.5776 43.8 43.1638 44.5149 43.1638C46.9883 43.1638 49.0614 44.908 49.5761 47.2242H43.657C43.1566 43.2352 39.9826 40.0612 35.9936 39.5465V30.5249C35.9936 29.81 35.4074 29.2238 34.6926 29.2238C33.9777 29.2238 33.3915 29.81 33.3915 30.5249V39.6037C29.5598 40.2471 26.5573 43.3496 26.0569 47.2242H20.1092C20.6239 44.908 22.697 43.1638 25.1705 43.1638C25.8854 43.1638 26.4716 42.5776 26.4716 41.8627C26.4716 41.1478 25.8854 40.5616 25.1705 40.5616C21.2673 40.5616 18.0218 43.464 17.4785 47.2242H6.41232C6.22646 47.1241 6.012 47.0527 5.78324 47.0527C5.06837 47.0527 4.48218 47.6388 4.48218 48.3537V56.0886C4.49648 57.8043 5.89762 59.2054 7.61331 59.2054ZM34.8784 42.0486C37.9524 42.0486 40.5259 44.279 41.0549 47.2099H28.7162C29.231 44.279 31.7902 42.0486 34.8784 42.0486Z" fill="black"/>
<path d="M5.78324 44.3934C6.49811 44.3934 7.0843 43.8072 7.0843 43.0923V18.3578C7.0843 18.0576 7.32736 17.8145 7.6276 17.8145H22.9973C23.7122 17.8145 24.2984 17.2283 24.2984 16.5135C24.2984 15.7986 23.7122 15.2124 22.9973 15.2124H7.61331C5.88332 15.2124 4.48218 16.6135 4.48218 18.3435V43.078C4.49648 43.8215 5.06837 44.3934 5.78324 44.3934Z" fill="black"/>
<path d="M34.8925 54.8877C35.7216 54.8877 36.3937 54.2156 36.3937 53.3865C36.3937 52.5574 35.7216 51.8853 34.8925 51.8853C34.0634 51.8853 33.3913 52.5574 33.3913 53.3865C33.3913 54.2156 34.0634 54.8877 34.8925 54.8877Z" fill="black"/>
<path d="M23.412 32.5551C23.412 33.27 23.9982 33.8562 24.7131 33.8562H27.3724V36.8587C27.3724 37.5735 27.9586 38.1597 28.6734 38.1597C29.3883 38.1597 29.9745 37.5735 29.9745 36.8587V33.8562H30.1461C30.8609 33.8562 31.4471 33.27 31.4471 32.5551C31.4471 31.8403 30.8609 31.2541 30.1461 31.2541H25.9998V29.81C25.9998 29.3239 26.1428 28.8521 26.4287 28.4518L28.7735 25.0919C29.3311 24.2913 29.6314 23.3476 29.6314 22.3611V11.1091C29.6314 10.0511 30.0174 9.02165 30.7037 8.221L34.9214 3.2884L39.1534 8.2067C39.854 9.02165 40.24 10.0511 40.24 11.1091V22.4326C40.24 23.3333 40.4974 24.2198 40.9835 24.9918L43.171 28.4375C43.414 28.8235 43.5427 29.2525 43.5427 29.71V31.2398H39.6109C38.8961 31.2398 38.3099 31.826 38.3099 32.5409C38.3099 33.2128 38.8103 33.7418 39.4537 33.8276V36.8444C39.4537 37.5592 40.0398 38.1454 40.7547 38.1454C41.4696 38.1454 42.0558 37.5592 42.0558 36.8444V33.8419H44.8295C45.5443 33.8419 46.1305 33.2557 46.1305 32.5409V29.71C46.1305 28.7663 45.8589 27.8513 45.3585 27.0507L43.171 23.605C42.9422 23.2475 42.8278 22.8472 42.8278 22.4326V11.1234C42.8278 9.43627 42.213 7.80637 41.1122 6.51961L35.8793 0.443219C35.6363 0.157271 35.2788 0 34.8928 0C34.5211 0 34.1493 0.171569 33.9063 0.457516L28.7163 6.53391C27.6297 7.80637 27.0292 9.43627 27.0292 11.1091V22.3754C27.0292 22.8186 26.9006 23.2618 26.6432 23.6193L24.2984 26.9792C23.7122 27.8227 23.412 28.7949 23.412 29.8243V32.5551Z" fill="black"/>
</g>
<defs>
<clipPath id="clip0">
<rect width="70" height="70" fill="white"/>
</clipPath>
</defs>
</svg>
