<svg width="70" height="70" viewBox="0 0 70 70" fill="none" xmlns="http://www.w3.org/2000/svg">
<path d="M47.4661 60.09C45.4755 61.6366 43.1985 62.009 41.6948 61.7798C41.2079 61.7082 41.1076 61.0495 41.5516 60.8203C42.9837 60.1186 43.8286 58.572 44.3012 57.4836C39.7758 52.3711 39.9477 44.5376 44.8454 39.6542C49.9292 34.5703 58.178 34.5703 63.2619 39.6542C68.3458 44.7381 68.3458 52.9869 63.2619 58.0707C58.98 62.3527 52.4497 63.0257 47.4661 60.09Z" fill="#D3E1E5"/>
<path d="M37.5561 24.1162C37.198 24.3597 36.9832 24.7606 36.9832 25.1903V35.3151C36.9832 36.0311 37.5704 36.6183 38.2864 36.6183C39.0025 36.6183 39.5896 36.0311 39.5896 35.3151V25.8347C40.9214 24.689 41.7091 23.0278 41.7091 21.252V10.7549C41.7091 4.8261 36.883 0 30.9542 0H28.6915C22.7627 0 17.9366 4.8261 17.9366 10.7549V21.252C17.9366 23.0278 18.7099 24.7034 20.0561 25.8347V34.8138C17.9366 35.8736 11.392 39.3392 5.31997 44.3372C3.84493 45.5544 3 47.3445 3 49.2778V56.4812C3 57.1972 3.58715 57.7844 4.30319 57.7844C5.01923 57.7844 5.60638 57.1972 5.60638 56.4812V49.2778C5.60638 48.1322 6.10761 47.0724 6.98118 46.3421C13.3969 41.072 20.3425 37.5634 21.6743 36.919C22.2901 36.6182 22.6624 36.0168 22.6624 35.3294V25.2046C22.6624 24.775 22.4476 24.3597 22.0896 24.1305C21.1301 23.4861 20.5573 22.4264 20.5573 21.2664V10.7549C20.5573 6.25818 24.2234 2.59206 28.7201 2.59206H30.9828C35.4795 2.59206 39.1457 6.25818 39.1457 10.7549V21.252C39.0884 22.412 38.5156 23.4718 37.5561 24.1162Z" fill="black"/>
<path d="M33.274 36.9475C32.5579 36.9475 31.9708 37.5347 31.9708 38.2507C31.9708 38.8808 31.6987 39.4536 31.2548 39.8546C31.1688 39.9119 31.0829 39.9692 31.0113 40.0551C30.6676 40.2986 30.238 40.4275 29.794 40.4275C28.5911 40.4275 27.6173 39.4536 27.6173 38.2507C27.6173 37.5347 27.0301 36.9475 26.3141 36.9475C25.598 36.9475 25.0109 37.5347 25.0109 38.2507C25.0109 39.3964 25.4119 40.4561 26.0993 41.2724L25.0539 65.6464C25.0395 66.033 25.1971 66.4054 25.4835 66.6631L28.8202 69.6705C29.0637 69.8996 29.3787 69.9999 29.6938 69.9999C30.0088 69.9999 30.3239 69.8853 30.5674 69.6705L33.9614 66.6059C34.2478 66.3481 34.4053 65.9757 34.391 65.5891L33.3026 41.5015C34.1046 40.6423 34.5915 39.4966 34.5915 38.2364C34.5772 37.5203 33.99 36.9475 33.274 36.9475ZM29.6795 66.9639L27.6602 65.1451L28.6197 42.862C28.9921 42.9622 29.3787 43.0052 29.7797 43.0052C30.1091 43.0052 30.4242 42.9766 30.7249 42.905L31.7273 65.0735L29.6795 66.9639Z" fill="black"/>
<path d="M68.3745 48.8481C68.3745 45.0245 66.8851 41.43 64.1785 38.7233C61.4719 36.0167 57.8773 34.5273 54.0537 34.5273C50.2301 34.5273 46.6355 36.0167 43.9289 38.7233C38.7877 43.8645 38.3438 52.0273 42.7689 57.6697C42.2391 58.6722 41.6376 59.3309 40.9788 59.6603C40.2628 60.004 39.8761 60.763 39.9907 61.5507C40.1053 62.3383 40.7211 62.9398 41.4944 63.0687C41.8238 63.1259 42.1818 63.1403 42.5541 63.1403C44.244 63.1403 46.0341 62.5961 47.5521 61.6223C49.557 62.639 51.791 63.1832 54.068 63.1832C57.8917 63.1832 61.4862 61.6939 64.1928 58.9872C66.8851 56.2806 68.3745 52.6861 68.3745 48.8481ZM54.0537 60.5769C51.9629 60.5769 49.9007 60.0183 48.1106 58.9729C47.9101 58.8584 47.6809 58.7868 47.4518 58.7868C47.1654 58.7868 46.8933 58.8727 46.6499 59.0588C45.762 59.7462 44.8598 60.1186 44.1151 60.3191C44.6163 59.689 45.0746 58.9156 45.4755 57.9991C45.676 57.5408 45.5901 56.9967 45.2607 56.6243C41.165 51.9987 41.3798 44.9386 45.762 40.5707C47.9817 38.351 50.9174 37.1337 54.0537 37.1337C57.19 37.1337 60.1257 38.351 62.3454 40.5707C64.5652 42.7904 65.7824 45.7262 65.7824 48.8625C65.7824 51.9987 64.5652 54.9345 62.3454 57.1542C60.14 59.3596 57.19 60.5769 54.0537 60.5769Z" fill="black"/>
<path d="M54.0537 47.5593C53.71 47.5593 53.3806 47.7025 53.1372 47.946C52.8937 48.1894 52.7505 48.5188 52.7505 48.8625C52.7505 49.2062 52.8937 49.5356 53.1372 49.779C53.3806 50.0225 53.71 50.1657 54.0537 50.1657C54.3974 50.1657 54.7268 50.0225 54.9702 49.779C55.2137 49.5356 55.3426 49.2062 55.3426 48.8625C55.3426 48.5188 55.1993 48.1894 54.9559 47.946C54.7268 47.6882 54.3974 47.5593 54.0537 47.5593Z" fill="black"/>
<path d="M58.8796 47.5593C58.5359 47.5593 58.2066 47.7025 57.9631 47.946C57.7197 48.1894 57.5764 48.5188 57.5764 48.8625C57.5764 49.2062 57.7197 49.5356 57.9631 49.779C58.2066 50.0225 58.5359 50.1657 58.8796 50.1657C59.2233 50.1657 59.5527 50.0225 59.7962 49.779C60.0396 49.5356 60.1828 49.2062 60.1828 48.8625C60.1828 48.5188 60.0396 48.1894 59.7962 47.946C59.5527 47.6882 59.2233 47.5593 58.8796 47.5593Z" fill="black"/>
<path d="M49.2131 47.5593C48.8694 47.5593 48.54 47.7025 48.2966 47.946C48.0531 48.1894 47.9099 48.5188 47.9099 48.8625C47.9099 49.2062 48.0531 49.5356 48.2966 49.779C48.54 50.0225 48.8694 50.1657 49.2131 50.1657C49.5568 50.1657 49.8862 50.0225 50.1296 49.779C50.3731 49.5356 50.502 49.2062 50.502 48.8625C50.502 48.5188 50.3588 48.1894 50.1153 47.946C49.9005 47.6882 49.5568 47.5593 49.2131 47.5593Z" fill="black"/>
</svg>
