<svg width="70" height="70" viewBox="10 10 80 80" fill="none" xmlns="http://www.w3.org/2000/svg">
<g clip-path="url(#clip0)">
<path d="M39.0873 60.6886C45.3074 66.3913 54.9727 65.972 60.6755 59.7519C66.3783 53.5318 65.959 43.8664 59.7389 38.1637C53.5188 32.4609 43.8535 32.8803 38.1507 39.1003C32.4479 45.3204 32.8672 54.9858 39.0873 60.6886Z" fill="#D3E1E5"/>
<path d="M29.2727 32.688C28.7151 33.3596 27.9362 33.8284 27.0538 34.0083L15.5953 36.4175C12.4273 37.081 10.2433 39.9071 10.3835 43.1383L11.0775 59.1326C11.1537 60.8895 11.9122 62.5157 13.208 63.7038C14.2194 64.6311 15.489 65.2133 16.8517 65.3768L28.4969 66.8038C29.3819 66.9171 30.1976 67.2965 30.8113 67.9173C31.1177 68.2176 31.4241 68.5179 31.7402 68.8077C36.9025 73.5408 43.6043 75.9814 50.5917 75.6783C57.9628 75.3585 64.9048 71.9111 69.6257 66.2333C70.1736 65.5722 70.9525 65.1034 71.8349 64.9235L83.3127 62.4932C86.4702 61.8201 88.6541 58.9939 88.5245 55.7724L87.8305 39.7781C87.7543 38.0212 86.9958 36.395 85.7 35.2069C84.678 34.27 83.419 33.6974 82.0457 33.5243L70.4216 32.1166C69.5269 32.0138 68.7104 31.6142 68.0967 30.9934C67.7894 30.6729 67.4523 30.3638 67.1257 30.0643C61.9844 25.3506 55.3133 22.9187 48.3259 23.2219C40.9144 23.5435 33.9724 26.9908 29.2727 32.688ZM31.2665 34.3415C35.5053 29.2106 41.7536 26.0968 48.4082 25.8182C54.709 25.5449 60.7119 27.7326 65.3475 31.9827C65.6425 32.2531 65.9384 32.5438 66.2237 32.8248C67.2606 33.8724 68.6039 34.5222 70.079 34.7112L81.7031 36.1188C82.5372 36.2243 83.301 36.5755 83.9121 37.1358C84.7023 37.8602 85.1596 38.8419 85.1955 39.9026L85.8895 55.8968C85.9745 57.8557 84.6423 59.5625 82.7378 59.9689L71.26 62.3991C69.8165 62.7045 68.5249 63.4788 67.6019 64.5912C63.3527 69.7123 57.0938 72.8165 50.4497 73.1048C44.1489 73.3781 38.1153 71.1816 33.4586 66.9122C33.1742 66.6514 32.8994 66.3801 32.6246 66.1087C31.5983 65.0708 30.2655 64.4306 28.7904 64.2417L17.1452 62.8147C16.3111 62.7093 15.5472 62.358 14.9362 61.7977C14.146 61.0733 13.6887 60.0916 13.6528 59.031L12.9588 43.0367C12.8738 41.0778 14.2059 39.371 16.1201 38.9541L27.5786 36.545C29.0423 36.2387 30.3436 35.4539 31.2665 34.3415Z" fill="black"/>
<path d="M62.8351 45.4041C62.8956 45.6342 63.0256 45.8309 63.1942 45.9854C63.5208 46.2849 63.9914 46.4061 64.4409 46.2753C65.1302 46.0734 65.5131 45.3385 65.3016 44.6598C65.0997 43.9705 64.3753 43.5973 63.686 43.7992C63.017 44.0002 62.6235 44.7254 62.8351 45.4041Z" fill="black"/>
<path d="M46.5801 63.1755C45.8856 63.0236 45.1972 63.4783 45.0452 64.1728C44.9442 64.6426 45.1154 65.0904 45.442 65.3898C45.6105 65.5444 45.8178 65.6568 46.0522 65.6972C46.7564 65.8386 47.4351 65.3944 47.5765 64.6902C47.7285 63.9957 47.2843 63.317 46.5801 63.1755Z" fill="black"/>
<path d="M34.4668 46.0583C33.7643 45.9573 33.0979 46.4515 33.0074 47.1636C32.9459 47.6114 33.1153 48.0188 33.4208 48.2989C33.6105 48.4728 33.8379 48.5843 34.1127 48.623C34.8151 48.724 35.4816 48.2298 35.5721 47.5177C35.6731 46.8153 35.1692 46.1593 34.4668 46.0583Z" fill="black"/>
<path d="M40.6156 36.9193C40.6814 37.0378 40.7666 37.1353 40.8614 37.2222C41.2723 37.5989 41.893 37.6833 42.3962 37.3883C43.0178 37.0275 43.226 36.2294 42.8555 35.6183C42.4947 34.9966 41.6966 34.7884 41.0855 35.1589C40.4533 35.51 40.2548 36.2976 40.6156 36.9193Z" fill="black"/>
<path d="M37.2937 40.0984C37.8204 40.5814 38.6484 40.5455 39.1314 40.0187C39.6144 39.4919 39.5784 38.6639 39.042 38.1915C38.5152 37.7085 37.6872 37.7444 37.2148 38.2809C36.7318 38.8076 36.7669 39.6154 37.2937 40.0984Z" fill="black"/>
<path d="M54.1496 36.1804C54.2655 36.2867 54.4007 36.3719 54.5447 36.4263C55.2137 36.6907 55.9583 36.365 56.2227 35.696C56.487 35.0269 56.1614 34.2823 55.4923 34.018C54.8233 33.7536 54.0787 34.0793 53.8143 34.7483C53.6141 35.2628 53.7703 35.8327 54.1496 36.1804Z" fill="black"/>
<path d="M35.613 51.7244C35.5015 51.0211 34.8334 50.5442 34.1301 50.6557C33.4268 50.7671 32.9499 51.4352 33.0614 52.1386C33.1149 52.4397 33.2475 52.697 33.4582 52.8902C33.7426 53.151 34.1325 53.2757 34.5443 53.2072C35.2476 53.0958 35.7244 52.4277 35.613 51.7244Z" fill="black"/>
<path d="M49.6742 35.1607C49.8849 35.3539 50.1536 35.4839 50.4574 35.4909C51.1677 35.541 51.7921 35.0081 51.8422 34.2978C51.8923 33.5875 51.3594 32.9632 50.6491 32.913C49.9387 32.8629 49.3144 33.3958 49.2643 34.1062C49.2318 34.5223 49.4003 34.9096 49.6742 35.1607Z" fill="black"/>
<path d="M44.7241 34.8492C44.7864 35.1196 44.9172 35.3365 45.1068 35.5104C45.4124 35.7905 45.8426 35.9134 46.2737 35.8239C46.9647 35.6624 47.4099 34.9653 47.2485 34.2743C47.087 33.5833 46.3899 33.1381 45.6892 33.3101C44.9973 33.4514 44.5626 34.1582 44.7241 34.8492Z" fill="black"/>
<path d="M42.6522 61.7073C42.02 61.3604 41.2307 61.5868 40.8934 62.2085C40.5931 62.7475 40.7125 63.3999 41.1444 63.796C41.2182 63.8636 41.3016 63.9207 41.385 63.9778C42.0171 64.3246 42.8065 64.0982 43.1437 63.4766C43.4906 62.8444 43.2738 62.0445 42.6522 61.7073Z" fill="black"/>
<path d="M61.032 41.6178C61.0864 41.7065 61.1505 41.7846 61.2243 41.8522C61.6562 42.2482 62.3165 42.3106 62.8275 41.9647C63.4167 41.5548 63.5643 40.7593 63.1745 40.1692C62.7742 39.5695 61.9585 39.4228 61.379 39.8222C60.7995 40.2217 60.6326 41.0382 61.032 41.6178Z" fill="black"/>
<path d="M36.7736 43.5C37.0793 42.8494 36.8133 42.0819 36.1627 41.7763C35.5121 41.4707 34.7447 41.7367 34.4391 42.3873C34.1888 42.9141 34.3266 43.5252 34.7374 43.9019C34.8323 43.9889 34.9367 44.0653 35.0605 44.1206C35.6909 44.4271 36.468 44.1506 36.7736 43.5Z" fill="black"/>
<path d="M36.9085 55.7046C36.5872 55.061 35.8075 54.8116 35.1736 55.1224C34.53 55.4437 34.2805 56.2233 34.5913 56.8573C34.6686 57.0057 34.7651 57.133 34.8705 57.2296C35.2603 57.587 35.831 57.6836 36.3262 57.4396C36.9602 57.1288 37.2298 56.3483 36.9085 55.7046Z" fill="black"/>
<path d="M39.3235 59.1404C38.8257 58.6258 38.0056 58.6108 37.4911 59.1086C36.9765 59.6064 36.9615 60.4264 37.4593 60.941C37.4804 60.9603 37.5014 60.9796 37.5225 60.9989C38.0177 61.4529 38.7965 61.4495 39.2917 60.9728C39.8063 60.475 39.8213 59.6549 39.3235 59.1404Z" fill="black"/>
<path d="M58.1136 38.4766C58.1347 38.4959 58.1558 38.5153 58.1768 38.5346C58.7326 38.9859 59.5579 38.8894 59.9891 38.3345C60.4405 37.7788 60.3439 36.9535 59.7891 36.5223C59.2333 36.0709 58.408 36.1674 57.9768 36.7223C57.5544 37.2465 57.6185 38.0226 58.1136 38.4766Z" fill="black"/>
<path d="M49.6049 64.8045C49.6294 65.1373 49.7936 65.4236 50.0254 65.6361C50.2888 65.8776 50.6382 66.004 51.021 65.9672C59.3729 65.1698 65.9606 57.9846 66.0316 49.595C66.0308 48.8768 65.4592 48.2946 64.7507 48.2849C64.0324 48.2857 63.4503 48.8572 63.4405 49.5658C63.3933 56.6392 57.8296 62.7077 50.7772 63.3778C50.0624 63.4594 49.5338 64.0995 49.6049 64.8045Z" fill="black"/>
</g>
<defs>
<clipPath id="clip0">
<rect width="70" height="70" fill="white" transform="translate(47.3054) rotate(42.5157)"/>
</clipPath>
</defs>
</svg>
