<?xml version="1.0" encoding="utf-8"?>
<!-- Generator: Adobe Illustrator 19.2.0, SVG Export Plug-In . SVG Version: 6.00 Build 0)  -->
<svg version="1.1" id="Layer_1" xmlns="http://www.w3.org/2000/svg" xmlns:xlink="http://www.w3.org/1999/xlink" x="0px" y="0px"
	 viewBox="0 0 400 109.1" enable-background="new 0 0 400 109.1" xml:space="preserve">
<g>
	<path fill="#231F20" d="M33.3,70.3V77H1.8v-5.3l16.9-16.1c1.9-1.8,3.2-3.4,3.9-4.8c0.7-1.4,1-2.7,1-4c0-2-0.7-3.5-2-4.6
		c-1.3-1.1-3.3-1.6-5.9-1.6c-4.3,0-7.7,1.5-10,4.4l-5.5-4.3c1.7-2.2,3.9-4,6.7-5.2c2.8-1.2,6-1.9,9.5-1.9c4.6,0,8.3,1.1,11.1,3.3
		c2.8,2.2,4.1,5.2,4.1,8.9c0,2.3-0.5,4.5-1.5,6.5c-1,2-2.8,4.3-5.6,6.9L13.2,70.3H33.3z"/>
	<path fill="#231F20" d="M54.1,34.4V77h-7.9V41h-9v-6.6H54.1z"/>
	<path fill="#231F20" d="M128.5,70.3V77H97.1v-5.3L114,55.6c1.9-1.8,3.2-3.4,3.9-4.8c0.7-1.4,1-2.7,1-4c0-2-0.7-3.5-2-4.6
		c-1.3-1.1-3.3-1.6-5.9-1.6c-4.3,0-7.7,1.5-10,4.4l-5.5-4.3c1.7-2.2,3.9-4,6.7-5.2c2.8-1.2,6-1.9,9.5-1.9c4.6,0,8.3,1.1,11.1,3.3
		c2.8,2.2,4.1,5.2,4.1,8.9c0,2.3-0.5,4.5-1.5,6.5c-1,2-2.8,4.3-5.6,6.9l-11.4,10.8H128.5z"/>
	<path fill="#231F20" d="M167,70.3V77h-31.4v-5.3l16.9-16.1c1.9-1.8,3.2-3.4,3.9-4.8c0.7-1.4,1-2.7,1-4c0-2-0.7-3.5-2-4.6
		c-1.3-1.1-3.3-1.6-5.9-1.6c-4.3,0-7.7,1.5-10,4.4l-5.5-4.3c1.7-2.2,3.9-4,6.7-5.2c2.8-1.2,6-1.9,9.5-1.9c4.6,0,8.3,1.1,11.1,3.3
		c2.8,2.2,4.1,5.2,4.1,8.9c0,2.3-0.5,4.5-1.5,6.5c-1,2-2.8,4.3-5.6,6.9l-11.4,10.8H167z"/>
	<path fill="#231F20" d="M239.1,70.3V77h-31.4v-5.3l16.9-16.1c1.9-1.8,3.2-3.4,3.9-4.8c0.7-1.4,1-2.7,1-4c0-2-0.7-3.5-2-4.6
		c-1.3-1.1-3.3-1.6-5.9-1.6c-4.3,0-7.7,1.5-10,4.4l-5.5-4.3c1.7-2.2,3.9-4,6.7-5.2c2.8-1.2,6-1.9,9.5-1.9c4.6,0,8.3,1.1,11.1,3.3
		c2.8,2.2,4.1,5.2,4.1,8.9c0,2.3-0.5,4.5-1.5,6.5c-1,2-2.8,4.3-5.6,6.9L219,70.3H239.1z"/>
	<path fill="#231F20" d="M273.8,56c2.1,2.2,3.1,4.9,3.1,8.2c0,2.5-0.6,4.7-1.9,6.8c-1.3,2-3.2,3.6-5.7,4.8c-2.5,1.2-5.6,1.8-9.3,1.8
		c-3,0-6-0.4-8.8-1.3c-2.8-0.9-5.2-2.1-7.2-3.6l3.4-6.1c1.5,1.3,3.4,2.3,5.6,3.1c2.2,0.8,4.5,1.1,6.8,1.1c2.8,0,5-0.6,6.6-1.7
		c1.6-1.2,2.4-2.7,2.4-4.7c0-2-0.8-3.5-2.3-4.7c-1.5-1.1-3.8-1.7-7-1.7h-3.9v-5.4l9.7-11.5h-19.4v-6.6h29v5.3L264.8,52
		C268.7,52.4,271.7,53.8,273.8,56z"/>
	<path fill="#FFFFFF" d="M333.5,75c-2.7-1.7-4.8-4.2-6.3-7.5c-1.5-3.3-2.3-7.2-2.3-11.8c0-4.5,0.8-8.5,2.3-11.8
		c1.5-3.3,3.7-5.8,6.3-7.5c2.7-1.7,5.7-2.6,9.1-2.6c3.4,0,6.5,0.9,9.2,2.6c2.7,1.7,4.8,4.2,6.4,7.5c1.5,3.3,2.3,7.2,2.3,11.8
		c0,4.5-0.8,8.5-2.3,11.8c-1.5,3.3-3.7,5.8-6.4,7.5c-2.7,1.7-5.8,2.6-9.2,2.6C339.2,77.6,336.1,76.7,333.5,75z M349.8,66.9
		c1.8-2.5,2.6-6.3,2.6-11.3s-0.9-8.7-2.6-11.3c-1.8-2.5-4.2-3.8-7.2-3.8c-3,0-5.4,1.3-7.2,3.8c-1.8,2.5-2.6,6.3-2.6,11.3
		s0.9,8.7,2.6,11.3c1.8,2.5,4.1,3.8,7.2,3.8C345.6,70.7,348.1,69.4,349.8,66.9z"/>
	<path fill="#FFFFFF" d="M392.7,52.3c2.2,1.1,4,2.6,5.2,4.6c1.3,2,1.9,4.3,1.9,6.9c0,2.8-0.7,5.2-2.1,7.3c-1.4,2.1-3.2,3.7-5.6,4.8
		c-2.4,1.1-5,1.7-7.9,1.7c-5.8,0-10.4-1.8-13.6-5.5c-3.2-3.7-4.8-8.9-4.8-15.7c0-4.8,0.9-8.9,2.6-12.3c1.7-3.4,4.2-6,7.3-7.7
		c3.1-1.8,6.8-2.6,10.9-2.6c2.2,0,4.3,0.2,6.2,0.7c1.9,0.5,3.6,1.1,5,2l-2.9,6c-2.1-1.4-4.8-2.1-8.1-2.1c-4.1,0-7.3,1.3-9.6,3.8
		c-2.3,2.5-3.5,6.1-3.5,10.9v0.1c1.3-1.5,2.9-2.6,4.8-3.3c1.9-0.8,4.1-1.1,6.6-1.1C388,50.7,390.5,51.2,392.7,52.3z M389.8,69.4
		c1.5-1.3,2.3-3.1,2.3-5.3c0-2.2-0.8-4-2.3-5.3c-1.5-1.3-3.6-1.9-6.2-1.9c-2.6,0-4.6,0.7-6.2,2.1c-1.6,1.4-2.4,3.1-2.4,5.2
		c0,2.1,0.8,3.8,2.3,5.1c1.6,1.4,3.7,2,6.5,2C386.3,71.4,388.3,70.7,389.8,69.4z"/>
</g>
<path fill="#FFFFFF" d="M85.5,34.3h-7.4c-4,14.4-7.9,28.6-11.9,43h7.4C77.6,62.9,81.6,48.6,85.5,34.3z"/>
<path fill="#FFFFFF" d="M199,34.3h-7.4c-4,14.3-7.9,28.7-11.9,43h7.4C191.1,62.9,195,48.6,199,34.3z"/>
<path fill="#9959A3" d="M313.3,0.8c-9.9,35.9-19.9,71.8-29.8,107.7h7.7c9.9-35.9,19.9-71.8,29.8-107.7H313.3z"/>
<g>
	<path fill="#231F20" d="M33.3,70.3V77H1.8v-5.3l16.9-16.1c1.9-1.8,3.2-3.4,3.9-4.8c0.7-1.4,1-2.7,1-4c0-2-0.7-3.5-2-4.6
		c-1.3-1.1-3.3-1.6-5.9-1.6c-4.3,0-7.7,1.5-10,4.4l-5.5-4.3c1.7-2.2,3.9-4,6.7-5.2c2.8-1.2,6-1.9,9.5-1.9c4.6,0,8.3,1.1,11.1,3.3
		c2.8,2.2,4.1,5.2,4.1,8.9c0,2.3-0.5,4.5-1.5,6.5c-1,2-2.8,4.3-5.6,6.9L13.2,70.3H33.3z"/>
	<path fill="#231F20" d="M54.1,34.4V77h-7.9V41h-9v-6.6H54.1z"/>
	<path fill="#231F20" d="M128.5,70.3V77H97.1v-5.3L114,55.6c1.9-1.8,3.2-3.4,3.9-4.8c0.7-1.4,1-2.7,1-4c0-2-0.7-3.5-2-4.6
		c-1.3-1.1-3.3-1.6-5.9-1.6c-4.3,0-7.7,1.5-10,4.4l-5.5-4.3c1.7-2.2,3.9-4,6.7-5.2c2.8-1.2,6-1.9,9.5-1.9c4.6,0,8.3,1.1,11.1,3.3
		c2.8,2.2,4.1,5.2,4.1,8.9c0,2.3-0.5,4.5-1.5,6.5c-1,2-2.8,4.3-5.6,6.9l-11.4,10.8H128.5z"/>
	<path fill="#231F20" d="M167,70.3V77h-31.4v-5.3l16.9-16.1c1.9-1.8,3.2-3.4,3.9-4.8c0.7-1.4,1-2.7,1-4c0-2-0.7-3.5-2-4.6
		c-1.3-1.1-3.3-1.6-5.9-1.6c-4.3,0-7.7,1.5-10,4.4l-5.5-4.3c1.7-2.2,3.9-4,6.7-5.2c2.8-1.2,6-1.9,9.5-1.9c4.6,0,8.3,1.1,11.1,3.3
		c2.8,2.2,4.1,5.2,4.1,8.9c0,2.3-0.5,4.5-1.5,6.5c-1,2-2.8,4.3-5.6,6.9l-11.4,10.8H167z"/>
	<path fill="#231F20" d="M239.1,70.3V77h-31.4v-5.3l16.9-16.1c1.9-1.8,3.2-3.4,3.9-4.8c0.7-1.4,1-2.7,1-4c0-2-0.7-3.5-2-4.6
		c-1.3-1.1-3.3-1.6-5.9-1.6c-4.3,0-7.7,1.5-10,4.4l-5.5-4.3c1.7-2.2,3.9-4,6.7-5.2c2.8-1.2,6-1.9,9.5-1.9c4.6,0,8.3,1.1,11.1,3.3
		c2.8,2.2,4.1,5.2,4.1,8.9c0,2.3-0.5,4.5-1.5,6.5c-1,2-2.8,4.3-5.6,6.9L219,70.3H239.1z"/>
	<path fill="#231F20" d="M273.8,56c2.1,2.2,3.1,4.9,3.1,8.2c0,2.5-0.6,4.7-1.9,6.8c-1.3,2-3.2,3.6-5.7,4.8c-2.5,1.2-5.6,1.8-9.3,1.8
		c-3,0-6-0.4-8.8-1.3c-2.8-0.9-5.2-2.1-7.2-3.6l3.4-6.1c1.5,1.3,3.4,2.3,5.6,3.1c2.2,0.8,4.5,1.1,6.8,1.1c2.8,0,5-0.6,6.6-1.7
		c1.6-1.2,2.4-2.7,2.4-4.7c0-2-0.8-3.5-2.3-4.7c-1.5-1.1-3.8-1.7-7-1.7h-3.9v-5.4l9.7-11.5h-19.4v-6.6h29v5.3L264.8,52
		C268.7,52.4,271.7,53.8,273.8,56z"/>
	<path fill="#FFFFFF" d="M333.5,75c-2.7-1.7-4.8-4.2-6.3-7.5c-1.5-3.3-2.3-7.2-2.3-11.8c0-4.5,0.8-8.5,2.3-11.8
		c1.5-3.3,3.7-5.8,6.3-7.5c2.7-1.7,5.7-2.6,9.1-2.6c3.4,0,6.5,0.9,9.2,2.6c2.7,1.7,4.8,4.2,6.4,7.5c1.5,3.3,2.3,7.2,2.3,11.8
		c0,4.5-0.8,8.5-2.3,11.8c-1.5,3.3-3.7,5.8-6.4,7.5c-2.7,1.7-5.8,2.6-9.2,2.6C339.2,77.6,336.1,76.7,333.5,75z M349.8,66.9
		c1.8-2.5,2.6-6.3,2.6-11.3s-0.9-8.7-2.6-11.3c-1.8-2.5-4.2-3.8-7.2-3.8c-3,0-5.4,1.3-7.2,3.8c-1.8,2.5-2.6,6.3-2.6,11.3
		s0.9,8.7,2.6,11.3c1.8,2.5,4.1,3.8,7.2,3.8C345.6,70.7,348.1,69.4,349.8,66.9z"/>
	<path fill="#FFFFFF" d="M392.7,52.3c2.2,1.1,4,2.6,5.2,4.6c1.3,2,1.9,4.3,1.9,6.9c0,2.8-0.7,5.2-2.1,7.3c-1.4,2.1-3.2,3.7-5.6,4.8
		c-2.4,1.1-5,1.7-7.9,1.7c-5.8,0-10.4-1.8-13.6-5.5c-3.2-3.7-4.8-8.9-4.8-15.7c0-4.8,0.9-8.9,2.6-12.3c1.7-3.4,4.2-6,7.3-7.7
		c3.1-1.8,6.8-2.6,10.9-2.6c2.2,0,4.3,0.2,6.2,0.7c1.9,0.5,3.6,1.1,5,2l-2.9,6c-2.1-1.4-4.8-2.1-8.1-2.1c-4.1,0-7.3,1.3-9.6,3.8
		c-2.3,2.5-3.5,6.1-3.5,10.9v0.1c1.3-1.5,2.9-2.6,4.8-3.3c1.9-0.8,4.1-1.1,6.6-1.1C388,50.7,390.5,51.2,392.7,52.3z M389.8,69.4
		c1.5-1.3,2.3-3.1,2.3-5.3c0-2.2-0.8-4-2.3-5.3c-1.5-1.3-3.6-1.9-6.2-1.9c-2.6,0-4.6,0.7-6.2,2.1c-1.6,1.4-2.4,3.1-2.4,5.2
		c0,2.1,0.8,3.8,2.3,5.1c1.6,1.4,3.7,2,6.5,2C386.3,71.4,388.3,70.7,389.8,69.4z"/>
</g>
<path fill="#FFFFFF" d="M85.5,34.3h-7.4c-4,14.4-7.9,28.6-11.9,43h7.4C77.6,62.9,81.6,48.6,85.5,34.3z"/>
<path fill="#FFFFFF" d="M199,34.3h-7.4c-4,14.3-7.9,28.7-11.9,43h7.4C191.1,62.9,195,48.6,199,34.3z"/>
</svg>
