<?xml version="1.0" encoding="utf-8"?>
<!-- Generator: Adobe Illustrator 19.2.0, SVG Export Plug-In . SVG Version: 6.00 Build 0)  -->
<svg version="1.1" id="Layer_1" xmlns="http://www.w3.org/2000/svg" xmlns:xlink="http://www.w3.org/1999/xlink" x="0px" y="0px"
	 viewBox="0 0 400 168.7" enable-background="new 0 0 400 168.7" xml:space="preserve">
<g>
	<path fill="#231F20" d="M34.5,133.9c-0.7,0.6-1.8,0.9-3.1,1v0.8H30v-0.8c-1.3-0.1-2.4-0.4-3.1-1c-0.7-0.6-1.1-1.4-1.1-2.5
		c0-1,0.4-1.9,1.1-2.5c0.7-0.6,1.8-0.9,3.1-1v-0.8h1.4v0.8c1.3,0.1,2.4,0.4,3.1,1c0.7,0.6,1.1,1.4,1.1,2.5
		C35.6,132.5,35.2,133.3,34.5,133.9z M28,133c0.5,0.4,1.2,0.6,2,0.7v-4.6c-1.8,0.1-2.8,0.9-2.8,2.3C27.3,132.1,27.5,132.7,28,133z
		 M33.5,133c0.5-0.4,0.7-0.9,0.7-1.6s-0.2-1.2-0.7-1.6s-1.2-0.6-2.1-0.7v4.6C32.3,133.7,33,133.4,33.5,133z"/>
	<path fill="#231F20" d="M44.7,134.2v1.2h-6v-7.9h5.8v1.2h-4.3v2.1H44v1.2h-3.8v2.2H44.7z"/>
	<path fill="#231F20" d="M49.4,135c-0.6-0.4-1.2-0.8-1.5-1.5c-0.4-0.6-0.6-1.3-0.6-2.1c0-0.8,0.2-1.5,0.6-2.1
		c0.4-0.6,0.9-1.1,1.5-1.5c0.6-0.4,1.4-0.5,2.2-0.5c0.7,0,1.2,0.1,1.8,0.3c0.5,0.2,1,0.6,1.4,1l-1,0.9c-0.6-0.6-1.3-0.9-2.1-0.9
		c-0.5,0-1,0.1-1.5,0.4c-0.4,0.2-0.8,0.6-1,1c-0.2,0.4-0.4,0.9-0.4,1.4c0,0.5,0.1,1,0.4,1.4c0.2,0.4,0.6,0.8,1,1
		c0.4,0.2,0.9,0.4,1.5,0.4c0.8,0,1.5-0.3,2.1-0.9l1,0.9c-0.4,0.4-0.8,0.8-1.4,1c-0.5,0.2-1.1,0.3-1.8,0.3
		C50.7,135.5,50,135.3,49.4,135z"/>
	<path fill="#231F20" d="M63.3,128.7h-2.6v6.7h-1.5v-6.7h-2.6v-1.2h6.7V128.7z"/>
	<path fill="#231F20" d="M66.2,127.5h1.5v5.6l4.3-5.6h1.4v7.9h-1.5v-5.6l-4.3,5.6h-1.4V127.5z"/>
	<path fill="#231F20" d="M83.5,132c0.3,0.3,0.4,0.7,0.4,1.2c0,0.7-0.3,1.2-0.8,1.6s-1.3,0.6-2.2,0.6h-3.8v-7.9h3.5
		c0.9,0,1.6,0.2,2.1,0.5c0.5,0.4,0.7,0.9,0.7,1.5c0,0.4-0.1,0.8-0.3,1.1c-0.2,0.3-0.5,0.5-0.9,0.7C82.8,131.4,83.2,131.6,83.5,132z
		 M78.5,130.9h2c0.5,0,0.8-0.1,1.1-0.3c0.3-0.2,0.4-0.5,0.4-0.8c0-0.4-0.1-0.7-0.4-0.8c-0.2-0.2-0.6-0.3-1.1-0.3h-2V130.9z
		 M82.4,133.1c0-0.8-0.5-1.2-1.6-1.2h-2.3v2.3h2.3C81.8,134.3,82.4,133.9,82.4,133.1z"/>
	<path fill="#231F20" d="M92.4,133.6h-4l-0.8,1.8h-1.5l3.6-7.9h1.5l3.6,7.9h-1.5L92.4,133.6z M91.9,132.4l-1.5-3.5l-1.5,3.5H91.9z"
		/>
	<path fill="#231F20" d="M104.3,127.5v7.9h-1.5v-6.7h-3.1l-0.1,2c0,1.1-0.1,2-0.3,2.7c-0.1,0.7-0.4,1.2-0.7,1.6
		c-0.3,0.4-0.8,0.5-1.3,0.5c-0.2,0-0.5,0-0.8-0.1l0.1-1.3c0.1,0,0.2,0,0.3,0c0.5,0,0.8-0.3,1-0.8c0.2-0.5,0.3-1.4,0.4-2.6l0.1-3.3
		H104.3z"/>
	<path fill="#231F20" d="M114,130.8c0.5,0.4,0.8,1.1,0.8,1.9c0,0.9-0.3,1.5-0.8,2c-0.6,0.5-1.3,0.7-2.4,0.7h-3.4v-7.9h1.5v2.7h2.2
		C112.8,130.2,113.5,130.4,114,130.8z M112.8,133.9c0.3-0.3,0.5-0.6,0.5-1.2c0-1-0.6-1.4-1.8-1.4h-1.9v3h1.9
		C112.1,134.3,112.5,134.1,112.8,133.9z"/>
	<path fill="#231F20" d="M4.3,147.7c-0.6-0.4-1.2-0.8-1.5-1.5c-0.4-0.6-0.6-1.3-0.6-2.1s0.2-1.5,0.6-2.1c0.4-0.6,0.9-1.1,1.5-1.5
		c0.6-0.4,1.4-0.5,2.2-0.5c0.7,0,1.2,0.1,1.8,0.3c0.5,0.2,1,0.6,1.4,1l-1,0.9c-0.6-0.6-1.3-0.9-2.1-0.9c-0.5,0-1,0.1-1.5,0.4
		c-0.4,0.2-0.8,0.6-1,1c-0.2,0.4-0.4,0.9-0.4,1.4c0,0.5,0.1,1,0.4,1.4c0.2,0.4,0.6,0.8,1,1c0.4,0.2,0.9,0.4,1.5,0.4
		c0.8,0,1.5-0.3,2.1-0.9l1,0.9c-0.4,0.4-0.8,0.8-1.4,1c-0.5,0.2-1.1,0.3-1.8,0.3C5.6,148.3,4.9,148.1,4.3,147.7z"/>
	<path fill="#231F20" d="M13.9,147.7c-0.7-0.4-1.2-0.8-1.5-1.5c-0.4-0.6-0.6-1.3-0.6-2.1s0.2-1.5,0.6-2.1c0.4-0.6,0.9-1.1,1.5-1.5
		c0.7-0.4,1.4-0.5,2.2-0.5s1.5,0.2,2.2,0.5c0.7,0.4,1.2,0.8,1.5,1.5c0.4,0.6,0.6,1.3,0.6,2.1s-0.2,1.5-0.6,2.1
		c-0.4,0.6-0.9,1.1-1.5,1.5s-1.4,0.5-2.2,0.5S14.5,148.1,13.9,147.7z M17.5,146.6c0.4-0.2,0.8-0.6,1-1c0.2-0.4,0.4-0.9,0.4-1.4
		c0-0.5-0.1-1-0.4-1.4c-0.2-0.4-0.6-0.8-1-1c-0.4-0.2-0.9-0.4-1.4-0.4c-0.5,0-1,0.1-1.4,0.4c-0.4,0.2-0.8,0.6-1,1
		c-0.2,0.4-0.4,0.9-0.4,1.4c0,0.5,0.1,1,0.4,1.4c0.2,0.4,0.6,0.8,1,1s0.9,0.4,1.4,0.4C16.6,147,17.1,146.9,17.5,146.6z"/>
	<path fill="#231F20" d="M29.9,144.7c0.3,0.3,0.4,0.7,0.4,1.2c0,0.7-0.3,1.2-0.8,1.6c-0.5,0.4-1.3,0.6-2.2,0.6h-3.8v-7.9h3.5
		c0.9,0,1.6,0.2,2.1,0.5c0.5,0.4,0.8,0.9,0.8,1.5c0,0.4-0.1,0.8-0.3,1.1c-0.2,0.3-0.5,0.5-0.9,0.7C29.3,144.2,29.7,144.4,29.9,144.7
		z M25,143.6h2c0.5,0,0.8-0.1,1.1-0.3s0.4-0.5,0.4-0.8c0-0.4-0.1-0.7-0.4-0.8c-0.2-0.2-0.6-0.3-1.1-0.3h-2V143.6z M28.8,145.8
		c0-0.8-0.5-1.2-1.6-1.2H25v2.3h2.3C28.3,147,28.8,146.6,28.8,145.8z"/>
	<path fill="#231F20" d="M38.7,140.6c0.5,0.2,0.9,0.6,1.2,1c0.3,0.4,0.4,0.9,0.4,1.5c0,0.6-0.1,1.1-0.4,1.5c-0.3,0.4-0.7,0.8-1.2,1
		c-0.5,0.2-1.1,0.3-1.8,0.3h-1.8v2.3h-1.5v-7.9h3.3C37.5,140.2,38.1,140.3,38.7,140.6z M38.3,144.2c0.3-0.3,0.5-0.7,0.5-1.2
		c0-0.5-0.2-0.9-0.5-1.2c-0.3-0.3-0.8-0.4-1.5-0.4h-1.7v3.2h1.7C37.4,144.6,37.9,144.5,38.3,144.2z"/>
	<path fill="#231F20" d="M49.2,146.9v1.2h-6v-7.9H49v1.2h-4.3v2.1h3.8v1.2h-3.8v2.2H49.2z"/>
	<path fill="#231F20" d="M59.7,148.2l0-5.3l-2.6,4.4h-0.7l-2.6-4.3v5.2h-1.4v-7.9h1.2l3.1,5.2l3.1-5.2h1.2l0,7.9H59.7z"/>
	<path fill="#231F20" d="M70.9,146.9v1.2h-6v-7.9h5.8v1.2h-4.3v2.1h3.8v1.2h-3.8v2.2H70.9z"/>
	<path fill="#231F20" d="M81.1,140.2v7.9h-1.5v-3.4h-4.1v3.4h-1.5v-7.9h1.5v3.3h4.1v-3.3H81.1z"/>
	<path fill="#231F20" d="M92,140.2v7.9h-1.5v-3.4h-4.1v3.4H85v-7.9h1.5v3.3h4.1v-3.3H92z"/>
	<path fill="#231F20" d="M97.3,147.7c-0.7-0.4-1.2-0.8-1.5-1.5c-0.4-0.6-0.6-1.3-0.6-2.1s0.2-1.5,0.6-2.1c0.4-0.6,0.9-1.1,1.5-1.5
		c0.7-0.4,1.4-0.5,2.2-0.5c0.8,0,1.5,0.2,2.2,0.5c0.7,0.4,1.2,0.8,1.5,1.5c0.4,0.6,0.6,1.3,0.6,2.1s-0.2,1.5-0.6,2.1
		c-0.4,0.6-0.9,1.1-1.5,1.5c-0.7,0.4-1.4,0.5-2.2,0.5C98.7,148.3,97.9,148.1,97.3,147.7z M100.9,146.6c0.4-0.2,0.8-0.6,1-1
		c0.2-0.4,0.4-0.9,0.4-1.4c0-0.5-0.1-1-0.4-1.4c-0.2-0.4-0.6-0.8-1-1c-0.4-0.2-0.9-0.4-1.4-0.4s-1,0.1-1.4,0.4c-0.4,0.2-0.8,0.6-1,1
		c-0.2,0.4-0.4,0.9-0.4,1.4c0,0.5,0.1,1,0.4,1.4c0.2,0.4,0.6,0.8,1,1s0.9,0.4,1.4,0.4S100.5,146.9,100.9,146.6z"/>
	<path fill="#231F20" d="M107,140.2h1.5v5.6l4.3-5.6h1.4v7.9h-1.5v-5.6l-4.3,5.6H107V140.2z M109,139.3c-0.3-0.3-0.5-0.7-0.5-1.2h1
		c0,0.3,0.1,0.5,0.3,0.6c0.2,0.2,0.4,0.2,0.8,0.2c0.3,0,0.6-0.1,0.8-0.2c0.2-0.2,0.3-0.4,0.3-0.6h1c0,0.5-0.2,0.9-0.5,1.2
		c-0.4,0.3-0.9,0.4-1.5,0.4C109.8,139.7,109.3,139.6,109,139.3z"/>
	<path fill="#231F20" d="M42,157.6h-1.5v3.3h-1.5V153h1.5v3.3h1.5l2.3-3.3h1.6l-2.7,3.8l2.8,4.1h-1.7L42,157.6z"/>
	<path fill="#231F20" d="M55.5,153l-3.4,6.4c-0.3,0.6-0.7,1-1.1,1.3c-0.4,0.3-0.9,0.4-1.4,0.4c-0.4,0-0.8-0.1-1.2-0.2l0.4-1.2
		c0.3,0.1,0.6,0.1,0.8,0.1c0.5,0,0.9-0.2,1.2-0.7l0.1-0.2l-3.2-5.9h1.6l2.3,4.7l2.4-4.7H55.5z"/>
	<path fill="#231F20" d="M64.8,153v7.9h-1.5v-6.7h-3.1l-0.1,2c0,1.1-0.1,2-0.3,2.7c-0.1,0.7-0.4,1.2-0.7,1.6
		c-0.3,0.4-0.8,0.5-1.3,0.5c-0.2,0-0.5,0-0.8-0.1l0.1-1.3c0.1,0,0.2,0,0.3,0c0.5,0,0.8-0.3,1-0.8c0.2-0.5,0.3-1.4,0.4-2.6l0.1-3.3
		H64.8z"/>
	<path fill="#231F20" d="M74.5,156.3c0.5,0.4,0.8,1.1,0.8,1.9c0,0.9-0.3,1.5-0.8,2c-0.6,0.5-1.3,0.7-2.4,0.7h-3.4V153h1.5v2.7h2.2
		C73.2,155.7,73.9,155.9,74.5,156.3z M73.3,159.4c0.3-0.3,0.5-0.6,0.5-1.2c0-1-0.6-1.4-1.8-1.4h-1.9v3H72
		C72.5,159.8,73,159.7,73.3,159.4z"/>
	<path fill="#231F20" d="M83.3,154.2h-2.6v6.7h-1.5v-6.7h-2.6V153h6.7V154.2z"/>
	<path fill="#231F20" d="M92.6,153l-3.4,6.4c-0.3,0.6-0.7,1-1.1,1.3c-0.4,0.3-0.9,0.4-1.4,0.4c-0.4,0-0.8-0.1-1.2-0.2l0.4-1.2
		c0.3,0.1,0.6,0.1,0.8,0.1c0.5,0,0.9-0.2,1.2-0.7l0.1-0.2l-3.2-5.9h1.6l2.3,4.7l2.4-4.7H92.6z"/>
	<path fill="#231F20" d="M100.3,153.3c0.5,0.2,0.9,0.6,1.2,1c0.3,0.4,0.4,0.9,0.4,1.5c0,0.6-0.1,1.1-0.4,1.5c-0.3,0.4-0.7,0.8-1.2,1
		c-0.5,0.2-1.1,0.3-1.8,0.3h-1.8v2.3h-1.5V153h3.3C99.2,153,99.8,153.1,100.3,153.3z M99.9,157c0.3-0.3,0.5-0.7,0.5-1.2
		c0-0.5-0.2-0.9-0.5-1.2c-0.3-0.3-0.8-0.4-1.5-0.4h-1.7v3.2h1.7C99.1,157.4,99.6,157.2,99.9,157z"/>
	<path fill="#231F20" d="M110.7,156.3c0.5,0.4,0.8,1.1,0.8,1.9c0,0.9-0.3,1.5-0.8,2c-0.6,0.5-1.3,0.7-2.4,0.7h-3.4V153h1.5v2.7h2.2
		C109.5,155.7,110.2,155.9,110.7,156.3z M109.5,159.4c0.3-0.3,0.5-0.6,0.5-1.2c0-1-0.6-1.4-1.8-1.4h-1.9v3h1.9
		C108.8,159.8,109.2,159.7,109.5,159.4z M112.6,153h1.5v7.9h-1.5V153z"/>
</g>
<g>
	<g>
		<rect x="3.3" y="7.5" fill="none" width="35.2" height="90"/>
		<path d="M1.9,6.1v92.8h37.9V6.1H1.9z M3.3,97.5v-90h35.2v90H3.3z"/>
	</g>
	<circle cx="350.1" cy="52.3" r="47"/>
	<rect x="157.9" y="6" fill="#FFFFFF" width="38" height="92.9"/>
	<g>
		<rect x="104.2" y="7.5" fill="none" width="35.2" height="90"/>
		<path d="M102.8,6.1v92.8h37.9V6.1H102.8z M104.2,97.5v-90h35.2v90H104.2z"/>
	</g>
	<g>
		<rect x="204.9" y="7.5" fill="none" width="35.2" height="90"/>
		<path d="M203.5,6.1v92.8h37.9V6.1H203.5z M204.9,97.5v-90h35.2v90H204.9z"/>
	</g>
	<g>
		<rect x="259.9" y="7.5" fill="none" width="35.2" height="90"/>
		<path d="M258.5,6.1v92.8h37.9V6.1H258.5z M259.9,97.5v-90H295v90H259.9z"/>
	</g>
	<g>
		<path d="M256.3,107.8c-8.2,0-15.3,2.9-21.1,8.7c-5.8,5.8-8.7,12.9-8.7,21.1c0,8.2,2.9,15.3,8.7,21c5.8,5.8,12.9,8.7,21.1,8.7
			c8.2,0,15.3-2.9,21.1-8.7c5.8-5.8,8.7-12.9,8.7-21c0-8.2-2.9-15.3-8.7-21.1C271.6,110.7,264.5,107.8,256.3,107.8z M272.7,154
			c-4.6,4.6-9.9,6.8-16.4,6.8c-6.5,0-11.8-2.2-16.4-6.8c-4.6-4.6-6.8-9.9-6.8-16.4c0-6.5,2.2-11.8,6.8-16.4c4.6-4.6,10-6.8,16.4-6.8
			c6.5,0,11.8,2.2,16.4,6.8c4.6,4.6,6.8,10,6.8,16.4C279.5,144,277.3,149.4,272.7,154z"/>
		<path d="M368.7,127.4h-20.1v-13.5h-6.6v26.6h6.6v-6.5h20.1c2.8,0,5.2,1,7.2,3c2,2,3,4.4,3,7.2c0,2.9-1,5.2-3,7.2c-2,2-4.4,3-7.2,3
			h-26.6v6.6h26.6c4.6,0,8.6-1.7,11.9-4.9c3.3-3.3,4.9-7.3,4.9-11.9c0-4.6-1.7-8.6-4.9-11.9C377.3,129,373.3,127.4,368.7,127.4z"/>
		<path d="M319.1,127.4h-20.1v-13.5h-6.6v26.5h6.6v-6.5h20.1c2.8,0,5.2,1,7.2,3c2,2,3,4.4,3,7.2c0,2.9-1,5.2-3,7.2c-2,2-4.4,3-7.2,3
			h-26.6v6.6h26.6c4.6,0,8.6-1.7,11.9-4.9c3.3-3.3,4.9-7.3,4.9-11.9c0-4.6-1.7-8.6-4.9-11.9C327.8,129,323.8,127.4,319.1,127.4z"/>
		<rect x="306" y="114" width="22" height="6.6"/>
		<rect x="391.7" y="113.8" width="6.6" height="47"/>
		<rect x="132.1" y="114.2" width="6.6" height="46.8"/>
		<polygon points="164.1,114.2 145.6,114.2 145.6,120.8 164.1,120.8 164.1,161 170.7,161 170.7,114.2 164.1,114.2 		"/>
	</g>
	<g>
		
			<path fill="none" stroke="#000000" stroke-width="4.6346" stroke-linecap="square" stroke-linejoin="round" stroke-miterlimit="10" d="
			M180.9,117.3"/>
		<path d="M216.1,119c-3.3-3.3-7.3-4.9-11.9-4.9h-26.6v6.6h26.6c2.9,0,5.2,1,7.2,3c2,2,3,4.4,3,7.2c0,2.9-1,5.2-3,7.2
			c-2,2-4.4,3-7.2,3h-20.1v-6.6h-6.6v6.6v6.6V161h6.6v-13.3h20.1c4.6,0,8.6-1.7,11.9-4.9c3.3-3.3,4.9-7.3,4.9-11.9
			C221,126.2,219.4,122.2,216.1,119z"/>
		
			<path fill="none" stroke="#000000" stroke-width="4.6346" stroke-linecap="square" stroke-linejoin="round" stroke-miterlimit="10" d="
			M180.9,117.3"/>
	</g>
	<path d="M151.3,0.6C142.9,31.1,134.4,61.6,126,92h6.6c8.4-30.5,16.9-60.9,25.3-91.4H151.3z"/>
	<rect x="223.8" y="41.9" width="41.9" height="6.6"/>
	<rect x="2.5" y="114.2" fill="#9959A3" width="112.3" height="6.6"/>
	<path fill="none" d="M81.6,56.5h-35l2.7,9.6c3.8,13.7,7.3,26.3,8.5,30.5l0.2,0.8h35L81.6,56.5z"/>
	<path d="M94.9,6H56.9l-0.5,1.9c-1.2,4.2-4.7,16.7-8.5,30.5l-3,10.8h38.1L94.9,6z"/>
	<g>
		<path fill="none" d="M81.8,57.2h-35l2.5,8.9c3.8,13.7,7.3,26.3,8.5,30.5l0.2,0.8h35L81.8,57.2z"/>
		<path d="M82.9,55.7c-12.7,0-25.4,0-38.1,0c4,14.4,8,28.8,12,43.1h38.1C90.9,84.5,86.9,70.1,82.9,55.7z M57.8,96.6
			c-1.2-4.2-4.7-16.7-8.5-30.5l-2.5-8.9h35L93,97.4H58L57.8,96.6z"/>
	</g>
</g>
</svg>
