<?xml version="1.0" encoding="utf-8"?>
<!-- Generator: Adobe Illustrator 19.2.0, SVG Export Plug-In . SVG Version: 6.00 Build 0)  -->
<svg version="1.1" id="Layer_1" xmlns="http://www.w3.org/2000/svg" xmlns:xlink="http://www.w3.org/1999/xlink" x="0px" y="0px"
	 viewBox="0 0 282.9 98.4" enable-background="new 0 0 282.9 98.4" xml:space="preserve">
<g>
	<path fill="#FFFFFF" d="M27.1,0.7C18.2,33,9.2,65.2,0.3,97.5h6.9C16.2,65.2,25.1,33,34.1,0.7H27.1z"/>
	<g>
		<path fill="#231F20" d="M70.7,43.6h-5.2l-1,2.4h-2l4.6-10.3H69L73.7,46h-2L70.7,43.6z M70,42.1l-1.9-4.5l-1.9,4.5H70z"/>
		<path fill="#231F20" d="M83.1,36.2c0.8,0.5,1.4,1.1,1.9,1.9c0.5,0.8,0.7,1.7,0.7,2.7s-0.2,1.9-0.7,2.7c-0.5,0.8-1.1,1.4-1.9,1.9
			c-0.8,0.5-1.7,0.7-2.7,0.7c-0.9,0-1.7-0.1-2.4-0.4c-0.7-0.3-1.3-0.7-1.8-1.3l1.2-1.2c0.8,0.8,1.7,1.2,2.8,1.2
			c0.9,0,1.6-0.3,2.2-0.8c0.6-0.5,1-1.3,1.1-2.1h-4.6V40h4.6c-0.2-0.8-0.6-1.5-1.2-2c-0.6-0.5-1.3-0.8-2.2-0.8
			c-1.1,0-2.1,0.4-2.8,1.2l-1.2-1.2c0.5-0.6,1.1-1,1.8-1.3c0.7-0.3,1.5-0.4,2.4-0.4C81.4,35.5,82.3,35.8,83.1,36.2z"/>
		<path fill="#231F20" d="M96.4,36.1c0.7,0.3,1.2,0.7,1.5,1.3c0.4,0.5,0.5,1.2,0.5,2c0,0.7-0.2,1.4-0.5,1.9c-0.4,0.6-0.9,1-1.5,1.3
			C95.8,42.9,95,43,94.1,43h-2.3v3h-1.9V35.7h4.2C95,35.7,95.8,35.8,96.4,36.1z M95.9,40.9c0.4-0.4,0.6-0.9,0.6-1.5
			c0-0.7-0.2-1.2-0.6-1.5c-0.4-0.4-1.1-0.5-1.9-0.5h-2.2v4.1H94C94.8,41.4,95.5,41.2,95.9,40.9z"/>
		<path fill="#231F20" d="M104.4,45.4c-0.8-0.5-1.5-1.1-2-1.9c-0.5-0.8-0.7-1.7-0.7-2.7c0-1,0.2-1.9,0.7-2.7c0.5-0.8,1.1-1.4,2-1.9
			c0.8-0.5,1.8-0.7,2.8-0.7s2,0.2,2.8,0.7c0.8,0.5,1.5,1.1,2,1.9c0.5,0.8,0.7,1.7,0.7,2.7s-0.2,1.9-0.7,2.7c-0.5,0.8-1.1,1.4-2,1.9
			c-0.8,0.5-1.8,0.7-2.8,0.7S105.3,45.9,104.4,45.4z M109.1,44c0.5-0.3,1-0.7,1.3-1.3c0.3-0.6,0.5-1.2,0.5-1.9
			c0-0.7-0.2-1.3-0.5-1.9c-0.3-0.6-0.7-1-1.3-1.3c-0.5-0.3-1.2-0.5-1.9-0.5c-0.7,0-1.3,0.2-1.9,0.5c-0.5,0.3-1,0.7-1.3,1.3
			c-0.3,0.6-0.5,1.2-0.5,1.9c0,0.7,0.2,1.3,0.5,1.9c0.3,0.6,0.7,1,1.3,1.3s1.2,0.5,1.9,0.5C107.9,44.4,108.6,44.3,109.1,44z"/>
		<path fill="#231F20" d="M126.9,44.4v3.8h-1.8V46h-7.9v2.2h-1.8l0-3.8h0.4c0.6,0,1.1-0.5,1.4-1.4c0.3-0.9,0.4-2.3,0.5-4l0.1-3.3
			h7.6v8.7H126.9z M119.1,42.5c-0.2,0.9-0.4,1.5-0.8,1.9h5.2v-7.1h-4l-0.1,1.8C119.4,40.5,119.3,41.6,119.1,42.5z"/>
		<path fill="#231F20" d="M137.3,36.1c0.7,0.3,1.2,0.7,1.5,1.3c0.4,0.5,0.5,1.2,0.5,2c0,0.7-0.2,1.4-0.5,1.9c-0.4,0.6-0.9,1-1.5,1.3
			c-0.7,0.3-1.4,0.4-2.3,0.4h-2.3v3h-1.9V35.7h4.2C135.9,35.7,136.7,35.8,137.3,36.1z M136.8,40.9c0.4-0.4,0.6-0.9,0.6-1.5
			c0-0.7-0.2-1.2-0.6-1.5c-0.4-0.4-1.1-0.5-1.9-0.5h-2.2v4.1h2.2C135.7,41.4,136.4,41.2,136.8,40.9z"/>
		<path fill="#231F20" d="M145.3,45.4c-0.8-0.5-1.5-1.1-2-1.9c-0.5-0.8-0.7-1.7-0.7-2.7c0-1,0.2-1.9,0.7-2.7c0.5-0.8,1.1-1.4,2-1.9
			c0.8-0.5,1.8-0.7,2.8-0.7s2,0.2,2.8,0.7c0.8,0.5,1.5,1.1,2,1.9c0.5,0.8,0.7,1.7,0.7,2.7s-0.2,1.9-0.7,2.7c-0.5,0.8-1.1,1.4-2,1.9
			c-0.8,0.5-1.8,0.7-2.8,0.7S146.2,45.9,145.3,45.4z M150,44c0.5-0.3,1-0.7,1.3-1.3c0.3-0.6,0.5-1.2,0.5-1.9c0-0.7-0.2-1.3-0.5-1.9
			c-0.3-0.6-0.7-1-1.3-1.3c-0.5-0.3-1.2-0.5-1.9-0.5s-1.3,0.2-1.9,0.5c-0.5,0.3-1,0.7-1.3,1.3c-0.3,0.6-0.5,1.2-0.5,1.9
			c0,0.7,0.2,1.3,0.5,1.9c0.3,0.6,0.7,1,1.3,1.3s1.2,0.5,1.9,0.5S149.5,44.3,150,44z"/>
		<path fill="#231F20" d="M167.4,46l0-6.8l-3.4,5.7h-0.9l-3.4-5.6V46h-1.8V35.7h1.6l4.1,6.8l4-6.8h1.6l0,10.3H167.4z"/>
		<path fill="#231F20" d="M182.2,45.4c-0.8-0.5-1.5-1.1-2-1.9c-0.5-0.8-0.7-1.7-0.7-2.7c0-1,0.2-1.9,0.7-2.7c0.5-0.8,1.1-1.4,2-1.9
			c0.8-0.5,1.8-0.7,2.8-0.7c1,0,2,0.2,2.8,0.7c0.8,0.5,1.5,1.1,2,1.9c0.5,0.8,0.7,1.7,0.7,2.7s-0.2,1.9-0.7,2.7
			c-0.5,0.8-1.1,1.4-2,1.9c-0.8,0.5-1.8,0.7-2.8,0.7C184,46.1,183,45.9,182.2,45.4z M186.9,44c0.5-0.3,1-0.7,1.3-1.3
			c0.3-0.6,0.5-1.2,0.5-1.9c0-0.7-0.2-1.3-0.5-1.9c-0.3-0.6-0.7-1-1.3-1.3c-0.5-0.3-1.2-0.5-1.9-0.5c-0.7,0-1.3,0.2-1.9,0.5
			c-0.5,0.3-1,0.7-1.3,1.3c-0.3,0.6-0.5,1.2-0.5,1.9c0,0.7,0.2,1.3,0.5,1.9c0.3,0.6,0.7,1,1.3,1.3s1.2,0.5,1.9,0.5
			C185.7,44.4,186.3,44.3,186.9,44z"/>
		<path fill="#231F20" d="M198.5,41.6h-1.9V46h-1.9V35.7h1.9V40h2l3-4.3h2l-3.5,5l3.7,5.3h-2.2L198.5,41.6z"/>
		<path fill="#231F20" d="M216.1,35.7l-4.5,8.3c-0.4,0.7-0.9,1.3-1.4,1.7c-0.5,0.4-1.1,0.6-1.8,0.6c-0.5,0-1-0.1-1.5-0.3l0.5-1.5
			c0.4,0.1,0.7,0.2,1,0.2c0.6,0,1.1-0.3,1.5-1l0.2-0.3l-4.1-7.7h2l3,6l3.1-6H216.1z"/>
		<path fill="#231F20" d="M228.1,35.7V46h-1.9v-8.7h-4.1l-0.1,2.6c0,1.4-0.2,2.6-0.4,3.5c-0.2,0.9-0.5,1.6-0.9,2
			c-0.4,0.5-1,0.7-1.7,0.7c-0.3,0-0.6,0-1-0.1l0.1-1.7c0.1,0,0.3,0.1,0.4,0.1c0.6,0,1-0.4,1.3-1.1s0.4-1.8,0.5-3.4l0.1-4.3H228.1z"
			/>
		<path fill="#231F20" d="M235,45.4c-0.8-0.5-1.5-1.1-2-1.9c-0.5-0.8-0.7-1.7-0.7-2.7c0-1,0.2-1.9,0.7-2.7c0.5-0.8,1.1-1.4,2-1.9
			c0.8-0.5,1.8-0.7,2.8-0.7s2,0.2,2.8,0.7c0.8,0.5,1.5,1.1,2,1.9c0.5,0.8,0.7,1.7,0.7,2.7s-0.2,1.9-0.7,2.7c-0.5,0.8-1.1,1.4-2,1.9
			c-0.8,0.5-1.8,0.7-2.8,0.7S235.8,45.9,235,45.4z M239.7,44c0.5-0.3,1-0.7,1.3-1.3c0.3-0.6,0.5-1.2,0.5-1.9c0-0.7-0.2-1.3-0.5-1.9
			c-0.3-0.6-0.7-1-1.3-1.3c-0.5-0.3-1.2-0.5-1.9-0.5c-0.7,0-1.3,0.2-1.9,0.5c-0.5,0.3-1,0.7-1.3,1.3c-0.3,0.6-0.5,1.2-0.5,1.9
			c0,0.7,0.2,1.3,0.5,1.9c0.3,0.6,0.7,1,1.3,1.3s1.2,0.5,1.9,0.5C238.5,44.4,239.1,44.3,239.7,44z"/>
		<path fill="#231F20" d="M255.8,41.5c0.3,0.4,0.5,1,0.5,1.6c0,0.9-0.3,1.6-1,2.1c-0.7,0.5-1.6,0.8-2.9,0.8h-4.9V35.7h4.6
			c1.2,0,2.1,0.2,2.7,0.7c0.6,0.5,1,1.1,1,2c0,0.5-0.1,1-0.4,1.4c-0.3,0.4-0.6,0.7-1.1,0.9C255,40.8,255.5,41.1,255.8,41.5z
			 M249.5,40.1h2.6c0.6,0,1.1-0.1,1.4-0.4c0.3-0.2,0.5-0.6,0.5-1.1c0-0.5-0.2-0.8-0.5-1.1c-0.3-0.3-0.8-0.4-1.4-0.4h-2.6V40.1z
			 M254.4,43c0-1-0.7-1.5-2-1.5h-2.9v3h2.9C253.8,44.5,254.4,44,254.4,43z"/>
		<path fill="#231F20" d="M264.4,41.6h-1.9V46h-1.9V35.7h1.9V40h2l3-4.3h2l-3.5,5l3.7,5.3h-2.2L264.4,41.6z"/>
		<path fill="#231F20" d="M279.6,43.6h-5.2l-1,2.4h-2l4.6-10.3h1.9l4.6,10.3h-2L279.6,43.6z M279,42.1l-1.9-4.5l-1.9,4.5H279z"/>
		<path fill="#9959A3" d="M41.5,54.1v10.3h-1.9V60h-5.3v4.4h-1.9V54.1h1.9v4.3h5.3v-4.3H41.5z"/>
		<path fill="#9959A3" d="M48.4,63.8c-0.8-0.5-1.5-1.1-2-1.9c-0.5-0.8-0.7-1.7-0.7-2.7c0-1,0.2-1.9,0.7-2.7c0.5-0.8,1.1-1.4,2-1.9
			c0.8-0.5,1.8-0.7,2.8-0.7c1,0,2,0.2,2.8,0.7c0.8,0.5,1.5,1.1,2,1.9c0.5,0.8,0.7,1.7,0.7,2.7s-0.2,1.9-0.7,2.7
			c-0.5,0.8-1.1,1.4-2,1.9s-1.8,0.7-2.8,0.7C50.2,64.5,49.2,64.3,48.4,63.8z M53.1,62.4c0.5-0.3,1-0.7,1.3-1.3
			c0.3-0.6,0.5-1.2,0.5-1.9c0-0.7-0.2-1.3-0.5-1.9c-0.3-0.6-0.7-1-1.3-1.3c-0.5-0.3-1.2-0.5-1.9-0.5s-1.3,0.2-1.9,0.5
			c-0.5,0.3-1,0.7-1.3,1.3c-0.3,0.6-0.5,1.2-0.5,1.9c0,0.7,0.2,1.3,0.5,1.9c0.3,0.6,0.7,1,1.3,1.3c0.5,0.3,1.2,0.5,1.9,0.5
			S52.5,62.7,53.1,62.4z"/>
		<path fill="#9959A3" d="M69.3,59.9c0.3,0.4,0.5,1,0.5,1.6c0,0.9-0.3,1.6-1,2.1c-0.7,0.5-1.6,0.8-2.9,0.8H61V54.1h4.6
			c1.2,0,2.1,0.2,2.7,0.7c0.6,0.5,1,1.1,1,2c0,0.5-0.1,1-0.4,1.4c-0.3,0.4-0.6,0.7-1.1,0.9C68.4,59.2,68.9,59.5,69.3,59.9z
			 M62.9,58.5h2.6c0.6,0,1.1-0.1,1.4-0.4c0.3-0.2,0.5-0.6,0.5-1.1c0-0.5-0.2-0.8-0.5-1.1c-0.3-0.3-0.8-0.4-1.4-0.4h-2.6V58.5z
			 M67.8,61.4c0-1-0.7-1.5-2-1.5h-2.9v3h2.9C67.2,62.9,67.8,62.4,67.8,61.4z"/>
		<path fill="#9959A3" d="M81,55.7h-5.1l0,8.7H74V54.1h7L81,55.7z"/>
		<path fill="#9959A3" d="M85.4,63.8c-0.8-0.5-1.5-1.1-2-1.9c-0.5-0.8-0.7-1.7-0.7-2.7c0-1,0.2-1.9,0.7-2.7c0.5-0.8,1.1-1.4,2-1.9
			c0.8-0.5,1.8-0.7,2.8-0.7s2,0.2,2.8,0.7c0.8,0.5,1.5,1.1,2,1.9c0.5,0.8,0.7,1.7,0.7,2.7s-0.2,1.9-0.7,2.7c-0.5,0.8-1.1,1.4-2,1.9
			s-1.8,0.7-2.8,0.7S86.3,64.3,85.4,63.8z M90.1,62.4c0.5-0.3,1-0.7,1.3-1.3c0.3-0.6,0.5-1.2,0.5-1.9c0-0.7-0.2-1.3-0.5-1.9
			c-0.3-0.6-0.7-1-1.3-1.3c-0.5-0.3-1.2-0.5-1.9-0.5c-0.7,0-1.3,0.2-1.9,0.5c-0.5,0.3-1,0.7-1.3,1.3c-0.3,0.6-0.5,1.2-0.5,1.9
			c0,0.7,0.2,1.3,0.5,1.9c0.3,0.6,0.7,1,1.3,1.3s1.2,0.5,1.9,0.5C89,62.8,89.6,62.7,90.1,62.4z"/>
		<path fill="#9959A3" d="M104.6,54.5c0.7,0.3,1.2,0.7,1.5,1.3c0.4,0.5,0.5,1.2,0.5,2c0,0.7-0.2,1.4-0.5,1.9c-0.4,0.6-0.9,1-1.5,1.3
			c-0.7,0.3-1.4,0.4-2.3,0.4h-2.3v3H98V54.1h4.2C103.1,54.1,103.9,54.2,104.6,54.5z M104,59.3c0.4-0.4,0.6-0.9,0.6-1.5
			c0-0.7-0.2-1.2-0.6-1.5c-0.4-0.4-1.1-0.5-1.9-0.5h-2.2v4.1h2.2C103,59.8,103.6,59.6,104,59.3z"/>
		<path fill="#9959A3" d="M112.6,63.8c-0.8-0.5-1.5-1.1-2-1.9c-0.5-0.8-0.7-1.7-0.7-2.7c0-1,0.2-1.9,0.7-2.7c0.5-0.8,1.1-1.4,2-1.9
			c0.8-0.5,1.8-0.7,2.8-0.7s2,0.2,2.8,0.7c0.8,0.5,1.5,1.1,2,1.9c0.5,0.8,0.7,1.7,0.7,2.7s-0.2,1.9-0.7,2.7c-0.5,0.8-1.1,1.4-2,1.9
			s-1.8,0.7-2.8,0.7S113.4,64.3,112.6,63.8z M117.3,62.4c0.5-0.3,1-0.7,1.3-1.3c0.3-0.6,0.5-1.2,0.5-1.9c0-0.7-0.2-1.3-0.5-1.9
			c-0.3-0.6-0.7-1-1.3-1.3c-0.5-0.3-1.2-0.5-1.9-0.5s-1.3,0.2-1.9,0.5c-0.5,0.3-1,0.7-1.3,1.3c-0.3,0.6-0.5,1.2-0.5,1.9
			c0,0.7,0.2,1.3,0.5,1.9c0.3,0.6,0.7,1,1.3,1.3s1.2,0.5,1.9,0.5S116.7,62.7,117.3,62.4z"/>
		<path fill="#9959A3" d="M135.1,62.8v3.8h-1.8v-2.2h-7.9v2.2h-1.8l0-3.8h0.4c0.6,0,1.1-0.5,1.4-1.4c0.3-0.9,0.4-2.3,0.5-4l0.1-3.3
			h7.6v8.7H135.1z M127.3,60.9c-0.2,0.9-0.4,1.5-0.8,1.9h5.2v-7.1h-4l-0.1,1.8C127.5,58.9,127.4,60,127.3,60.9z"/>
		<path fill="#9959A3" d="M140.8,63.8c-0.8-0.5-1.5-1.1-2-1.9c-0.5-0.8-0.7-1.7-0.7-2.7s0.2-1.9,0.7-2.7c0.5-0.8,1.1-1.4,2-1.9
			c0.8-0.5,1.8-0.7,2.8-0.7c0.8,0,1.6,0.1,2.3,0.4c0.7,0.3,1.3,0.7,1.8,1.3l-1.2,1.2c-0.7-0.8-1.7-1.2-2.8-1.2
			c-0.7,0-1.3,0.2-1.9,0.5c-0.6,0.3-1,0.7-1.3,1.3c-0.3,0.5-0.5,1.2-0.5,1.9c0,0.7,0.2,1.3,0.5,1.9c0.3,0.5,0.8,1,1.3,1.3
			c0.6,0.3,1.2,0.5,1.9,0.5c1.1,0,2-0.4,2.8-1.2l1.2,1.2c-0.5,0.6-1.1,1-1.8,1.3c-0.7,0.3-1.5,0.4-2.3,0.4
			C142.6,64.5,141.7,64.3,140.8,63.8z"/>
		<path fill="#9959A3" d="M155.4,60h-1.9v4.3h-1.9V54.1h1.9v4.3h2l3-4.3h2l-3.5,5l3.7,5.3h-2.2L155.4,60z"/>
		<path fill="#9959A3" d="M170.6,62h-5.2l-1,2.4h-2l4.6-10.3h1.9l4.6,10.3h-2L170.6,62z M170,60.5L168,56l-1.9,4.5H170z"/>
		<path fill="#9959A3" d="M184.6,54.1v10.3h-1.9v-2.9h-2.5H180l-1.9,2.9h-2l2.2-3.2c-0.7-0.3-1.3-0.7-1.7-1.3s-0.6-1.3-0.6-2.1
			c0-0.8,0.2-1.5,0.5-2c0.4-0.6,0.9-1,1.5-1.3c0.6-0.3,1.4-0.4,2.3-0.4H184.6z M178.6,56.2c-0.4,0.4-0.6,0.9-0.6,1.6
			c0,0.7,0.2,1.2,0.6,1.6c0.4,0.4,1,0.6,1.7,0.6h2.4v-4.3h-2.3C179.6,55.7,179,55.9,178.6,56.2z"/>
		<path fill="#9959A3" d="M197.6,63.8c-0.8-0.5-1.5-1.1-2-1.9c-0.5-0.8-0.7-1.7-0.7-2.7c0-1,0.2-1.9,0.7-2.7c0.5-0.8,1.1-1.4,2-1.9
			c0.8-0.5,1.8-0.7,2.8-0.7s2,0.2,2.8,0.7c0.8,0.5,1.5,1.1,2,1.9c0.5,0.8,0.7,1.7,0.7,2.7s-0.2,1.9-0.7,2.7c-0.5,0.8-1.1,1.4-2,1.9
			c-0.8,0.5-1.8,0.7-2.8,0.7S198.5,64.3,197.6,63.8z M202.3,62.4c0.5-0.3,1-0.7,1.3-1.3c0.3-0.6,0.5-1.2,0.5-1.9
			c0-0.7-0.2-1.3-0.5-1.9c-0.3-0.6-0.7-1-1.3-1.3c-0.5-0.3-1.2-0.5-1.9-0.5s-1.3,0.2-1.9,0.5c-0.5,0.3-1,0.7-1.3,1.3
			c-0.3,0.6-0.5,1.2-0.5,1.9c0,0.7,0.2,1.3,0.5,1.9c0.3,0.6,0.7,1,1.3,1.3s1.2,0.5,1.9,0.5S201.8,62.7,202.3,62.4z"/>
		<path fill="#9959A3" d="M210.2,54.1h8v1.6h-6.1v2.5h3c1.2,0,2.2,0.3,2.8,0.8c0.6,0.5,1,1.3,1,2.2c0,1-0.4,1.8-1.1,2.4
			c-0.7,0.6-1.7,0.8-3,0.8h-4.6V54.1z M214.7,62.9c0.7,0,1.3-0.1,1.7-0.4c0.4-0.3,0.6-0.7,0.6-1.2c0-1.1-0.8-1.6-2.3-1.6h-2.6v3.3
			H214.7z"/>
		<path fill="#9959A3" d="M231.6,54.1v10.3h-1.9v-8.7h-4.1l-0.1,2.6c0,1.4-0.2,2.6-0.4,3.5c-0.2,0.9-0.5,1.6-0.9,2
			c-0.4,0.5-1,0.7-1.7,0.7c-0.3,0-0.6,0-1-0.1l0.1-1.7c0.1,0,0.3,0.1,0.4,0.1c0.6,0,1-0.4,1.3-1.1s0.4-1.8,0.5-3.4l0.1-4.3H231.6z"
			/>
		<path fill="#9959A3" d="M243.4,62h-5.2l-1,2.4h-2l4.6-10.3h1.9l4.6,10.3h-2L243.4,62z M242.8,60.5l-1.9-4.5l-1.9,4.5H242.8z"/>
		<path fill="#9959A3" d="M251.8,63.8c-0.8-0.5-1.5-1.1-2-1.9c-0.5-0.8-0.7-1.7-0.7-2.7s0.2-1.9,0.7-2.7c0.5-0.8,1.1-1.4,2-1.9
			c0.8-0.5,1.8-0.7,2.8-0.7c0.8,0,1.6,0.1,2.3,0.4c0.7,0.3,1.3,0.7,1.8,1.3l-1.2,1.2c-0.7-0.8-1.7-1.2-2.8-1.2
			c-0.7,0-1.3,0.2-1.9,0.5c-0.6,0.3-1,0.7-1.3,1.3c-0.3,0.5-0.5,1.2-0.5,1.9c0,0.7,0.2,1.3,0.5,1.9c0.3,0.5,0.8,1,1.3,1.3
			c0.6,0.3,1.2,0.5,1.9,0.5c1.1,0,2-0.4,2.8-1.2l1.2,1.2c-0.5,0.6-1.1,1-1.8,1.3c-0.7,0.3-1.5,0.4-2.3,0.4
			C253.6,64.5,252.7,64.3,251.8,63.8z"/>
		<path fill="#9959A3" d="M269.9,55.7h-3.4v8.7h-1.9v-8.7h-3.4v-1.6h8.7V55.7z"/>
		<path fill="#9959A3" d="M281.3,58.4c0.7,0.6,1,1.4,1,2.5c0,1.1-0.4,2-1.1,2.6c-0.7,0.6-1.7,0.9-3.1,0.9h-4.4V54.1h1.9v3.5h2.9
			C279.6,57.6,280.6,57.8,281.3,58.4z M279.7,62.4c0.4-0.3,0.6-0.8,0.6-1.5c0-1.2-0.8-1.9-2.3-1.9h-2.5v3.9h2.5
			C278.8,62.9,279.3,62.7,279.7,62.4z"/>
	</g>
</g>
</svg>
