<svg width="49" height="32" viewBox="0 0 49 32" fill="none" xmlns="http://www.w3.org/2000/svg">
<path d="M48.1101 27.2319H45.4158C45.1008 29.9498 42.7989 32 40.0635 32C37.3275 32 35.0261 29.9498 34.7109 27.2319H17.2879C16.9721 29.9498 14.671 32 11.9356 32C9.19958 32 6.89849 29.9498 6.58267 27.2319H0.897915C0.401951 27.2319 -3.8147e-06 26.8299 -3.8147e-06 26.3339V0.898272C-3.8147e-06 0.402266 0.401951 0 0.897915 0H32.0616C32.557 0 32.9592 0.402266 32.9592 0.898272V5.93659H40.5665C40.8601 5.93744 41.1351 6.08128 41.3029 6.32309L46.2152 13.3553L48.1369 16.0498L48.8375 17.0469C48.9425 17.1969 48.9991 17.3754 48.9996 17.5587V26.3072C49.0067 26.5482 48.9163 26.7821 48.7491 26.9561C48.5819 27.1303 48.3514 27.2297 48.1101 27.2319ZM40.0815 29.9262C42.0651 29.9262 43.6737 28.3177 43.6737 26.3339C43.6737 24.3496 42.0651 22.7411 40.0815 22.7411C38.0974 22.7411 36.489 24.3496 36.489 26.3339C36.489 28.3253 38.09 29.9467 40.0815 29.9712V29.9262ZM11.9536 29.9262C13.9374 29.9262 15.5461 28.3177 15.5461 26.3339C15.5461 24.3496 13.9374 22.7411 11.9536 22.7411C9.96915 22.7411 8.36106 24.3496 8.36106 26.3339C8.36077 28.3253 9.96211 29.9467 11.9536 29.9712V29.9262ZM1.81413 1.79626V17.8914H26.197C26.693 17.8914 27.0952 18.2934 27.0952 18.7894C27.0952 19.2854 26.693 19.6877 26.197 19.6877H1.81413V25.4357H6.6004C6.91623 22.718 9.2176 20.6681 11.9536 20.6681C14.689 20.6681 16.9904 22.718 17.3059 25.4357H31.1634V5.88282H24.6795C24.1836 5.88282 23.7813 5.48056 23.7813 4.98455C23.7813 4.48855 24.1836 4.08628 24.6795 4.08628H31.1634V1.79626H1.81413ZM40.0992 7.73314H32.9148V25.4357H34.7109C35.0261 22.718 37.3275 20.6681 40.0635 20.6681C42.7989 20.6681 45.1008 22.718 45.4158 25.4357H47.2122V17.8461L46.9428 17.4599H35.986C35.49 17.4599 35.0881 17.0582 35.0881 16.5622V9.9159C35.0881 9.4199 35.49 9.01763 35.986 9.01763H41.0155L40.0992 7.73314ZM42.2725 10.8319H36.8842V15.6816H45.6945L42.2725 10.8319Z" fill="#2CD16E"/>
</svg>
