<svg width="16" height="16" viewBox="0 0 16 16" fill="none" xmlns="http://www.w3.org/2000/svg">
<path fill-rule="evenodd" clip-rule="evenodd" d="M8.00026 15.967C3.60732 15.967 0.0332031 12.3929 0.0332031 7.99999C0.0332031 3.60705 3.60732 0.0329285 8.00026 0.0329285C12.3932 0.0329285 15.9673 3.60705 15.9673 7.99999C15.9673 12.3929 12.3932 15.967 8.00026 15.967Z" fill="#26CA55"/>
<path fill-rule="evenodd" clip-rule="evenodd" d="M11.7971 5.20721C11.5267 4.93093 11.0776 4.93093 10.8071 5.20721L6.82657 9.26803L5.19863 7.58949C4.91795 7.31842 4.47907 7.31842 4.19839 7.59991C3.93302 7.88141 3.93302 8.32971 4.2035 8.61642L6.30094 10.7485L6.33156 10.785C6.60713 11.0717 7.05112 11.0717 7.32669 10.785L11.7971 6.21851C12.0676 5.93701 12.0676 5.48349 11.7971 5.20721Z" fill="white"/>
</svg>
