<svg width="25" height="25" viewBox="0 0 25 25" fill="none" xmlns="http://www.w3.org/2000/svg">
<path d="M12.5 0C5.59644 0 0 5.59644 0 12.5C0 19.4036 5.59644 25 12.5 25C19.4036 25 25 19.4036 25 12.5C24.9912 5.60013 19.3999 0.00884813 12.5 0ZM13.0363 23.9007V21.7021C13.0363 21.4059 12.7961 21.1658 12.5 21.1658C12.2039 21.1658 11.9637 21.4059 11.9637 21.7021V23.9007C6.08369 23.62 1.38004 18.9163 1.09931 13.0363H3.29794C3.59409 13.0363 3.83419 12.7961 3.83419 12.5C3.83419 12.2039 3.59409 11.9637 3.29794 11.9637H1.09931C1.38004 6.08369 6.08369 1.38004 11.9637 1.09931V3.29794C11.9637 3.59409 12.2039 3.83419 12.5 3.83419C12.7961 3.83419 13.0363 3.59409 13.0363 3.29794V1.09931C18.9163 1.38004 23.62 6.08369 23.9007 11.9637H21.7021C21.4059 11.9637 21.1658 12.2039 21.1658 12.5C21.1658 12.7961 21.4059 13.0363 21.7021 13.0363H21.7074H23.906C23.6251 18.9182 18.9184 23.6226 13.0363 23.9007Z" fill="#333332"/>
<path d="M18.1574 17.4871L13.0362 12.2802V6.86938C13.0362 6.57324 12.7961 6.33313 12.5 6.33313C12.2039 6.33313 11.9637 6.57324 11.9637 6.86938V12.5C11.9643 12.6407 12.0202 12.7755 12.1193 12.8754L17.3906 18.2379C17.5979 18.4496 17.9376 18.4533 18.1494 18.2459C18.3611 18.0386 18.3648 17.6989 18.1574 17.4871Z" fill="#333332"/>
</svg>
