<svg width="23" height="15" viewBox="0 0 23 15" fill="none" xmlns="http://www.w3.org/2000/svg">
<path d="M22.095 4.71583C22.0986 4.77717 22.0939 4.83958 22.078 4.90158L20.6593 10.4016C20.5878 10.6787 20.3316 10.8735 20.037 10.875L11.5248 10.9167C11.5237 10.9167 11.5227 10.9167 11.5216 10.9167H3.00935C2.71323 10.9167 2.4552 10.7212 2.38366 10.4427L0.964968 4.92183C0.948632 4.85817 0.943903 4.794 0.94803 4.73108C0.399211 4.5635 0 4.06575 0 3.47917C0 2.75542 0.607458 2.16667 1.35421 2.16667C2.10095 2.16667 2.70841 2.75542 2.70841 3.47917C2.70841 3.88675 2.51573 4.25142 2.21402 4.49233L3.99022 6.22683C4.43913 6.66525 5.06206 6.91658 5.69936 6.91658C6.4529 6.91658 7.17136 6.56975 7.62379 5.98867L10.5429 2.24C10.2976 2.0025 10.1458 1.67433 10.1458 1.3125C10.1458 0.58875 10.7533 0 11.5 0C12.2467 0 12.8542 0.58875 12.8542 1.3125C12.8542 1.6635 12.7104 1.98208 12.478 2.21783C12.4788 2.21883 12.4798 2.21967 12.4805 2.22075L15.3784 5.97975C15.8307 6.56642 16.5517 6.91667 17.3074 6.91667C17.9506 6.91667 18.5554 6.67392 19.0101 6.23308L20.7975 4.50075C20.4894 4.25992 20.2916 3.89175 20.2916 3.47917C20.2916 2.75542 20.899 2.16667 21.6458 2.16667C22.3925 2.16667 23 2.75542 23 3.47917C23 4.05008 22.6213 4.53567 22.095 4.71583ZM20.5209 12.875C20.5209 12.5298 20.2322 12.25 19.876 12.25H3.19567C2.83953 12.25 2.55081 12.5298 2.55081 12.875V14.375C2.55081 14.7202 2.83953 15 3.19567 15H19.876C20.2322 15 20.5209 14.7202 20.5209 14.375V12.875Z" fill="#2CD16E"/>
</svg>
