<svg width="29" height="28" viewBox="0 0 29 28" fill="none" xmlns="http://www.w3.org/2000/svg">
<path fill-rule="evenodd" clip-rule="evenodd" d="M14.4403 27.5875L13.9396 27.1413C2.97079 17.3656 0 13.9244 0 8.33467C0 3.73893 3.41688 0 7.61676 0C11.1266 0 13.1106 2.1812 14.4403 3.822C15.77 2.1812 17.754 0 21.2638 0C25.4637 0 28.8806 3.73893 28.8806 8.33467C28.8806 13.9244 25.9098 17.3656 14.941 27.1413L14.4403 27.5875ZM7.61678 1.73599C4.29202 1.73599 1.58649 4.69652 1.58649 8.33466C1.58649 13.1236 4.34063 16.3249 14.4403 25.3475C24.54 16.3249 27.2941 13.1236 27.2941 8.33466C27.2941 4.69652 24.5886 1.73599 21.2638 1.73599C18.2188 1.73599 16.6298 3.71932 15.3538 5.31346L14.4403 6.43626L13.5268 5.31346C12.2508 3.71932 10.6618 1.73599 7.61678 1.73599Z" fill="#F27022"/>
</svg>
