<svg width="18" height="21" viewBox="0 0 18 21" fill="none" xmlns="http://www.w3.org/2000/svg">
<path fill-rule="evenodd" clip-rule="evenodd" d="M8.99336 11.0939H8.92324C7.63927 11.0726 6.60069 10.6334 5.83819 9.79351C4.15106 7.9431 4.43152 4.77098 4.46219 4.46826C4.57175 2.1787 5.69358 1.09148 6.61384 0.584114C7.52971 0.076745 8.48503 0 8.97145 0H8.99774H9.01527H9.04594C9.93114 0.0170544 10.7243 0.221708 11.4036 0.601169C12.315 1.10854 13.4194 2.19576 13.5289 4.46826C13.5596 4.77098 13.84 7.9431 12.1529 9.79351C11.386 10.6334 10.3474 11.0726 9.06347 11.0939H9.01965H8.99336ZM5.6353 4.55446C5.63411 4.56079 5.63278 4.56783 5.63278 4.57487C5.6284 4.60045 5.33041 7.5125 6.71956 9.03034C7.26733 9.63577 8.00791 9.93422 8.97199 9.94275H8.9939H9.01581C9.98427 9.93422 10.7205 9.63577 11.2726 9.03034C12.6662 7.50397 12.3594 4.60471 12.355 4.57487C12.3506 4.56634 12.3506 4.55355 12.3506 4.54076C12.2148 1.65004 10.2034 1.18104 9.0202 1.15546H8.98514H8.96761C8.0123 1.15546 5.78177 1.48375 5.63716 4.54076C5.63716 4.54459 5.63627 4.54929 5.6353 4.55446Z" fill="white"/>
<path fill-rule="evenodd" clip-rule="evenodd" d="M17.9988 16.3552C17.9988 16.3509 17.9988 16.3467 17.9988 16.3424C17.9988 16.3083 17.9944 16.2742 17.9944 16.2358C17.9681 15.3916 17.9111 13.4176 16.0093 12.7866C15.9961 12.7823 15.9786 12.778 15.9654 12.7738C13.9891 12.2835 12.3458 11.1749 12.3282 11.1621C12.0609 10.9788 11.6928 11.0428 11.5044 11.3028C11.316 11.5629 11.3817 11.9211 11.649 12.1044C11.7235 12.1556 13.4676 13.3366 15.6499 13.8823C16.671 14.2362 16.7849 15.2978 16.8156 16.2699C16.8156 16.3083 16.8156 16.3424 16.82 16.3765C16.8244 16.7603 16.7981 17.3529 16.7279 17.694C16.018 18.0862 13.2354 19.4421 9.00217 19.4421C4.78652 19.4421 1.98632 18.082 1.27202 17.6897C1.20191 17.3486 1.17123 16.756 1.18 16.3723C1.18 16.3382 1.18438 16.304 1.18438 16.2657C1.21505 15.2936 1.32899 14.2319 2.35004 13.8781C4.53236 13.3323 6.27646 12.147 6.35096 12.1001C6.61827 11.9168 6.684 11.5587 6.49557 11.2986C6.30714 11.0385 5.93904 10.9745 5.67172 11.1579C5.65419 11.1707 4.01964 12.2792 2.03452 12.7695C2.01699 12.7738 2.00385 12.778 1.9907 12.7823C0.0888362 13.4176 0.0318679 15.3916 0.00557485 16.2316C0.00557485 16.2699 0.00557485 16.304 0.00119268 16.3382C0.00119268 16.3424 0.00119268 16.3467 0.00119268 16.3509C-0.0031895 16.5727 -0.00757167 17.711 0.224683 18.2824C0.268505 18.3932 0.347384 18.487 0.452556 18.551C0.584022 18.6362 3.7348 20.589 9.00656 20.589C14.2783 20.589 17.4291 18.632 17.5606 18.551C17.6613 18.487 17.7446 18.3932 17.7884 18.2824C18.0075 17.7153 18.0032 16.5769 17.9988 16.3552Z" fill="white"/>
</svg>
