<svg width="30" height="30" viewBox="0 0 30 30" fill="none" xmlns="http://www.w3.org/2000/svg">
<path d="M25.6517 3.92995C23.1173 1.39551 19.7474 -0.000141752 16.1634 1.07985e-08C15.5761 1.07985e-08 15.1002 0.47604 15.1002 1.06322C15.1002 1.6504 15.5762 2.12644 16.1634 2.12644C19.1795 2.1263 22.0152 3.30081 24.148 5.43363C26.281 7.56645 27.4555 10.4023 27.4554 13.4186C27.4554 14.0057 27.9313 14.4818 28.5186 14.4818C29.1058 14.4818 29.5818 14.0057 29.5818 13.4187C29.5819 9.83423 28.1863 6.46439 25.6517 3.92995Z" fill="#4F4F4F"/>
<path d="M21.278 13.4187C21.278 14.0059 21.7541 14.4819 22.3414 14.4818C22.9286 14.4818 23.4045 14.0057 23.4045 13.4186C23.4042 9.42651 20.1558 6.1783 16.1635 6.17773C16.1634 6.17773 16.1635 6.17773 16.1634 6.17773C15.5762 6.17773 15.1003 6.65363 15.1002 7.24081C15.1002 7.828 15.5761 8.30404 16.1632 8.30418C18.9833 8.3046 21.2778 10.5989 21.278 13.4187Z" fill="#4F4F4F"/>
<path d="M18.9253 18.8397C17.3047 18.7558 16.4791 19.961 16.0831 20.54C15.7515 21.0247 15.8757 21.6863 16.3604 22.0179C16.8451 22.3495 17.5067 22.2253 17.8383 21.7406C18.3061 21.0566 18.518 20.949 18.8055 20.9626C19.7257 21.0708 23.3499 23.7265 23.7128 24.557C23.8038 24.8015 23.8004 25.0412 23.7027 25.3329C23.3222 26.4621 22.6924 27.2557 21.8809 27.6277C21.11 27.9811 20.1649 27.9491 19.1483 27.5354C15.3523 25.9882 12.0359 23.829 9.29139 21.1177C9.29026 21.1165 9.28912 21.1156 9.28813 21.1144C6.58245 18.3726 4.42722 15.0604 2.88258 11.2703C2.46877 10.2528 2.43673 9.30756 2.79015 8.5368C3.16213 7.72535 3.95572 7.09549 5.08401 6.71543C5.37661 6.61733 5.61591 6.61421 5.85818 6.70437C6.6916 7.06856 9.34725 10.6926 9.45442 11.6024C9.46973 11.9007 9.36128 12.1125 8.67784 12.5794C8.19301 12.9106 8.0684 13.5722 8.3997 14.057C8.73086 14.5419 9.39233 14.6663 9.8773 14.3352C10.4565 13.9397 11.6615 13.1163 11.5779 11.4901C11.4857 9.79154 8.18153 5.29326 6.60272 4.71274C5.90057 4.45105 5.16198 4.44651 4.40667 4.69998C2.70722 5.27228 1.47983 6.29269 0.857211 7.65078C0.253301 8.96832 0.272439 10.4969 0.913207 12.0722C2.5663 16.1283 4.87916 19.6774 7.78743 22.6211C7.79452 22.6283 7.80175 22.6354 7.80912 22.6423C10.7507 25.5452 14.2956 27.8538 18.3464 29.5049C19.1575 29.8348 19.9564 30 20.7203 30C21.4396 30 22.1283 29.8537 22.7671 29.5608C24.1253 28.9383 25.1456 27.7111 25.7183 26.0105C25.9712 25.2566 25.9671 24.5183 25.7074 23.8194C25.1249 22.2363 20.6266 18.9321 18.9253 18.8397Z" fill="#4F4F4F"/>
</svg>
