<svg width="27" height="27" viewBox="0 0 27 27" fill="none" xmlns="http://www.w3.org/2000/svg">
<path fill-rule="evenodd" clip-rule="evenodd" d="M10.9688 21.8784C4.95368 21.8784 0.059082 16.9838 0.059082 10.9688C0.059082 4.95366 4.95368 0.0590668 10.9688 0.0590668C16.9839 0.0590668 21.8785 4.95366 21.8785 10.9688C21.8785 16.9838 16.9839 21.8784 10.9688 21.8784ZM10.9688 1.62843C5.81855 1.62843 1.62849 5.8185 1.62849 10.9687C1.62849 16.119 5.81855 20.3091 10.9688 20.3091C16.1191 20.3091 20.3091 16.119 20.3091 10.9687C20.3091 5.8185 16.1191 1.62843 10.9688 1.62843Z" fill="#333332"/>
<path fill-rule="evenodd" clip-rule="evenodd" d="M25.5597 26.7528L17.9659 19.159L19.159 17.966L26.7528 25.5597L25.5597 26.7528Z" fill="#333332"/>
</svg>
