<svg width="38" height="38" viewBox="0 0 38 38" fill="none" xmlns="http://www.w3.org/2000/svg">
<g clip-path="url(#clip0)">
<path d="M32.8945 6.67804C29.6029 3.38644 25.2245 1.57254 20.5725 1.57254C15.8345 1.57254 11.4014 3.44117 8.09413 6.83441C7.73448 7.20188 7.7423 7.79609 8.10977 8.16356C8.47724 8.52321 9.07145 8.51539 9.43892 8.14792C12.3943 5.12215 16.3427 3.45681 20.5725 3.45681C29.1494 3.44899 36.1236 10.4231 36.1236 19C36.1236 27.577 29.1494 34.5511 20.5725 34.5511C11.9956 34.5511 5.02145 27.577 5.02145 19V18.8046L6.56952 20.3526C6.74934 20.5325 6.99172 20.6263 7.23409 20.6263C7.47647 20.6263 7.71102 20.5325 7.89867 20.3526C8.26614 19.9852 8.26614 19.391 7.89867 19.0235L4.75562 15.8726C4.38815 15.5052 3.79394 15.5052 3.42647 15.8726L0.275603 19.0235C-0.0918677 19.391 -0.0918677 19.9852 0.275603 20.3526C0.643074 20.7201 1.23728 20.7201 1.60475 20.3526L3.15282 18.8046V19C3.15282 23.6521 4.96672 28.0304 8.25832 31.322C11.5499 34.6136 15.9283 36.4275 20.5803 36.4275C25.2323 36.4275 29.6107 34.6136 32.9023 31.322C36.1939 28.0304 38 23.6521 38 19C38 14.348 36.1861 9.96964 32.8945 6.67804Z" fill="#2CD16E"/>
<path d="M25.5607 12.6592L14.0362 24.1759C13.6687 24.5434 13.6687 25.1376 14.0362 25.5051C14.216 25.6849 14.4584 25.7787 14.7008 25.7787C14.9432 25.7787 15.1777 25.6849 15.3654 25.5051L26.8899 13.9805C27.2573 13.6131 27.2573 13.0189 26.8899 12.6514C26.5224 12.2917 25.9282 12.2917 25.5607 12.6592Z" fill="#2CD16E"/>
<path d="M22.5428 20.4152C21.2371 21.7209 21.2371 23.8553 22.5428 25.161C23.1761 25.7943 24.0205 26.1462 24.9196 26.1462C25.8187 26.1462 26.6631 25.7943 27.2965 25.161C28.6021 23.8553 28.6021 21.7209 27.2965 20.4152C26.6631 19.7819 25.8187 19.4301 24.9196 19.4301C24.0205 19.4301 23.1839 19.7819 22.5428 20.4152ZM25.9673 23.8397C25.6858 24.1212 25.3184 24.2697 24.9196 24.2697C24.5209 24.2697 24.1534 24.1133 23.8719 23.8397C23.2934 23.2611 23.2934 22.3229 23.8719 21.7443C24.1534 21.4629 24.5209 21.3143 24.9196 21.3143C25.3184 21.3143 25.6858 21.4707 25.9673 21.7443C26.5459 22.3229 26.5459 23.2611 25.9673 23.8397Z" fill="#2CD16E"/>
<path d="M16.2567 11.8226C15.3575 11.8226 14.5131 12.1745 13.8798 12.8078C13.2465 13.4411 12.8947 14.2855 12.8947 15.1846C12.8947 16.0837 13.2465 16.9281 13.8798 17.5614C14.5131 18.1947 15.3575 18.5466 16.2567 18.5466C17.1558 18.5466 18.0002 18.1947 18.6335 17.5614C19.2668 16.9281 19.6186 16.0837 19.6186 15.1846C19.6186 14.2855 19.2668 13.4411 18.6335 12.8078C17.9924 12.1745 17.1558 11.8226 16.2567 11.8226ZM17.3043 16.2323C17.0229 16.5137 16.6554 16.6623 16.2567 16.6623C15.8579 16.6623 15.4904 16.5059 15.209 16.2323C14.9275 15.9508 14.779 15.5833 14.779 15.1846C14.779 14.7859 14.9353 14.4184 15.209 14.1369C15.4904 13.8554 15.8579 13.7069 16.2567 13.7069C16.6554 13.7069 17.0229 13.8633 17.3043 14.1369C17.5858 14.4184 17.7344 14.7859 17.7344 15.1846C17.7344 15.5755 17.5858 15.9508 17.3043 16.2323Z" fill="#2CD16E"/>
</g>
<defs>
<clipPath id="clip0">
<rect width="38" height="38" fill="white"/>
</clipPath>
</defs>
</svg>
