<svg width="10" height="10" viewBox="0 0 10 10" fill="none" xmlns="http://www.w3.org/2000/svg">
<path d="M8.80751 5.75736L5.80787 5.75752L5.80778 8.75709C5.8077 9.20334 5.4462 9.56483 4.99996 9.56492C4.77703 9.56492 4.57513 9.47456 4.42906 9.3285C4.28276 9.18219 4.1923 8.98036 4.19247 8.75743L4.1924 5.75736L1.19246 5.75739C0.969548 5.7574 0.767627 5.66703 0.621437 5.52084C0.475289 5.37469 0.384929 5.17295 0.384929 4.94986C0.384915 4.50372 0.746426 4.1422 1.19276 4.14203L4.19229 4.14191L4.19239 1.14223C4.19239 0.696074 4.55397 0.334491 5.00013 0.334491C5.44607 0.334619 5.80744 0.695989 5.80766 1.14202L5.80778 4.14195L8.8076 4.14196C9.25367 4.14222 9.61509 4.50363 9.61517 4.94953C9.61526 5.39578 9.25367 5.75736 8.80751 5.75736Z" fill="#2CD16E"/>
</svg>
