<svg width="16" height="16" viewBox="0 0 16 16" fill="none" xmlns="http://www.w3.org/2000/svg">
<path fill-rule="evenodd" clip-rule="evenodd" d="M7.99977 15.9671C3.60683 15.9671 0.0327148 12.3929 0.0327148 8C0.0327148 3.60706 3.60683 0.0329437 7.99977 0.0329437C12.3927 0.0329437 15.9668 3.60706 15.9668 8C15.9668 12.3929 12.3927 15.9671 7.99977 15.9671Z" fill="#2CD16E"/>
<path fill-rule="evenodd" clip-rule="evenodd" d="M5.55023 5.48093C5.67258 5.12611 5.85376 4.82446 6.0947 4.57552C6.33517 4.32658 6.62693 4.13317 6.96952 3.99435C7.31211 3.85552 7.70364 3.78635 8.14411 3.78635C8.4867 3.78635 8.8067 3.83717 9.10458 3.93929C9.40246 4.04141 9.66552 4.19011 9.89376 4.38588C10.122 4.58164 10.3018 4.81835 10.4321 5.09552C10.5625 5.3727 10.6279 5.69129 10.6279 6.04988C10.6279 6.50682 10.5281 6.89411 10.3281 7.21223C10.1281 7.53035 9.87305 7.83623 9.56341 8.12988C9.3107 8.38258 9.10835 8.5807 8.95776 8.72329C8.8067 8.86635 8.6947 9.00705 8.62129 9.14541C8.54788 9.28376 8.49893 9.45364 8.47446 9.65317C8.44999 9.85317 8.43352 9.97788 8.42552 10.3529H7.6547C7.6467 9.97788 7.66693 9.82682 7.71588 9.57364C7.76482 9.32093 7.84435 9.09223 7.95446 8.88846C8.06458 8.6847 8.21141 8.48893 8.39493 8.30117C8.57846 8.11341 8.80058 7.90164 9.06176 7.66493C9.28999 7.45317 9.47964 7.21646 9.6307 6.95529C9.78176 6.69458 9.85705 6.4047 9.85705 6.08658C9.85705 5.84188 9.80999 5.61788 9.71635 5.41364C9.6227 5.20988 9.49611 5.03623 9.33705 4.89364C9.17799 4.75105 8.99211 4.63858 8.78035 4.55717C8.56811 4.47576 8.34364 4.43482 8.10741 4.43482C7.78129 4.43482 7.49141 4.49223 7.2387 4.60611C6.98599 4.72046 6.77752 4.87717 6.6147 5.07717C6.45141 5.27717 6.32905 5.51152 6.24764 5.7807C6.16576 6.04988 6.12905 6.27011 6.13752 6.58823H5.3667C5.3667 6.15576 5.42788 5.83576 5.55023 5.48093ZM7.53223 11.2941H8.47058V12.2353H7.53223V11.2941Z" fill="white"/>
</svg>
