<svg width="40" height="40" viewBox="0 0 40 40" fill="none" xmlns="http://www.w3.org/2000/svg">
<path d="M5.14099 38.1529H16.4528C16.8615 38.1529 17.1966 37.8177 17.1966 37.4091C17.1966 37.0004 16.8615 36.6653 16.4528 36.6653H5.14099C3.12219 36.6653 1.48754 35.0225 1.48754 33.0119V9.57091H6.53862V12.7013C6.53862 13.1099 6.87372 13.445 7.28239 13.445C7.69105 13.445 8.02615 13.1099 8.02615 12.7013V9.57091H17.9322V12.7013C17.9322 13.1099 18.2673 13.445 18.6759 13.445C19.0846 13.445 19.4197 13.1099 19.4197 12.7013V9.57091H24.4708V11.2383C24.4708 11.6469 24.8059 11.982 25.2145 11.982C25.6232 11.982 25.9583 11.6469 25.9583 11.2383V8.82714C25.9583 8.41848 25.6232 8.08337 25.2145 8.08337H19.4197C19.3216 4.6179 16.4773 1.83899 12.9873 1.83899C9.49734 1.83899 6.65304 4.62608 6.55497 8.08337H0.743768C0.335104 8.08337 0 8.41848 0 8.82714V33.0119C0.00817327 35.848 2.31304 38.1529 5.14099 38.1529ZM12.971 3.32653C15.6355 3.32653 17.8177 5.4434 17.924 8.09155H8.02615C8.12423 5.4434 10.3065 3.32653 12.971 3.32653Z" fill="#2CD16E"/>
<path d="M24.2174 18.0956V19.0928H19.6812C19.2726 19.0928 18.9375 19.4279 18.9375 19.8365V34.6874C18.9375 36.5999 20.4904 38.161 22.4111 38.161H36.5264C38.4389 38.161 40 36.6081 40 34.6874V19.8284C40 19.4197 39.6649 19.0846 39.2562 19.0846H34.7201V18.0875C34.7201 15.1941 32.3662 12.8402 29.4728 12.8402C26.5795 12.8402 24.2174 15.2023 24.2174 18.0956ZM38.5125 20.5721V34.6874C38.5125 35.7826 37.6216 36.6735 36.5264 36.6735H22.4111C21.3159 36.6735 20.425 35.7826 20.425 34.6874V20.5721H24.2174V22.6563C24.2174 23.065 24.5525 23.4001 24.9612 23.4001C25.3698 23.4001 25.7049 23.065 25.7049 22.6563V20.5721H33.2407V22.6563C33.2407 23.065 33.5758 23.4001 33.9845 23.4001C34.3931 23.4001 34.7282 23.065 34.7282 22.6563V20.5721H38.5125ZM29.4647 14.3277C31.5407 14.3277 33.2325 16.0196 33.2325 18.0956V19.0928H25.6968V18.0956C25.7049 16.0114 27.3886 14.3277 29.4647 14.3277Z" fill="#2CD16E"/>
</svg>
