<svg width="30" height="30" viewBox="0 0 30 30" fill="none" xmlns="http://www.w3.org/2000/svg">
<g clip-path="url(#clip0)">
<path d="M26.9851 26.0008L25.2587 6.54523C25.2277 6.16022 24.9048 5.86835 24.5135 5.86835H20.8745C20.8683 2.633 18.2353 0 15 0C11.7646 0 9.13164 2.633 9.12543 5.86835H5.48643C5.10142 5.86835 4.7785 6.16022 4.74124 6.54523L3.01489 26.0008C3.01489 26.0257 3.01489 26.0443 3.01489 26.0691C3.01489 28.2364 5.00827 30 7.45497 30H22.545C24.9917 30 26.9851 28.2364 26.9851 26.0691C26.9851 26.0443 26.9851 26.0257 26.9851 26.0008ZM15 1.49037C17.4156 1.49037 19.378 3.4527 19.3842 5.86835H10.6158C10.622 3.4527 12.5843 1.49037 15 1.49037ZM22.545 28.5034H7.45497C5.84039 28.5034 4.5239 27.4291 4.50527 26.094L6.16952 7.35872H9.12543V9.97309C9.12543 10.3829 9.46076 10.7183 9.87062 10.7183C10.2805 10.7183 10.6158 10.3829 10.6158 9.97309V7.35872H19.3842V9.97309C19.3842 10.3829 19.7195 10.7183 20.1294 10.7183C20.5392 10.7183 20.8745 10.3829 20.8745 9.97309V7.35872H23.8305L25.4947 26.1002C25.4761 27.4291 24.1596 28.5034 22.545 28.5034Z" fill="#3A3735"/>
</g>
<defs>
<clipPath id="clip0">
<rect width="30" height="30" fill="white"/>
</clipPath>
</defs>
</svg>
