<svg width="22" height="22" viewBox="0 0 22 22" fill="none" xmlns="http://www.w3.org/2000/svg">
<g opacity="0.5">
<path d="M20.29 8.66742C20.6884 8.27911 20.829 7.70922 20.6572 7.18014C20.4852 6.65107 20.0365 6.27273 19.486 6.19276L14.6722 5.49328C14.5777 5.47957 14.496 5.42023 14.4537 5.33455L12.3009 0.972576C12.0548 0.473709 11.5563 0.163818 10.9999 0.163818C10.4436 0.163818 9.9451 0.473709 9.69893 0.972576L7.54615 5.33459C7.50383 5.42023 7.42219 5.47957 7.32766 5.49332L2.51395 6.19276C1.96344 6.27273 1.51471 6.65107 1.34275 7.18014C1.17079 7.70922 1.31147 8.27911 1.70988 8.66742L5.19314 12.0628C5.2615 12.1295 5.29274 12.2255 5.27659 12.3196L4.45429 17.1139C4.36028 17.6622 4.58139 18.2059 5.03145 18.5329C5.4815 18.86 6.06708 18.9022 6.55942 18.6434L10.8649 16.3799C10.9495 16.3354 11.0504 16.3354 11.135 16.3799L15.4406 18.6434C15.6547 18.756 15.8865 18.8117 16.1171 18.8116C16.4166 18.8116 16.7142 18.7178 16.9684 18.5329C17.4185 18.2058 17.6396 17.6621 17.5456 17.1139L16.7233 12.3196C16.7072 12.2254 16.7384 12.1294 16.8067 12.0627L20.29 8.66742ZM15.5794 12.5159L16.4017 17.3102C16.4292 17.4707 16.3302 17.5622 16.2863 17.594C16.2424 17.6258 16.1247 17.6918 15.9807 17.616L11.6751 15.3525C11.4638 15.2414 11.2319 15.1858 11 15.1858C10.7681 15.1858 10.5362 15.2414 10.3249 15.3525L6.01939 17.616C5.87527 17.6917 5.75766 17.6258 5.71379 17.5939C5.66992 17.5621 5.57084 17.4706 5.59838 17.3102L6.42067 12.5159C6.50141 12.0451 6.34548 11.5651 6.0034 11.2317L2.52014 7.83636C2.40357 7.72267 2.42995 7.59045 2.44675 7.53889C2.46346 7.48728 2.51988 7.36478 2.68097 7.3414L7.49463 6.64192C7.96725 6.57325 8.37566 6.2766 8.58707 5.84824L10.7398 1.48622C10.8119 1.34026 10.9458 1.32449 11.0001 1.32449C11.0542 1.32449 11.1881 1.34022 11.2602 1.48622V1.48627L13.413 5.84828C13.6244 6.27664 14.0328 6.57329 14.5054 6.64196L19.3191 7.34145C19.4802 7.36482 19.5366 7.48733 19.5533 7.53893C19.5701 7.59054 19.5965 7.72279 19.4799 7.8364L15.9966 11.2318C15.6546 11.5651 15.4987 12.0451 15.5794 12.5159Z" fill="#828282"/>
<path d="M5.51854 0.972189C5.25918 0.783814 4.89631 0.841306 4.70793 1.10058L4.09189 1.94844C3.90352 2.20771 3.96097 2.57067 4.22028 2.75904C4.32336 2.83385 4.44269 2.8699 4.56094 2.8699C4.74042 2.8699 4.91736 2.78693 5.03089 2.6307L5.64693 1.78284C5.83531 1.52352 5.77786 1.16056 5.51854 0.972189Z" fill="#828282"/>
<path d="M17.9107 1.94496L17.2946 1.0971C17.1063 0.837912 16.7434 0.78042 16.484 0.968709C16.2247 1.15708 16.1672 1.52004 16.3556 1.77931L16.9717 2.62717C17.0852 2.78354 17.2622 2.86647 17.4417 2.86647C17.56 2.86647 17.6793 2.83042 17.7823 2.75556C18.0416 2.56723 18.0991 2.20428 17.9107 1.94496Z" fill="#828282"/>
<path d="M21.9714 13.1841C21.8724 12.8793 21.545 12.7125 21.2401 12.8115L20.2434 13.1354C19.9385 13.2345 19.7717 13.5619 19.8708 13.8667C19.9505 14.112 20.178 14.2679 20.4226 14.2679C20.482 14.2679 20.5425 14.2587 20.6021 14.2393L21.5988 13.9154C21.9036 13.8163 22.0704 13.489 21.9714 13.1841Z" fill="#828282"/>
<path d="M10.9998 19.6274C10.6793 19.6274 10.4194 19.8873 10.4194 20.2078V21.2559C10.4194 21.5764 10.6793 21.8362 10.9998 21.8362C11.3203 21.8362 11.5801 21.5764 11.5801 21.2559V20.2078C11.5801 19.8872 11.3203 19.6274 10.9998 19.6274Z" fill="#828282"/>
<path d="M1.7566 13.1361L0.759852 12.8122C0.455118 12.7133 0.127609 12.88 0.0285656 13.1848C-0.0704775 13.4897 0.096284 13.8171 0.401148 13.9161L1.3979 14.24C1.45749 14.2594 1.51791 14.2686 1.57733 14.2686C1.822 14.2686 2.04952 14.1126 2.12918 13.8674C2.22822 13.5625 2.06142 13.2352 1.7566 13.1361Z" fill="#828282"/>
</g>
</svg>
