<svg xmlns="http://www.w3.org/2000/svg" width="22" height="20" viewBox="0 0 22 20"><g><g><path fill="#fff" d="M7.078 13.333c-.355 0-.642.3-.642.666 0 .368.531 1 .886 1H18.83c.355 0 .564-.035.564.334a.655.655 0 0 1-.644.666H8.366c1.065 0 1.931.897 1.931 2s-.866 2-1.93 2c-1.065 0-1.931-.897-1.931-2s.866-2 1.93-2H7.08c-1.064 0-1.93-.897-1.93-2 0-.82.48-1.527 1.163-1.835C6.19 11.595 4.266 1.38 4.184 1H1.046C.69 1 0 1.034 0 .666s.288-.667.643-.667h3.862c.302 0 .563.217.628.523L6.276 3h15.605c.087.155.11.341.062.516l-2.575 9.333c-.079.286-.252.15-.539.15H7.322s-.242.334-.244.334zM21.838 2.93c-.122-.167.331.069.13.069h-.087a.665.665 0 0 0-.043-.069zM6.276 4l1.32 8h10.668l1.611-8zm2.09 13.332a.656.656 0 0 0-.643.667c0 .367.289.667.643.667.355 0 .644-.3.644-.667a.656.656 0 0 0-.644-.667zm7.166.667c0-1.103.866-2 1.93-2 1.065 0 1.931.897 1.931 2s-.866 2-1.93 2c-1.065 0-1.772-.896-1.772-2zm1.93-.667a.656.656 0 0 0-.643.667c0 .367.288.667.643.667.355 0 .644-.3.644-.667a.656.656 0 0 0-.644-.667z"/></g></g></svg>