<svg xmlns="http://www.w3.org/2000/svg" width="25" height="25" viewBox="0 0 25 25"><g><g><path fill="#bebebe" d="M25 12.5C25 19.391 19.393 25 12.5 25S0 19.392 0 12.5C0 5.606 5.607 0 12.5 0S25 5.606 25 12.5zm-.926 0C24.074 6.116 18.882.924 12.5.924S.926 6.117.926 12.499c0 6.383 5.192 11.575 11.574 11.575s11.574-5.192 11.574-11.575zm-6.99 3.928a.463.463 0 1 1-.656.655l-3.976-3.977-4.044 4.044a.461.461 0 0 1-.655 0 .463.463 0 0 1 0-.654l4.044-4.045-3.88-3.88a.463.463 0 0 1 .655-.654l3.88 3.88 3.813-3.813a.463.463 0 0 1 .654.655l-3.812 3.812z"/></g></g></svg>