<svg xmlns="http://www.w3.org/2000/svg" width="14" height="15" viewBox="0 0 14 15"><g><g><path fill="#00adef" d="M9.478 5.021c.658.658 1 1.485 1.029 2.479-.028.994-.371 1.82-1.029 2.477-.658.659-1.484 1.002-2.478 1.03-.994-.028-1.82-.371-2.478-1.03-.658-.657-1.001-1.483-1.03-2.477.029-.994.372-1.82 1.03-2.479.658-.658 1.484-1 2.478-1.029.994.028 1.82.371 2.478 1.03zm2.457-2.457C13.25 3.88 13.937 5.525 13.993 7.5c-.056 1.973-.742 3.619-2.058 4.934C10.619 13.75 8.974 14.437 7 14.492c-1.974-.055-3.62-.742-4.935-2.058C.749 11.12.063 9.474.007 7.5c.056-1.975.742-3.62 2.058-4.936C3.38 1.25 5.026.562 7 .506c1.974.056 3.619.743 4.935 2.058zm-.809 9.062c1.1-1.099 1.67-2.474 1.712-4.126-.042-1.652-.613-3.028-1.712-4.127-1.099-1.1-2.474-1.67-4.126-1.712-1.652.042-3.028.613-4.127 1.712-1.099 1.1-1.67 2.475-1.711 4.127.042 1.652.612 3.027 1.711 4.126 1.1 1.1 2.475 1.67 4.127 1.712 1.652-.043 3.027-.613 4.126-1.712z"/></g></g></svg>