<svg xmlns="http://www.w3.org/2000/svg" width="23" height="25" viewBox="0 0 23 25"><g><g><path fill="#fff" d="M3.668 17.997c1.806 0 3.315 1.257 3.612 2.905h15.096c.343 0 .624.268.624.597 0 .327-.281.595-.624.595H7.28C6.983 23.744 5.48 25 3.669 25 1.644 25 0 23.43 0 21.499c0-1.927 1.644-3.502 3.669-3.502zm0 1.192c-1.337 0-2.42 1.033-2.42 2.31 0 1.276 1.083 2.309 2.42 2.309 1.338 0 2.42-1.038 2.42-2.31 0-1.27-1.082-2.31-2.42-2.31zm8.832-6.18a.506.506 0 0 1-.5-.509c0-.28.225-.509.5-.509.274 0 .5.23.5.51s-.221.508-.5.508zm-9.995 0a.506.506 0 0 1-.5-.509c0-.28.225-.509.5-.509.274 0 .5.23.5.51s-.226.508-.5.508zm4.005 0a.506.506 0 0 1-.5-.509c0-.28.225-.509.5-.509.274 0 .5.23.5.51s-.226.508-.5.508zm-6.02 0a.506.506 0 0 1-.5-.509c0-.28.225-.509.5-.509.274 0 .5.23.5.51s-.226.508-.5.508zm14 0a.506.506 0 0 1-.5-.509c0-.28.225-.509.5-.509s.5.23.5.51-.221.508-.5.508zm-9.995 0a.506.506 0 0 1-.5-.509c0-.28.225-.509.5-.509.274 0 .5.23.5.51s-.226.508-.5.508zM19.33 8.796c2.025 0 3.669 1.675 3.669 3.735 0 2.062-1.644 3.736-3.669 3.736-2.024 0-3.668-1.674-3.668-3.736 0-2.06 1.644-3.735 3.668-3.735zm0 1.272c-1.337 0-2.42 1.107-2.42 2.463 0 1.362 1.083 2.465 2.42 2.465 1.338 0 2.42-1.108 2.42-2.465 0-1.356-1.082-2.463-2.42-2.463zM3.67 0c1.805 0 3.314 1.256 3.61 2.905h15.097c.343 0 .624.268.624.596 0 .328-.281.596-.624.596H7.28c-.297 1.649-1.8 2.905-3.611 2.905C1.644 7.002 0 5.432 0 3.501 0 1.569 1.644 0 3.669 0zm0 1.192c-1.338 0-2.42 1.038-2.42 2.309 0 1.271 1.082 2.31 2.42 2.31 1.337 0 2.42-1.039 2.42-2.31 0-1.277-1.083-2.31-2.42-2.31zm6.84 11.817a.506.506 0 0 1-.499-.509c0-.28.225-.509.5-.509.274 0 .5.23.5.51s-.226.508-.5.508zm-2.014 0a.506.506 0 0 1-.5-.509c0-.28.225-.509.5-.509.274 0 .5.23.5.51s-.226.508-.5.508z"/></g></g></svg>