<svg xmlns="http://www.w3.org/2000/svg" width="21" height="20" viewBox="0 0 21 20"><g><g><path fill="#a8a8a8" d="M19 4c1.049 0 2 .913 2 2v8c0 1.086-.951 2-2 2h-3v3c0 .234-.773 1-1 1H6c-.227 0-1-.766-1-1v-3H2c-1.049 0-2-.914-2-2V6c0-1.087.951-2 2-2h2V1c0-.723.303-1 1-1h11c.697 0 1 .277 1 1v3zM5 4h11V2c0-.254-.755-1-1-1H6c-.245 0-1 .746-1 1zm10 8H6v7h9zm5-6c0-.618-.404-1-1-1H2c-.597 0-1 .382-1 1v8c0 .618.403 1 1 1h3v-3c0-.235.773-1 1-1h9c.227 0 1 .765 1 1v3h3c.597 0 1-.382 1-1zm-6.425 9.014c.242 0 .437.218.437.486s-.195.485-.437.485h-6.15c-.242 0-.438-.217-.438-.485s.196-.486.438-.486zm.039 1.977c.22 0 .397.225.397.503s-.178.504-.397.504h-1.205c-.22 0-.398-.226-.398-.504s.178-.503.398-.503zm-5.023 0c.22 0 .398.225.398.503s-.178.504-.398.504H7.386c-.22 0-.397-.226-.397-.504s.178-.503.397-.503zM13.575 13c.242 0 .437.226.437.504s-.195.504-.437.504h-6.15c-.242 0-.438-.226-.438-.504s.196-.503.438-.503zm1.938-6.995c.259 0 .468.226.468.504s-.21.503-.468.503H14.47c-.259 0-.469-.225-.469-.503s.21-.504.469-.504zm3.015 0c.259 0 .468.226.468.504s-.21.503-.468.503h-1.043c-.259 0-.468-.225-.468-.503s.21-.504.468-.504zM10.5 16.991c.278 0 .505.226.505.503a.505.505 0 0 1-1.01 0c0-.277.227-.503.505-.503z"/></g></g></svg>