<svg xmlns="http://www.w3.org/2000/svg" width="19" height="19" viewBox="0 0 19 19"><g><g><path fill="#00aeff" d="M16.52 15.503A3.498 3.498 0 0 1 13.029 19a3.498 3.498 0 0 1-3.273-4.718l-3.542-2.015a3.499 3.499 0 0 1-2.723 1.308A3.498 3.498 0 0 1 0 10.079 3.498 3.498 0 0 1 3.49 6.583c1.168 0 2.252.59 2.895 1.541l2.436-1.128a5.212 5.212 0 0 1-.298-1.75C8.524 2.353 10.874 0 13.762 0 16.65 0 19 2.353 19 5.246c0 2.892-2.35 5.246-5.238 5.246a5.215 5.215 0 0 1-2.825-.828A5.257 5.257 0 0 1 9.303 8l-2.45 1.134a3.51 3.51 0 0 1-.09 2.165l3.543 2.015a3.5 3.5 0 0 1 2.723-1.307 3.498 3.498 0 0 1 3.491 3.496zm-2.758-14.39a4.133 4.133 0 0 0 0 8.265 4.133 4.133 0 0 0 0-8.265zM1.113 10.08a2.383 2.383 0 0 0 2.378 2.383 2.384 2.384 0 0 0 0-4.766 2.383 2.383 0 0 0-2.378 2.383zm9.537 5.424a2.384 2.384 0 0 0 2.379 2.383 2.383 2.383 0 0 0 0-4.766 2.384 2.384 0 0 0-2.379 2.383z"/></g></g></svg>