<svg xmlns="http://www.w3.org/2000/svg" width="20" height="20" viewBox="0 0 20 20"><g><g><path fill="#bebebe" d="M20 10c0 5.514-4.486 10-10 10S0 15.514 0 10C0 4.484 4.486-.002 10-.002s10 4.486 10 10zm-.74 0c0-5.106-4.154-9.26-9.26-9.26S.74 4.894.74 10c0 5.105 4.154 9.259 9.26 9.259s9.26-4.154 9.26-9.26zm-5.594 3.142a.37.37 0 1 1-.523.524L9.96 10.485 6.726 13.72a.369.369 0 0 1-.524 0 .37.37 0 0 1 0-.524l3.236-3.235-3.105-3.104a.37.37 0 0 1 .524-.524l3.104 3.104 3.05-3.05a.37.37 0 0 1 .524.524l-3.05 3.05z"/></g></g></svg>