<svg xmlns="http://www.w3.org/2000/svg" width="60" height="60" viewBox="0 0 60 60"><g><g><path fill="#02a0dd" d="M60 16h-2v2h-2v-2h-2v-2h2v-2h2v2h2zm-6 8v33c0 1.653-1.346 3-3 3H3c-1.654 0-3-1.347-3-3V23.999A5.01 5.01 0 0 1 4 19.1V4c0-2.207 1.794-4 4-4h25c2.206 0 4 1.793 4 4v3c2.757 0 5 2.242 5 5v7h7c2.757 0 5 2.242 5 5zm-17 1h3V12c0-1.595-1-2.903-3-2.996zM6 25h5.054c.5-4.77 4.546-8.5 9.446-8.5 4.9 0 8.944 3.73 9.446 8.5H35V4c0-1.104-.897-2-2-2H8c-1.103 0-2 .896-2 2zm14.5-6.5c-3.797 0-6.944 2.835-7.434 6.5h14.868c-.491-3.665-3.637-6.5-7.434-6.5zM2 25h2v-3.817A2.996 2.996 0 0 0 2 24zm50 14h-5c-1.654 0-3 1.345-3 2.999v1c0 1.654 1.346 3 3 3h5zm0-8.001H2v26c0 .552.449 1 1 1h48c.55 0 1-.448 1-1v-9h-5c-2.757 0-5-2.242-5-5v-1c0-2.757 2.243-5 5-5h5zm0-4H2v2h50zm0-3c0-1.654-1.346-3-3-3h-7v4h10zM50 3v1h-2v2h-2V4h-2V2h2V0h2v2h2zm-3 38h3v3h-3zM33 7v12h-2V8h-.095c-1.386 0-2.569-.836-3.008-2H13.104c-.44 1.164-1.622 2-3.01 2H10v11H8V7a1 1 0 0 1 1-1h1.096c.656 0 1.19-.448 1.19-1a1 1 0 0 1 1-1h16.429a1 1 0 0 1 1 1c0 .552.534 1 1.19 1H32a1 1 0 0 1 1 1z"/></g></g></svg>