<svg xmlns="http://www.w3.org/2000/svg" width="60" height="60" viewBox="0 0 60 60"><g><g><path fill="#02a0dd" d="M59 55.998a4 4 0 0 1-4 4H33a5.957 5.957 0 0 1-3.03-.829.99.99 0 0 1-.97.829H5a1 1 0 0 1-1-.93l-1.931-27.07H1a1 1 0 0 1-1-1v-4a1 1 0 0 1 1-1h7v-1A1 1 0 0 1 9 24h12a1 1 0 0 1 1 1v1h11a1 1 0 0 1 1 1v4a1 1 0 0 1-1 1h-1.07l-.642 9H36v-38a3 3 0 1 1 6 0v38h8a1 1 0 0 1 1 1v8.442c0 .86.697 1.557 1.557 1.557H55a4 4 0 0 1 4 4zm-21-19h2V3a1 1 0 0 0-2 0zm0 4h2v-2h-2zm-9 2v2h20v-2zm-19 0h10v-17H10v13h8v2h-8zm17 11v-12a1 1 0 0 1 1-1h1.283l.643-9H28v-2h4v-2H22v16a1 1 0 0 1-1 1H9a1 1 0 0 1-1-1v-16H2v2h4v2H4.074l1.857 26h22.138l.038-.54A5.963 5.963 0 0 1 27 53.999zm30 2a2 2 0 0 0-2-2h-2.443A3.561 3.561 0 0 1 49 50.441v-3.443h-2v2h-2v-2h-2v6h-2v-6h-4v2h-2v-2h-2v4h-2v-4h-2v7a4 4 0 0 0 4 4h22a2 2 0 0 0 2-2zm-33-26h2v2h-2zm7 23h2v2h-2zM6 7v2H4v2H2V9H0V7h2V4.999h2v2zm21 7v2h-2v2h-2v-2h-2v-2h2v-2h2v2zm33 15v1.998h-2v2h-2v-2h-2V29h2v-2h2v2zM55 1.998v2h-2v2h-2v-2h-2V2h2v-2h2v2z"/></g></g></svg>