<svg xmlns="http://www.w3.org/2000/svg" width="24" height="22" viewBox="0 0 24 22"><g><g><path fill="#a8a8a8" d="M7.733 14.575a.718.718 0 0 0-.702.731c0 .402.316.73.703.73h12.75c.389 0 .704.327.704.73 0 .404-.315.73-.704.73H9.141c1.163 0 2.109.984 2.109 2.192 0 1.208-.946 2.19-2.11 2.19-1.162 0-2.109-.982-2.109-2.19s.947-2.192 2.11-2.192H7.734c-1.163 0-2.109-.982-2.109-2.19 0-.9.524-1.673 1.271-2.01L4.358 1.43H.703A.717.717 0 0 1 0 .7c0-.403.315-.73.703-.73h4.219a.71.71 0 0 1 .686.572l.503 2.35h17.186c.22 0 .428.107.561.29.133.183.176.42.115.64l-2.812 10.224a.708.708 0 0 1-.676.53H7.733zM6.423 4.351l1.875 8.764h11.656l2.41-8.764zm2.718 14.606c-.388 0-.703.328-.703.73 0 .403.315.73.703.73a.718.718 0 0 0 .703-.73c0-.402-.316-.73-.703-.73zm7.828.73c0-1.207.946-2.19 2.11-2.19 1.162 0 2.109.983 2.109 2.19 0 1.209-.947 2.191-2.11 2.191-1.163 0-2.11-.982-2.11-2.19zm2.11-.73c-.389 0-.704.328-.704.73 0 .403.316.73.703.73a.718.718 0 0 0 .703-.73.718.718 0 0 0-.703-.73z"/></g></g></svg>