<svg xmlns="http://www.w3.org/2000/svg" width="13" height="18" viewBox="0 0 13 18"><g><g><path fill="#00adef" d="M8.42 4.74c.525.557.798 1.248.821 2.073-.023.825-.296 1.514-.82 2.064s-1.18.837-1.966.861c-.786-.024-1.441-.31-1.965-.861-.525-.55-.798-1.239-.82-2.064.022-.825.295-1.516.82-2.073.524-.555 1.179-.846 1.965-.87.786.024 1.442.315 1.966.87zm-.76 3.338c.325-.34.487-.763.487-1.265 0-.502-.162-.923-.487-1.265a1.598 1.598 0 0 0-1.205-.512c-.478 0-.88.171-1.205.512-.325.342-.487.763-.487 1.265 0 .502.162.924.487 1.265.325.341.727.518 1.205.53.479-.012.88-.189 1.205-.53zm3.043-5.733c1.133 1.185 1.712 2.674 1.734 4.468-.011.276-.028.532-.05.772-.445 2.584-1.42 3.966-2.924 6.136-1.504 2.171-2.353 3.323-2.546 3.454-.08.084-.166.156-.257.216a.585.585 0 0 1-.188.036.33.33 0 0 1-.154-.036 1.27 1.27 0 0 1-.256-.216c-.194-.131-1.054-1.283-2.58-3.454C1.953 11.551.961 10.17.506 7.585a7.68 7.68 0 0 1-.068-.772c.045-1.794.635-3.283 1.769-4.468C3.34 1.161 4.758.545 6.455.497c1.698.048 3.114.664 4.248 1.848zm-.795.78C8.973 2.152 7.81 1.646 6.42 1.61c-1.39.036-2.55.54-3.478 1.516-.929.975-1.41 2.193-1.444 3.651.01.204.028.425.05.664.32 1.962 1.058 2.856 2.214 4.674 1.157 1.82 2.065 3.105 2.726 3.858.65-.753 1.544-2.038 2.684-3.858 1.14-1.818 1.857-2.712 2.153-4.674a2.23 2.23 0 0 0 .035-.664c-.035-1.458-.519-2.676-1.453-3.651z"/></g></g></svg>